<?xml version="1.0" encoding="iso-8859-1"?>
<!-- Generator: Adobe Illustrator 19.0.0, SVG Export Plug-In . SVG Version: 6.00 Build 0)  -->
<svg version="1.1" id="Layer_1" xmlns="http://www.w3.org/2000/svg" xmlns:xlink="http://www.w3.org/1999/xlink" x="0px" y="0px"
	 viewBox="0 0 511.998 511.998" style="enable-background:new 0 0 511.998 511.998;" xml:space="preserve">
<g>
	<path style="fill:#9CCBD8;" d="M343.349,21.79v31.934h-67.521V21.79c0-6.538,5.3-11.826,11.826-11.826h43.869
		C338.049,9.964,343.349,15.252,343.349,21.79z"/>
	<rect x="172.036" y="151.509" style="fill:#9CCBD8;" width="165.09" height="90.053"/>
</g>
<path style="fill:#B5DFEA;" d="M373.36,245.568v236.253c0,12.103-9.819,21.91-21.922,21.91H160.207
	c-12.103,0-21.91-9.807-21.91-21.91V245.568c0-12.091,9.807-21.91,21.91-21.91h191.231
	C363.54,223.657,373.36,233.477,373.36,245.568z"/>
<path style="fill:#C0E8F6;" d="M349.575,245.568v236.253c0,12.103-7.833,21.91-17.486,21.91H179.557
	c-9.653,0-17.477-9.807-17.477-21.91V245.568c0-12.091,7.823-21.91,17.477-21.91h152.532
	C341.742,223.657,349.575,233.477,349.575,245.568z"/>
<g>
	<path style="fill:#9CCBD8;" d="M373.36,272.105v15.624H222.692c-4.315,0-7.812-3.497-7.812-7.812c0-4.315,3.497-7.812,7.812-7.812
		H373.36z"/>
	<path style="fill:#9CCBD8;" d="M194.869,279.917c0,4.315-3.497,7.812-7.812,7.812h-48.76v-15.624h48.76
		C191.371,272.105,194.869,275.603,194.869,279.917z"/>
	<path style="fill:#9CCBD8;" d="M373.36,308.714v15.624H222.692c-4.315,0-7.812-3.497-7.812-7.812c0-4.315,3.497-7.812,7.812-7.812
		H373.36z"/>
	<path style="fill:#9CCBD8;" d="M138.297,324.339h48.76c4.315,0,7.812-3.497,7.812-7.812c0-4.315-3.497-7.812-7.812-7.812h-48.76
		V324.339z"/>
	<path style="fill:#9CCBD8;" d="M373.36,345.312v15.624H222.692c-4.315,0-7.812-3.497-7.812-7.812c0-4.315,3.497-7.812,7.812-7.812
		H373.36z"/>
	<path style="fill:#9CCBD8;" d="M194.869,353.124c0,4.315-3.497,7.812-7.812,7.812h-48.76v-15.624h48.76
		C191.371,345.312,194.869,348.809,194.869,353.124z"/>
	<path style="fill:#9CCBD8;" d="M373.36,381.909v15.624H222.692c-4.315,0-7.812-3.497-7.812-7.812c0-4.315,3.497-7.812,7.812-7.812
		H373.36z"/>
	<path style="fill:#9CCBD8;" d="M194.869,389.721c0,4.315-3.497,7.812-7.812,7.812h-48.76v-15.624h48.76
		C191.371,381.909,194.869,385.406,194.869,389.721z"/>
	<path style="fill:#9CCBD8;" d="M373.36,418.506v15.624H222.692c-4.315,0-7.812-3.497-7.812-7.812s3.497-7.812,7.812-7.812H373.36z"
		/>
	<path style="fill:#9CCBD8;" d="M194.869,426.318c0,4.315-3.497,7.812-7.812,7.812h-48.76v-15.624h48.76
		C191.371,418.506,194.869,422.003,194.869,426.318z"/>
	<path style="fill:#9CCBD8;" d="M373.36,455.115v15.624H222.692c-4.315,0-7.812-3.497-7.812-7.812c0-4.315,3.497-7.812,7.812-7.812
		H373.36z"/>
	<path style="fill:#9CCBD8;" d="M194.869,462.927c0,4.315-3.497,7.812-7.812,7.812h-48.76v-15.624h48.76
		C191.371,455.115,194.869,458.613,194.869,462.927z"/>
</g>
<path style="fill:#B5DFEA;" d="M373.36,70.827v86.211c0,12.103-9.819,21.91-21.922,21.91h-14.314h-165.09h-11.826
	c-12.103,0-21.91-9.807-21.91-21.91V70.827c0-12.103,9.807-21.91,21.91-21.91h115.621h67.521h8.089
	C363.54,48.916,373.36,58.724,373.36,70.827z"/>
<path style="fill:#C0E8F6;" d="M347.171,70.827v86.211c0,12.103-7.632,21.91-17.038,21.91h-11.125H190.704h-9.191
	c-9.406,0-17.028-9.807-17.028-21.91V70.827c0-12.103,7.622-21.91,17.028-21.91h89.857h52.476h6.286
	C339.539,48.916,347.171,58.724,347.171,70.827z"/>
<path d="M385.406,324.794c4.315,0,7.812-3.497,7.812-7.812c0-4.315-3.497-7.812-7.812-7.812h-4.066v-20.976h4.066
	c4.315,0,7.812-3.497,7.812-7.812s-3.497-7.812-7.812-7.812h-4.066v-26.541c0-16.389-13.334-29.722-29.722-29.722h-6.511V189.42
	h6.511c16.39,0,29.722-13.334,29.722-29.722V73.486c0-16.389-13.334-29.722-29.722-29.722h-0.284v-24.13
	C351.334,8.807,342.527,0,331.7,0h-43.875c-10.827,0-19.634,8.807-19.634,19.634v24.128H160.381
	c-16.39,0-29.722,13.334-29.722,29.722v86.211c0,16.389,13.334,29.722,29.722,29.722h4.009v26.886h-4.009
	c-16.39,0-29.722,13.334-29.722,29.722v26.541h-4.067c-4.315,0-7.812,3.497-7.812,7.812c0,4.315,3.497,7.812,7.812,7.812h4.067
	v20.976h-4.067c-4.315,0-7.812,3.497-7.812,7.812c0,4.315,3.497,7.812,7.812,7.812h4.067v20.976h-4.067
	c-4.315,0-7.812,3.497-7.812,7.812s3.497,7.812,7.812,7.812h4.067v20.976h-4.067c-4.315,0-7.812,3.497-7.812,7.812
	s3.497,7.812,7.812,7.812h4.067v20.976h-4.067c-4.315,0-7.812,3.497-7.812,7.812c0,4.315,3.497,7.812,7.812,7.812h4.067v20.976
	h-4.067c-4.315,0-7.812,3.497-7.812,7.812c0,4.315,3.497,7.812,7.812,7.812h4.067v11.08c0,16.389,13.334,29.722,29.722,29.722
	h191.237c16.39,0,29.722-13.334,29.722-29.722v-11.08h4.066c4.315,0,7.812-3.497,7.812-7.812c0-4.315-3.497-7.812-7.812-7.812
	h-4.066v-20.976h4.066c4.315,0,7.812-3.497,7.812-7.812c0-4.315-3.497-7.812-7.812-7.812h-4.066v-20.976h4.066
	c4.315,0,7.812-3.497,7.812-7.812s-3.497-7.812-7.812-7.812h-4.066v-20.976h4.066c4.315,0,7.812-3.497,7.812-7.812
	s-3.497-7.812-7.812-7.812h-4.066v-20.976h4.066V324.794z M283.816,19.634c0-2.21,1.798-4.009,4.009-4.009H331.7
	c2.211,0,4.009,1.799,4.009,4.009v24.128h-51.893V19.634L283.816,19.634z M365.717,345.771H222.865
	c-4.315,0-7.812,3.497-7.812,7.812c0,4.315,3.497,7.812,7.812,7.812h142.85v20.976h-142.85c-4.315,0-7.812,3.497-7.812,7.812
	s3.497,7.812,7.812,7.812h142.85v20.976h-142.85c-4.315,0-7.812,3.497-7.812,7.812c0,4.315,3.497,7.812,7.812,7.812h142.85v20.976
	h-142.85c-4.315,0-7.812,3.497-7.812,7.812c0,4.315,3.497,7.812,7.812,7.812h142.85v11.08c0,7.774-6.325,14.098-14.098,14.098
	H160.381c-7.774,0-14.098-6.324-14.098-14.098v-11.08h40.949c4.315,0,7.812-3.497,7.812-7.812c0-4.315-3.497-7.812-7.812-7.812
	h-40.949v-20.976h40.949c4.315,0,7.812-3.497,7.812-7.812c0-4.315-3.497-7.812-7.812-7.812h-40.949v-20.976h40.949
	c4.315,0,7.812-3.497,7.812-7.812s-3.497-7.812-7.812-7.812h-40.949v-20.976h40.949c4.315,0,7.812-3.497,7.812-7.812
	c0-4.315-3.497-7.812-7.812-7.812h-40.949v-20.976h40.949c4.315,0,7.812-3.497,7.812-7.812c0-4.315-3.497-7.812-7.812-7.812h-40.949
	v-20.976h40.949c4.315,0,7.812-3.497,7.812-7.812c0-4.315-3.497-7.812-7.812-7.812h-40.949v-26.541
	c0-7.774,6.325-14.098,14.098-14.098h38.269c4.315,0,7.812-3.497,7.812-7.812c0-4.315-3.497-7.812-7.812-7.812h-18.635V189.42
	h18.635c4.315,0,7.812-3.497,7.812-7.812c0-4.315-3.497-7.812-7.812-7.812h-38.269c-7.774,0-14.098-6.324-14.098-14.098V73.486
	c0-7.774,6.325-14.098,14.098-14.098h115.623h67.518h8.096c7.774,0,14.098,6.324,14.098,14.098v86.211
	c0,7.774-6.326,14.098-14.098,14.098H234.283c-4.315,0-7.812,3.497-7.812,7.812c0,4.315,3.497,7.812,7.812,7.812h95.2v26.886h-95.2
	c-4.315,0-7.812,3.497-7.812,7.812c0,4.315,3.497,7.812,7.812,7.812h117.335c7.774,0,14.098,6.324,14.098,14.098v26.541h-142.85
	c-4.315,0-7.812,3.497-7.812,7.812c0,4.315,3.497,7.812,7.812,7.812h142.85v20.976h-142.85c-4.315,0-7.812,3.497-7.812,7.812
	c0,4.315,3.497,7.812,7.812,7.812h142.85v20.976H365.717z"/>
<g>
</g>
<g>
</g>
<g>
</g>
<g>
</g>
<g>
</g>
<g>
</g>
<g>
</g>
<g>
</g>
<g>
</g>
<g>
</g>
<g>
</g>
<g>
</g>
<g>
</g>
<g>
</g>
<g>
</g>
</svg>
