<?xml version="1.0" encoding="iso-8859-1"?>
<!-- Generator: Adobe Illustrator 19.0.0, SVG Export Plug-In . SVG Version: 6.00 Build 0)  -->
<svg version="1.1" id="Layer_1" xmlns="http://www.w3.org/2000/svg" xmlns:xlink="http://www.w3.org/1999/xlink" x="0px" y="0px"
	 viewBox="0 0 512.002 512.002" style="enable-background:new 0 0 512.002 512.002;" xml:space="preserve">
<g>
	<path style="fill:#EFBF8B;" d="M329.39,380.721v95.434c0,7.715-3.127,14.694-8.175,19.754c-5.174,5.151-12.337,8.302-20.248,8.175
		c-15.327-0.264-27.423-13.211-27.423-28.55v-94.813l32.118-19.831l23.717,19.831H329.39z"/>
	<path style="fill:#EFBF8B;" d="M238.326,380.721v95.434c0,15.764-13.05,28.481-28.941,27.906
		c-15.131-0.529-26.905-13.43-26.905-28.573v-94.767l25.833-25.196l30.002,25.196H238.326z"/>
</g>
<g>
	<path style="fill:#E5AE7B;" d="M198.577,475.488v-94.767l18.384-17.932l-8.65-7.264l-25.833,25.196v94.767
		c0,15.143,11.774,28.044,26.905,28.573c3.176,0.115,6.235-0.309,9.103-1.174C206.874,499.326,198.577,488.198,198.577,475.488z"/>
	<path style="fill:#E5AE7B;" d="M289.642,475.488v-94.767l18.384-17.932l-8.65-7.264l-25.833,25.196v94.767
		c0,15.143,11.774,28.044,26.905,28.573c3.176,0.115,6.235-0.309,9.103-1.174C297.939,499.326,289.642,488.198,289.642,475.488z"/>
</g>
<path style="fill:#FD6568;" d="M329.39,309.432v71.288h-55.846v-23.628c0-4.864-1.978-9.256-5.163-12.441
	c-3.461-3.449-8.348-5.485-13.694-5.117c-9.302,0.632-16.362,8.704-16.362,18.029v23.157H182.48v-71.288l16.097-4.105l49.591-12.659
	l81.211,16.764L329.39,309.432L329.39,309.432z"/>
<polygon style="fill:#E0555C;" points="198.577,305.328 198.577,380.72 182.48,380.72 182.48,309.432 "/>
<path style="fill:#E5AE7B;" d="M284.031,152.91l26.997,47.007c0,16.224-40.14,29.366-56.363,29.366
	c-8.106,0-15.453-3.288-20.765-8.601c-5.312-5.312-19.455-12.648-19.455-20.765l10.854-47.007h0.011h2.622l15.367-15.356
	c8.302,3.162-1.104-4.326,8.302-4.326c9.417,0,6.151,7.499,14.465,4.337L284.031,152.91z"/>
<path style="fill:#EFBF8B;" d="M155.643,152.91l9.742,26.311l-9.742,29.535H76.318c-15.419,0-27.917-12.498-27.917-27.917v-0.011
	c0-15.419,12.498-27.917,27.917-27.917h39.783H155.643z"/>
<path style="fill:#E5AE7B;" d="M68.906,180.839v-0.011c0-15.419,12.498-27.917,27.917-27.917H76.318
	c-15.419,0-27.917,12.498-27.917,27.917v0.011c0,15.419,12.498,27.917,27.917,27.917h20.504
	C81.404,208.756,68.906,196.258,68.906,180.839z"/>
<g>
	<rect x="395.568" y="208.829" style="fill:#515260;" width="72.047" height="45.314"/>
	<polygon style="fill:#515260;" points="467.62,107.608 467.62,152.91 435.345,152.91 395.573,152.91 395.573,107.608 	"/>
</g>
<path style="fill:#EFBF8B;" d="M463.274,180.827v0.011c0,15.419-12.498,27.917-27.917,27.917H356.02l-21.996-24.936l21.996-30.91
	h39.553h39.772C450.775,152.91,463.274,165.409,463.274,180.827z"/>
<path style="fill:#FEE572;" d="M356.02,152.91v55.846h-11.671c-8.267,0-14.959,6.703-14.959,14.97v85.706H182.48v-85.706
	c0-8.267-6.703-14.97-14.97-14.97h-11.866V152.91h69.655v20.225c0,8.118,3.288,15.453,8.601,20.765s12.659,8.601,20.765,8.601
	c16.224,0,29.366-13.142,29.366-29.366V152.91H356.02z"/>
<path style="fill:#E5AE7B;" d="M330.046,82.416c0,32.218-20.202,59.709-48.637,70.495c-4.323,1.644-8.842,2.898-13.51,3.725
	c-4.3,0.759-8.716,1.161-13.234,1.161c-9.405,0-18.42-1.725-26.721-4.887h-0.011c-28.435-10.785-48.648-38.277-48.648-70.495
	c0-2.208,0.092-4.392,0.287-6.542c0.701,0.103,1.426,0.149,2.15,0.149l70.138-18.535l13.729,3.357l62.032,15.177
	c0.724,0,1.437-0.046,2.139-0.149C329.954,78.023,330.046,80.208,330.046,82.416z"/>
<path style="fill:#666666;" d="M319.433,43.827l-53.776,10.866l-13.798,2.794l-61.963-13.66
	c13.154-22.03,37.231-36.794,64.769-36.794c4.507,0,8.934,0.391,13.223,1.173C289.791,12.071,308.429,25.408,319.433,43.827z"/>
<path style="fill:#EFBF8B;" d="M330.046,82.416c0,32.218-20.202,59.709-48.637,70.495c-4.323,1.644-8.842,2.898-13.51,3.725
	c-4.668-0.816-9.187-2.081-13.51-3.725h-0.012c-28.435-10.785-48.648-38.277-48.648-70.495c0-2.208,0.092-4.392,0.287-6.542
	c0.701,0.103,1.426,0.149,2.15,0.149l57.421-15.177l62.032,15.177c0.724,0,1.437-0.046,2.139-0.149
	C329.954,78.023,330.046,80.208,330.046,82.416z"/>
<path style="fill:#7D7878;" d="M319.433,43.827l-53.776,10.866l-49.315-10.866c11.004-18.42,29.642-31.758,51.546-35.621
	C289.791,12.071,308.429,25.408,319.433,43.827z"/>
<g>
	<rect x="44.039" y="208.829" style="fill:#515260;" width="72.058" height="45.314"/>
	<polygon style="fill:#515260;" points="116.102,107.608 116.102,152.91 76.318,152.91 44.043,152.91 44.043,107.608 	"/>
</g>
<g>
	<rect x="63.585" y="208.829" style="fill:#666666;" width="32.965" height="45.314"/>
	<polygon style="fill:#666666;" points="96.555,107.608 96.555,152.91 78.355,152.91 63.59,152.91 63.59,107.608 	"/>
	<rect x="415.115" y="208.829" style="fill:#666666;" width="32.965" height="45.314"/>
	<polygon style="fill:#666666;" points="448.079,107.608 448.079,152.91 429.879,152.91 415.114,152.91 415.114,107.608 	"/>
</g>
<path style="fill:#E0555C;" d="M343.717,59.924c0,8.175-6.082,14.913-13.959,15.948c-0.701,0.103-1.414,0.149-2.139,0.149H181.721
	c-0.724,0-1.449-0.046-2.15-0.149c-3.576-0.471-6.795-2.127-9.233-4.565c-2.909-2.909-4.714-6.933-4.714-11.383
	c0-8.888,7.209-16.097,16.097-16.097H327.62c4.45,0,8.474,1.805,11.383,4.714C341.912,51.463,343.717,55.487,343.717,59.924z"/>
<path style="fill:#FD6568;" d="M343.717,59.924c0,8.175-6.082,14.913-13.959,15.948c-0.701,0.103-1.414,0.149-2.139,0.149H209.937
	c-0.724,0-1.449-0.046-2.15-0.149c-3.576-0.471-6.795-2.127-9.233-4.565c-2.909-2.909-4.714-6.933-4.714-11.383
	c0-8.888,7.209-16.097,16.097-16.097H327.62c4.45,0,8.474,1.805,11.383,4.714C341.912,51.463,343.717,55.487,343.717,59.924z"/>
<path style="fill:#EAD26C;" d="M198.577,230.177v79.256H182.48v-85.706c0-8.267-6.703-14.97-14.97-14.97v-1.127h8.52
	C188.482,207.629,198.577,217.725,198.577,230.177z"/>
<path style="fill:#E0555C;" d="M260.863,339.501c15.894,0,28.778,12.885,28.778,28.778v12.442l-0.035,0.012h-16.074v-23.628
	c0-4.864-1.978-9.256-5.163-12.441c-3.185-3.185-7.589-5.163-12.452-5.163L260.863,339.501L260.863,339.501z"/>
<path d="M475.265,153.351v-45.307c0-4.128-3.346-7.474-7.474-7.474c-4.128,0-7.474,3.346-7.474,7.474v37.833H403.21v-30.359h40.213
	c4.128,0,7.474-3.346,7.474-7.474s-3.346-7.474-7.474-7.474h-47.687c-4.128,0-7.474,3.346-7.474,7.474v37.833h-79.726
	c17.822-15.208,29.154-37.81,29.154-63.021c0-0.377-0.02-0.745-0.024-1.12c8.069-3.746,13.69-11.905,13.69-21.371
	c0-12.997-10.574-23.571-23.571-23.571h-4.084C308.404,13.999,282.409,0,254.836,0c-27.575,0-53.568,13.999-68.865,36.794h-4.084
	c-12.997,0-23.571,10.574-23.571,23.571c0,9.466,5.621,17.624,13.69,21.371c-0.005,0.375-0.024,0.743-0.024,1.12
	c0,25.211,11.332,47.811,29.154,63.021H123.74v-37.833c0-4.128-3.346-7.474-7.474-7.474H44.211c-4.128,0-7.474,3.346-7.474,7.474
	v45.307c0,4.128,3.346,7.474,7.474,7.474h3.411c-4.106,5.781-6.531,12.838-6.531,20.455c0,7.643,2.443,14.721,6.578,20.513h-3.459
	c-4.128,0-7.474,3.346-7.474,7.474v20.6c0,4.128,3.346,7.474,7.474,7.474s7.474-3.346,7.474-7.474v-13.126h57.107v30.359H44.211
	c-4.128,0-7.474,3.346-7.474,7.474s3.346,7.474,7.474,7.474h72.055c4.128,0,7.474-3.346,7.474-7.474V216.67h43.939
	c4.13,0,7.491,3.361,7.491,7.491v251.767c0,19.216,15.305,35.384,34.109,36.042c9.708,0.353,18.883-3.161,25.857-9.886
	c6.983-6.734,10.828-15.787,10.828-25.489V358.004c0-5.57,4.127-10.214,9.402-10.572c2.983-0.206,5.787,0.844,7.896,2.946
	c1.918,1.918,2.973,4.459,2.973,7.156v118.441c0,19.532,15.597,35.692,34.777,36.022c0.195,0.003,0.391,0.005,0.585,0.005
	c9.456,0,18.334-3.664,25.073-10.374c6.679-6.694,10.357-15.584,10.357-25.032V224.161c0-4.13,3.361-7.491,7.491-7.491h43.743
	v37.902c0,4.128,3.346,7.474,7.474,7.474h72.055c4.128,0,7.474-3.346,7.474-7.474v-45.307c0-4.128-3.346-7.474-7.474-7.474h-3.46
	c4.136-5.794,6.58-12.876,6.58-20.524c0-7.613-2.425-14.665-6.531-20.444h3.411C471.919,160.824,475.265,157.478,475.265,153.351z
	 M232.944,162.754c6.978,1.914,14.314,2.957,21.892,2.957c7.578,0,14.914-1.043,21.892-2.957v10.822
	c0,12.072-9.822,21.892-21.892,21.892c-12.071,0-21.892-9.82-21.892-21.892L232.944,162.754L232.944,162.754z M254.836,14.949
	c19.021,0,37.126,8.131,49.861,21.846h-99.723C217.71,23.08,235.815,14.949,254.836,14.949z M186.956,83.937h99.519
	c4.128,0,7.474-3.346,7.474-7.474c0-4.128-3.346-7.474-7.474-7.474H181.886c-4.756,0-8.624-3.869-8.624-8.624
	s3.868-8.624,8.624-8.624h145.9c4.756,0,8.624,3.869,8.624,8.624s-3.868,8.624-8.624,8.624h-14.291
	c-4.128,0-7.474,3.346-7.474,7.474c0,4.128,3.346,7.474,7.474,7.474h9.221c-0.582,36.946-30.799,66.827-67.88,66.827
	S187.538,120.882,186.956,83.937z M51.685,115.517h57.107v30.359H51.685V115.517z M148.337,160.824v40.899H76.482
	c-11.273,0-20.444-9.171-20.444-20.455c0-11.273,9.171-20.444,20.444-20.444H148.337z M316.107,491.052
	c-3.976,3.958-9.256,6.084-14.846,6c-11.071-0.191-20.078-9.646-20.078-21.077v-87.339h40.899v87.96
	C322.081,482.057,319.953,487.198,316.107,491.052z M460.317,247.099H403.21v-30.359h57.107V247.099z M455.964,181.279
	c0,11.273-9.171,20.444-20.444,20.444h-91.001c-12.373,0-22.438,10.065-22.438,22.438V302.4h-6.286
	c-4.128,0-7.474,3.346-7.474,7.474c0,4.128,3.346,7.474,7.474,7.474h6.286v56.34h-40.899v-16.155c0-6.69-2.611-12.985-7.36-17.735
	c-5.141-5.125-12.244-7.778-19.477-7.279c-13.081,0.89-23.33,12.084-23.33,25.485v15.683h-24.453c-4.128,0-7.474,3.346-7.474,7.474
	c0,4.128,3.346,7.474,7.474,7.474h24.453v87.96c0,5.608-2.223,10.839-6.256,14.73c-4.025,3.883-9.328,5.911-14.949,5.707
	c-10.859-0.379-19.693-9.847-19.693-21.104V317.347h98.082c4.128,0,7.474-3.346,7.474-7.474c0-4.128-3.346-7.474-7.474-7.474
	h-98.082v-78.238c0-12.372-10.065-22.438-22.438-22.438h-4.395v-40.899h54.711v12.751c0,20.314,16.526,36.84,36.84,36.84
	c20.314,0,36.84-16.526,36.84-36.84v-12.751h57.042v20.749c0,4.128,3.346,7.474,7.474,7.474s7.474-3.346,7.474-7.474v-20.749h32.072
	h39.772C446.788,160.824,455.964,169.995,455.964,181.279z"/>
<g>
</g>
<g>
</g>
<g>
</g>
<g>
</g>
<g>
</g>
<g>
</g>
<g>
</g>
<g>
</g>
<g>
</g>
<g>
</g>
<g>
</g>
<g>
</g>
<g>
</g>
<g>
</g>
<g>
</g>
</svg>
