<?xml version="1.0" encoding="iso-8859-1"?>
<!-- Generator: Adobe Illustrator 19.0.0, SVG Export Plug-In . SVG Version: 6.00 Build 0)  -->
<svg version="1.1" id="Layer_1" xmlns="http://www.w3.org/2000/svg" xmlns:xlink="http://www.w3.org/1999/xlink" x="0px" y="0px"
	 viewBox="0 0 512 512" style="enable-background:new 0 0 512 512;" xml:space="preserve">
<path style="fill:#9ED6E5;" d="M418.718,305.383c0,89.96-72.919,162.891-162.88,162.891S92.946,395.343,92.946,305.383
	s72.931-162.88,162.891-162.88S418.718,215.423,418.718,305.383z"/>
<path style="fill:#C0E8F6;" d="M393.306,305.384c0,75.925-61.543,137.478-137.468,137.478s-137.478-61.554-137.478-137.478
	s61.554-137.468,137.478-137.468S393.306,229.458,393.306,305.384z"/>
<path style="fill:#7D7878;" d="M279.88,311.501c0,13.285-10.768,24.043-24.043,24.043c-13.286,0-24.043-10.757-24.043-24.043
	c0-13.274,24.043-95.775,24.043-95.775S279.88,298.226,279.88,311.501z"/>
<path style="fill:#EAAC60;" d="M284.452,87.196v39.932l-0.068,0.617c-9.324-1.807-18.85-2.725-28.546-2.725
	s-19.223,0.919-28.546,2.725l-0.068-0.617V87.196V51.208h57.228V87.196L284.452,87.196z"/>
<path style="fill:#FEC274;" d="M265.996,87.196v39.932l-0.024,0.617c-3.311-1.807-6.692-2.725-10.135-2.725
	c-3.443,0-6.824,0.919-10.135,2.725l-0.024-0.617V87.196V51.208h20.318V87.196z"/>
<path style="fill:#F2D766;" d="M284.384,108.583c-9.324-1.355-18.85-2.043-28.546-2.043c-9.696,0-19.223,0.689-28.546,2.043
	c-96.306,13.839-170.307,96.678-170.307,196.799c0,109.828,89.025,198.854,198.854,198.854
	c109.817,0,198.842-89.025,198.842-198.854C454.68,205.262,380.678,122.422,284.384,108.583z M255.837,459.244
	c-84.973,0-153.861-68.888-153.861-153.861s68.888-153.85,153.861-153.85s153.85,68.877,153.85,153.85
	C409.687,390.357,340.811,459.244,255.837,459.244z"/>
<path style="fill:#FEE572;" d="M255.837,120.503c-102.108,0-184.891,82.772-184.891,184.88s82.783,184.891,184.891,184.891
	s184.88-82.783,184.88-184.891S357.945,120.503,255.837,120.503z M255.837,459.244c-84.973,0-153.861-68.888-153.861-153.861
	s68.888-153.85,153.861-153.85s153.85,68.877,153.85,153.85C409.687,390.357,340.811,459.244,255.837,459.244z"/>
<path d="M291.953,102.776V85.947h1.616c23.699,0,42.98-19.281,42.98-42.98c0-11.476-4.472-22.268-12.591-30.388
	C315.846,4.468,305.055,0,293.57,0H218.43c-23.698,0-42.979,19.275-42.979,42.966c0,11.477,4.472,22.27,12.59,30.388
	c8.119,8.119,18.912,12.591,30.388,12.591h1.618v16.829C123.437,119.834,49.816,204.387,49.816,305.816
	C49.816,419.506,142.309,512,256,512s206.184-92.494,206.184-206.184C462.183,204.388,388.563,119.836,291.953,102.776z
	 M218.429,71.273c-7.556,0-14.664-2.945-20.012-8.293c-5.347-5.348-8.293-12.455-8.293-20.013c0-15.601,12.697-28.292,28.305-28.292
	h75.139c7.565,0,14.673,2.94,20.012,8.281c5.348,5.348,8.294,12.456,8.294,20.012c0,15.608-12.699,28.306-28.306,28.306h-1.616
	V51.637c0-4.052-3.285-7.337-7.337-7.337h-57.233c-4.052,0-7.337,3.285-7.337,7.337v19.636H218.429z M234.721,58.974h42.559v41.751
	c-6.997-0.721-14.097-1.093-21.282-1.093c-7.183,0-14.281,0.372-21.278,1.093V58.974H234.721z M255.999,497.326
	c-105.599,0-191.51-85.911-191.51-191.51s85.911-191.511,191.51-191.511s191.51,85.911,191.51,191.511
	S361.597,497.326,255.999,497.326z"/>
<path d="M375.298,197.411c-2.726-2.998-7.364-3.219-10.365-0.493c-2.997,2.726-3.219,7.366-0.493,10.364
	c22.907,25.194,36.208,57.339,37.892,91.197h-13.782c-4.052,0-7.337,3.285-7.337,7.337s3.285,7.337,7.337,7.337h13.786
	c-3.715,74.965-64.035,135.285-139,139v-13.786c0-4.052-3.285-7.337-7.337-7.337s-7.337,3.285-7.337,7.337v13.786
	c-74.965-3.715-135.285-64.035-139-139h13.784c4.052,0,7.337-3.285,7.337-7.337s-3.285-7.337-7.337-7.337h-13.783
	c3.715-74.965,64.035-135.285,139-139v13.786c0,4.052,3.285,7.337,7.337,7.337c4.052,0,7.337-3.285,7.337-7.337v-13.771
	c29.637,1.444,57.624,11.615,81.341,29.673c3.221,2.455,7.827,1.831,10.282-1.392c2.455-3.224,1.831-7.828-1.393-10.282
	c-28.242-21.504-61.978-32.871-97.567-32.871c-88.883,0-161.195,72.312-161.195,161.195s72.312,161.195,161.195,161.195
	S417.194,394.7,417.194,305.817C417.193,265.625,402.314,227.126,375.298,197.411z"/>
<path d="M237.467,283.909c-3.942-0.926-7.893,1.516-8.822,5.46c-3.608,15.327-4.025,20.217-4.025,22.562
	c0,17.303,14.078,31.38,31.381,31.38s31.38-14.077,31.38-31.38c0-13.635-20.271-83.883-24.336-97.826
	c-0.914-3.136-3.758-5.284-7.057-5.284c-3.268,0.006-6.137,2.171-7.038,5.311c-0.077,0.269-7.786,27.108-13.648,48.527
	c-1.069,3.908,1.233,7.943,5.14,9.013c3.908,1.07,7.944-1.231,9.013-5.14c2.093-7.644,4.421-15.986,6.552-23.555
	c8.134,29.192,16.699,62.125,16.699,68.956c0,9.212-7.495,16.706-16.706,16.706c-9.212,0-16.707-7.494-16.707-16.706
	c0-1.13,0.353-5.262,3.636-19.198C243.856,288.789,241.411,284.838,237.467,283.909z"/>
<g>
</g>
<g>
</g>
<g>
</g>
<g>
</g>
<g>
</g>
<g>
</g>
<g>
</g>
<g>
</g>
<g>
</g>
<g>
</g>
<g>
</g>
<g>
</g>
<g>
</g>
<g>
</g>
<g>
</g>
</svg>
