<?xml version="1.0" encoding="iso-8859-1"?>
<!-- Generator: Adobe Illustrator 19.0.0, SVG Export Plug-In . SVG Version: 6.00 Build 0)  -->
<svg version="1.1" id="Layer_1" xmlns="http://www.w3.org/2000/svg" xmlns:xlink="http://www.w3.org/1999/xlink" x="0px" y="0px"
	 viewBox="0 0 512 512" style="enable-background:new 0 0 512 512;" xml:space="preserve">
<rect x="14.283" y="242.035" style="fill:#666666;" width="483.115" height="27.094"/>
<g>
	<rect x="448.483" y="197.494" style="fill:#B3B3B3;" width="56.221" height="116.178"/>
	<rect x="6.985" y="197.494" style="fill:#B3B3B3;" width="51.826" height="116.178"/>
</g>
<g>
	<polygon style="fill:#999999;" points="467.345,313.671 467.345,330.295 416.255,330.295 416.255,180.87 467.345,180.87 
		467.345,197.494 	"/>
	<polygon style="fill:#999999;" points="95.431,180.87 95.431,330.295 44.341,330.295 44.341,313.671 44.341,197.494 44.341,180.87 
			"/>
</g>
<g>
	<polygon style="fill:#808080;" points="429.989,180.87 429.989,330.295 392.633,330.295 392.633,269.13 392.633,242.035 
		392.633,180.87 	"/>
	<polygon style="fill:#808080;" points="119.053,269.13 119.053,330.295 81.697,330.295 81.697,180.87 119.053,180.87 
		119.053,242.035 	"/>
</g>
<g>
	<rect x="448.483" y="219.71" style="fill:#CCCCCC;" width="56.221" height="71.757"/>
	<rect x="6.985" y="219.71" style="fill:#CCCCCC;" width="51.826" height="71.757"/>
</g>
<g>
	<polygon style="fill:#B3B3B3;" points="467.345,291.461 467.345,301.728 416.255,301.728 416.255,209.437 467.345,209.437 
		467.345,219.704 	"/>
	<polygon style="fill:#B3B3B3;" points="95.431,209.437 95.431,301.728 44.341,301.728 44.341,291.461 44.341,219.704 
		44.341,209.437 	"/>
</g>
<g>
	<polygon style="fill:#999999;" points="429.989,209.437 429.989,301.728 392.633,301.728 392.633,263.95 392.633,247.215 
		392.633,209.437 	"/>
	<polygon style="fill:#999999;" points="119.053,263.95 119.053,301.728 81.697,301.728 81.697,209.437 119.053,209.437 
		119.053,247.215 	"/>
</g>
<g>
	<rect x="448.483" y="228.258" style="fill:#E6E6E6;" width="56.221" height="30.753"/>
	<rect x="6.985" y="228.258" style="fill:#E6E6E6;" width="51.826" height="30.753"/>
</g>
<g>
	<polygon style="fill:#CCCCCC;" points="467.345,259.006 467.345,263.406 416.255,263.406 416.255,223.853 467.345,223.853 
		467.345,228.253 	"/>
	<polygon style="fill:#CCCCCC;" points="95.431,223.853 95.431,263.406 44.341,263.406 44.341,259.006 44.341,228.253 
		44.341,223.853 	"/>
</g>
<g>
	<polygon style="fill:#B3B3B3;" points="429.989,223.853 429.989,263.406 392.633,263.406 392.633,247.215 392.633,240.043 
		392.633,223.853 	"/>
	<polygon style="fill:#B3B3B3;" points="119.053,247.215 119.053,263.406 81.697,263.406 81.697,223.853 119.053,223.853 
		119.053,240.043 	"/>
</g>
<path d="M504.858,190.773h-30.215v-9.485c0-3.944-3.197-7.142-7.142-7.142H392.79c-3.944,0-7.142,3.197-7.142,7.142v54.02H126.352
	v-54.02c0-3.944-3.197-7.142-7.142-7.142H44.498c-3.944,0-7.142,3.197-7.142,7.142v9.485H7.142c-3.944,0-7.142,3.197-7.142,7.142
	v116.171c0,3.944,3.197,7.142,7.142,7.142h30.215v9.485c0,3.944,3.197,7.142,7.142,7.142h74.712c3.944,0,7.142-3.197,7.142-7.142
	v-54.02H344.45c3.944,0,7.142-3.197,7.142-7.142c0-3.944-3.197-7.142-7.142-7.142H126.352V249.59h259.296v12.819h-15.379
	c-3.944,0-7.142,3.197-7.142,7.142c0,3.944,3.197,7.142,7.142,7.142h15.379v54.02c0,3.944,3.197,7.142,7.142,7.142h74.712
	c3.944,0,7.142-3.197,7.142-7.142v-9.485h30.215c3.944,0,7.142-3.197,7.142-7.142V197.914
	C512,193.97,508.803,190.773,504.858,190.773z M112.069,323.571H88.996v-69.473c0-3.944-3.197-7.142-7.142-7.142
	s-7.142,3.197-7.142,7.142v69.473H51.639v-71.67c0-3.944-3.197-7.142-7.142-7.142s-7.142,3.197-7.142,7.142v55.043H14.283V205.056
	h23.073v18.828c0,3.944,3.197,7.142,7.142,7.142s7.142-3.197,7.142-7.142v-35.454h23.073v37.102c0,3.944,3.197,7.142,7.142,7.142
	s7.142-3.197,7.142-7.142v-37.102h23.073V323.571z M497.717,306.944h-23.073v-55.043c0-3.944-3.197-7.142-7.142-7.142
	c-3.944,0-7.142,3.197-7.142,7.142v71.67h-23.073v-69.473c0-3.944-3.197-7.142-7.142-7.142c-3.944,0-7.142,3.197-7.142,7.142v69.473
	h-23.073V188.429h23.073v37.102c0,3.944,3.197,7.142,7.142,7.142c3.944,0,7.142-3.197,7.142-7.142v-37.102h23.073v35.454
	c0,3.944,3.197,7.142,7.142,7.142c3.944,0,7.142-3.197,7.142-7.142v-18.828h23.073V306.944z"/>
<g>
</g>
<g>
</g>
<g>
</g>
<g>
</g>
<g>
</g>
<g>
</g>
<g>
</g>
<g>
</g>
<g>
</g>
<g>
</g>
<g>
</g>
<g>
</g>
<g>
</g>
<g>
</g>
<g>
</g>
</svg>
