<?xml version="1.0" encoding="iso-8859-1"?>
<!-- Generator: Adobe Illustrator 19.0.0, SVG Export Plug-In . SVG Version: 6.00 Build 0)  -->
<svg version="1.1" id="Layer_1" xmlns="http://www.w3.org/2000/svg" xmlns:xlink="http://www.w3.org/1999/xlink" x="0px" y="0px"
	 viewBox="0 0 511.999 511.999" style="enable-background:new 0 0 511.999 511.999;" xml:space="preserve">
<path style="fill:#FD6568;" d="M375.275,229.439l10.012,16.958l-10.012,14.141c-8.379-2.899-17.601-2.046-25.312,2.33
	l-30.257,17.185c-3.938,2.232-8.324,3.358-12.744,3.358c-3.205,0-6.432-0.591-9.484-1.805c-13.367-5.283-27.5-7.92-41.633-7.92
	s-28.266,2.636-41.633,7.92c-7.263,2.877-15.435,2.297-22.228-1.553l-30.257-17.185c-7.712-4.376-16.933-5.229-25.312-2.33
	l-10.012-17.057l10.012-14.042c8.379-2.899,17.601-2.046,25.312,2.33l30.257,17.185c6.793,3.85,14.964,4.43,22.228,1.553
	c13.367-5.283,27.5-7.92,41.633-7.92s28.266,2.636,41.633,7.92c3.052,1.214,6.279,1.805,9.484,1.805
	c4.419,0,8.806-1.127,12.744-3.358l30.257-17.185C357.674,227.394,366.896,226.541,375.275,229.439z"/>
<g>
	<path style="fill:#7D7878;" d="M434.443,243.244v31.099h-12.875c-4.211,0-8.39-0.7-12.361-2.078l-33.932-11.726v-31.099
		l33.932,11.726c3.971,1.378,8.149,2.078,12.361,2.078L434.443,243.244L434.443,243.244z"/>
	<path style="fill:#7D7878;" d="M136.415,229.439v31.099l-33.932,11.726c-3.971,1.378-8.149,2.078-12.361,2.078H77.247v-31.099
		h12.875c4.211,0,8.39-0.7,12.361-2.078L136.415,229.439z"/>
	<rect x="8.595" y="238.356" style="fill:#7D7878;" width="41.053" height="34.457"/>
	<rect x="467.514" y="238.356" style="fill:#7D7878;" width="35.584" height="34.457"/>
</g>
<path style="fill:#E0555C;" d="M381.225,252.126l-5.951,8.412c-8.379-2.899-17.601-2.046-25.312,2.33l-30.257,17.185
	c-3.938,2.232-8.324,3.358-12.744,3.358c-3.205,0-6.432-0.591-9.484-1.805c-13.367-5.283-27.5-7.92-41.633-7.92
	s-28.266,2.636-41.633,7.92c-7.263,2.877-15.435,2.297-22.228-1.553l-30.257-17.185c-7.712-4.376-16.933-5.229-25.312-2.33
	l-5.108-8.707l5.108-1.761c8.379-2.899,17.601-2.046,25.312,2.33l30.257,17.185c6.793,3.85,14.964,4.43,22.228,1.553
	c13.367-5.283,27.5-7.92,41.633-7.92s28.266,2.636,41.633,7.92c3.052,1.214,6.279,1.805,9.484,1.805
	c4.419,0,8.806-1.127,12.744-3.358l30.257-17.185c7.712-4.376,16.933-5.229,25.312-2.33L381.225,252.126z"/>
<g>
	<path style="fill:#666666;" d="M434.443,263.875v10.468h-12.875c-4.211,0-8.39-0.7-12.361-2.078l-33.932-11.726V250.07l5.951,2.057
		l27.981,9.67c3.971,1.378,8.149,2.078,12.361,2.078H434.443z"/>
	<path style="fill:#666666;" d="M131.305,251.831l5.108-1.761v10.468l-33.932,11.726c-3.971,1.378-8.149,2.078-12.361,2.078H77.246
		v-10.468h12.875c4.211,0,8.39-0.7,12.361-2.078L131.305,251.831z"/>
	<rect x="8.594" y="262.344" style="fill:#666666;" width="41.053" height="10.468"/>
	<rect x="467.514" y="262.344" style="fill:#666666;" width="35.584" height="10.468"/>
</g>
<g>
	<polygon style="fill:#B3B3B3;" points="78.887,243.244 78.887,274.343 78.887,343.367 31.304,343.367 31.304,272.812 
		31.304,238.355 31.304,167.81 78.887,167.81 	"/>
	<polygon style="fill:#B3B3B3;" points="480.375,272.812 480.375,343.367 432.802,343.367 432.802,274.343 432.802,243.244 
		432.802,167.81 480.375,167.81 480.375,238.355 	"/>
</g>
<g>
	<polygon style="fill:#CCCCCC;" points="78.887,247.243 78.887,268.267 78.887,314.926 31.304,314.926 31.304,267.231 
		31.304,243.939 31.304,196.251 78.887,196.251 	"/>
	<polygon style="fill:#CCCCCC;" points="480.375,267.231 480.375,314.926 432.802,314.926 432.802,268.267 432.802,247.243 
		432.802,196.251 480.375,196.251 480.375,243.939 	"/>
</g>
<g>
	<polygon style="fill:#E6E6E6;" points="78.887,238.872 78.887,244.242 78.887,256.163 31.304,256.163 31.304,243.978 
		31.304,238.027 31.304,225.844 78.887,225.844 	"/>
	<polygon style="fill:#E6E6E6;" points="480.375,243.978 480.375,256.163 432.802,256.163 432.802,244.242 432.802,238.872 
		432.802,225.844 480.375,225.844 480.375,238.027 	"/>
</g>
<path d="M504.89,231.661h-15.6v-63.442c0-3.927-3.183-7.11-7.11-7.11h-47.582c-3.927,0-7.11,3.183-7.11,7.11v68.334h-5.765
	c-3.434,0-6.807-0.568-10.039-1.688l-33.931-11.725c-10.304-3.565-21.657-2.519-31.148,2.867l-30.251,17.182
	c-4.875,2.762-10.954,3.177-16.109,1.127c-14.132-5.585-29.017-8.417-44.246-8.417c-15.228,0-30.115,2.832-44.252,8.42
	c-5.277,2.09-11.148,1.68-16.098-1.125l-30.259-17.186c-9.492-5.385-20.844-6.43-31.144-2.867l-33.941,11.73
	c-3.223,1.118-6.596,1.686-10.03,1.686H84.51v-15.264c0-3.927-3.183-7.11-7.11-7.11c-3.927,0-7.11,3.183-7.11,7.11V336.67H36.932
	V175.329h33.36v20.801c0,3.927,3.183,7.11,7.11,7.11s7.11-3.183,7.11-7.11v-27.911c0-3.927-3.183-7.11-7.11-7.11H29.821
	c-3.927,0-7.11,3.183-7.11,7.11v63.442H7.11c-3.927,0-7.11,3.183-7.11,7.11v34.456c0,3.927,3.183,7.11,7.11,7.11h15.601v63.442
	c0,3.927,3.183,7.11,7.11,7.11h47.581c3.927,0,7.11-3.183,7.11-7.11V281.87h5.766c5.025,0,9.967-0.831,14.683-2.469l33.934-11.728
	c6.444-2.228,13.542-1.574,19.477,1.793l30.262,17.188c5.04,2.857,10.62,4.303,16.229,4.303c4.09,0,8.196-0.77,12.118-2.323
	c12.46-4.925,25.588-7.422,39.02-7.422c13.432,0,26.559,2.497,39.003,7.415c3.849,1.531,7.924,2.308,12.113,2.308
	c5.687,0,11.306-1.481,16.255-4.286l7.818-4.441c3.415-1.939,4.611-6.28,2.671-9.694c-1.938-3.415-6.279-4.61-9.694-2.671
	l-7.814,4.438c-4.877,2.763-10.955,3.178-16.109,1.127c-14.131-5.585-29.017-8.417-44.246-8.417c-15.229,0-30.116,2.832-44.252,8.42
	c-5.28,2.091-11.149,1.679-16.098-1.126l-30.259-17.186c-6.657-3.777-14.228-5.409-21.711-4.824v-16.813
	c5.036-0.633,10.196,0.357,14.691,2.906l30.262,17.188c8.719,4.942,19.052,5.662,28.347,1.98c12.46-4.925,25.589-7.422,39.02-7.422
	c13.431,0,26.558,2.497,39.005,7.417c3.85,1.531,7.925,2.308,12.111,2.308c5.687,0,11.306-1.481,16.255-4.286l30.255-17.183
	c4.495-2.551,9.656-3.542,14.693-2.908v16.813c-7.483-0.586-15.055,1.047-21.711,4.824c-3.415,1.937-4.613,6.278-2.675,9.693
	c1.937,3.416,6.28,4.614,9.693,2.676c5.937-3.368,13.037-4.023,19.481-1.794l33.923,11.723c4.724,1.641,9.668,2.472,14.693,2.472
	h5.765v61.908c0,3.927,3.183,7.11,7.11,7.11h47.582c3.927,0,7.11-3.183,7.11-7.11v-63.442h15.6c3.927,0,7.11-3.183,7.11-7.11
	v-34.455C512,234.844,508.816,231.661,504.89,231.661z M14.22,266.116v-20.235h8.491v20.236H14.22V266.116z M100.306,265.964
	c-3.221,1.118-6.595,1.686-10.029,1.686h-5.766v-16.878h5.766c5.024,0,9.966-0.831,14.683-2.468l24.5-8.467v16.052L100.306,265.964z
	 M421.723,267.65c-3.434,0-6.807-0.568-10.039-1.689l-29.145-10.071v-16.052l24.492,8.463c4.724,1.64,9.668,2.471,14.692,2.471
	h5.765v16.877H421.723z M475.069,336.668h-33.361V175.329h33.361V336.668z M497.78,266.116h-8.49v-20.235h8.49V266.116z"/>
<g>
</g>
<g>
</g>
<g>
</g>
<g>
</g>
<g>
</g>
<g>
</g>
<g>
</g>
<g>
</g>
<g>
</g>
<g>
</g>
<g>
</g>
<g>
</g>
<g>
</g>
<g>
</g>
<g>
</g>
</svg>
