<?xml version="1.0" encoding="iso-8859-1"?>
<!-- Generator: Adobe Illustrator 19.0.0, SVG Export Plug-In . SVG Version: 6.00 Build 0)  -->
<svg version="1.1" id="Layer_1" xmlns="http://www.w3.org/2000/svg" xmlns:xlink="http://www.w3.org/1999/xlink" x="0px" y="0px"
	 viewBox="0 0 512.001 512.001" style="enable-background:new 0 0 512.001 512.001;" xml:space="preserve">
<path style="fill:#E0555C;" d="M462.584,18.169c23.761,0,42.49,20.22,40.674,43.917l-30.026,393.071
	c-1.621,21.271-19.351,37.691-40.687,37.691H79.072c-21.323,0-39.053-16.42-40.674-37.691L8.359,62.085
	C6.544,38.389,25.285,18.169,49.047,18.169C49.047,18.169,462.584,18.169,462.584,18.169z"/>
<path style="fill:#FD6568;" d="M79.072,472.095c-10.414,0-19.191-8.134-19.982-18.516L29.052,60.504
	c-0.432-5.633,1.444-11.014,5.28-15.157c3.839-4.144,9.065-6.427,14.716-6.427h413.538c5.646,0,10.868,2.28,14.703,6.42
	c3.837,4.141,5.712,9.525,5.28,15.158l-30.026,393.076c-0.791,10.386-9.574,18.52-19.996,18.52L79.072,472.095L79.072,472.095z"/>
<path style="fill:#C0E8F6;" d="M356.1,98.22L255.815,198.505l-13.217-13.217L155.518,98.22C210.9,42.838,300.705,42.838,356.1,98.22
	z"/>
<g>
	<path style="fill:#FEE572;" d="M214.402,237v144.188c0,28.469-23.074,51.543-51.543,51.543H142.69
		c-28.469,0-51.543-23.074-51.543-51.543V237c0-20.35,16.485-36.835,36.835-36.835h49.598
		C197.917,200.165,214.402,216.65,214.402,237z"/>
	<path style="fill:#FEE572;" d="M420.483,237v144.188c0,28.469-23.087,51.543-51.556,51.543h-20.155
		c-28.469,0-51.556-23.074-51.556-51.543V237c0-20.35,16.485-36.835,36.835-36.835h49.598
		C403.985,200.165,420.483,216.65,420.483,237z"/>
</g>
<path d="M498.884,26.003c-9.288-10.023-22.451-15.773-36.115-15.773H49.232c-13.665,0-26.829,5.75-36.115,15.773
	S-0.899,49.589,0.142,63.214l23.6,308.873c0.354,4.643,4.397,8.131,9.048,7.764c4.643-0.354,8.118-4.406,7.764-9.048L16.953,61.93
	c-0.694-9.091,2.336-17.779,8.532-24.468s14.63-10.371,23.747-10.371h413.535c9.117,0,17.551,3.684,23.747,10.371
	s9.226,15.377,8.532,24.468l-30.034,393.075c-1.281,16.77-15.46,29.906-32.279,29.906H79.265c-16.818,0-30.997-13.136-32.279-29.906
	l-3.947-51.668c-0.354-4.642-4.393-8.127-9.048-7.764c-4.643,0.354-8.118,4.405-7.764,9.048l3.947,51.668
	c1.948,25.504,23.512,45.482,49.09,45.482h353.469c25.578,0,47.142-19.978,49.09-45.482l30.034-393.075
	C512.9,49.589,508.17,36.026,498.884,26.003z"/>
<path d="M149.749,92.747c-3.293,3.293-3.293,8.63,0,11.922l100.291,100.29c1.646,1.646,3.804,2.469,5.961,2.469
	s4.315-0.824,5.961-2.469l50.443-50.443c3.293-3.293,3.293-8.63,0-11.922c-3.292-3.292-8.63-3.292-11.922,0l-36.052,36.052v-69.234
	c0-4.656-3.774-8.431-8.431-8.431s-8.431,3.774-8.431,8.431v69.233l-79.752-79.75c50.229-44.302,126.117-44.301,176.362,0.001
	l-20.351,20.353c-3.293,3.293-3.293,8.63,0,11.922c3.292,3.292,8.63,3.292,11.922,0l26.5-26.5c1.581-1.581,2.469-3.726,2.469-5.962
	s-0.888-4.38-2.471-5.962C303.654,34.167,208.325,34.167,149.749,92.747z"/>
<path d="M82.901,237.488v144.187c0,33.075,26.909,59.984,59.984,59.984h20.158c33.075,0,59.984-26.909,59.984-59.984
	c0-4.656-3.774-8.431-8.431-8.431s-8.431,3.774-8.431,8.431c0,23.778-19.345,43.123-43.123,43.123h-20.158
	c-23.778,0-43.123-19.345-43.123-43.123V237.488c0-15.661,12.742-28.403,28.403-28.403h49.598c15.661,0,28.403,12.742,28.403,28.403
	v112.246c0,4.656,3.774,8.431,8.431,8.431s8.431-3.774,8.431-8.431V237.488c0-24.958-20.306-45.264-45.264-45.264h-49.598
	C103.207,192.223,82.901,212.529,82.901,237.488z"/>
<path d="M177.256,243.407h-48.585c-4.656,0-8.431,3.774-8.431,8.431c0,4.656,3.774,8.431,8.431,8.431h48.585
	c4.656,0,8.431-3.774,8.431-8.431C185.686,247.181,181.912,243.407,177.256,243.407z"/>
<path d="M177.256,333.34h-48.585c-4.656,0-8.431,3.774-8.431,8.431s3.774,8.431,8.431,8.431h48.585c4.656,0,8.431-3.774,8.431-8.431
	S181.912,333.34,177.256,333.34z"/>
<path d="M177.256,288.373h-48.585c-4.656,0-8.431,3.774-8.431,8.431s3.774,8.431,8.431,8.431h48.585
	c4.656,0,8.431-3.774,8.431-8.431S181.912,288.373,177.256,288.373z"/>
<path d="M412.238,237.488c0,4.656,3.774,8.431,8.431,8.431s8.431-3.774,8.431-8.431c0-24.958-20.306-45.264-45.264-45.264h-49.598
	c-24.958,0-45.264,20.306-45.264,45.264v144.187c0,33.075,26.909,59.984,59.984,59.984h20.158c33.075,0,59.984-26.909,59.984-59.984
	V273.21c0-4.656-3.774-8.431-8.431-8.431s-8.431,3.774-8.431,8.431v108.465c0,23.778-19.345,43.123-43.123,43.123h-20.158
	c-23.778,0-43.123-19.345-43.123-43.123V237.488c0-15.661,12.742-28.403,28.403-28.403h49.598
	C399.496,209.084,412.238,221.826,412.238,237.488z"/>
<path d="M383.329,243.407h-48.585c-4.656,0-8.431,3.774-8.431,8.431c0,4.656,3.774,8.431,8.431,8.431h48.585
	c4.656,0,8.431-3.774,8.431-8.431C391.76,247.181,387.986,243.407,383.329,243.407z"/>
<path d="M383.329,333.34h-48.585c-4.656,0-8.431,3.774-8.431,8.431s3.774,8.431,8.431,8.431h48.585c4.656,0,8.431-3.774,8.431-8.431
	S387.986,333.34,383.329,333.34z"/>
<path d="M383.329,288.373h-48.585c-4.656,0-8.431,3.774-8.431,8.431s3.774,8.431,8.431,8.431h48.585
	c4.656,0,8.431-3.774,8.431-8.431S387.986,288.373,383.329,288.373z"/>
<g>
</g>
<g>
</g>
<g>
</g>
<g>
</g>
<g>
</g>
<g>
</g>
<g>
</g>
<g>
</g>
<g>
</g>
<g>
</g>
<g>
</g>
<g>
</g>
<g>
</g>
<g>
</g>
<g>
</g>
</svg>
