<?xml version="1.0" encoding="iso-8859-1"?>
<!-- Generator: Adobe Illustrator 19.0.0, SVG Export Plug-In . SVG Version: 6.00 Build 0)  -->
<svg version="1.1" id="Layer_1" xmlns="http://www.w3.org/2000/svg" xmlns:xlink="http://www.w3.org/1999/xlink" x="0px" y="0px"
	 viewBox="0 0 512.001 512.001" style="enable-background:new 0 0 512.001 512.001;" xml:space="preserve">
<g>
	<path style="fill:#FD6568;" d="M504.459,29.517L379.433,288.208l-9.854,20.401c-9.377-21.695-52.347-25.827-71.669-38.996
		l18.221-42.118l85.656-197.977H504.459z"/>
	<path style="fill:#FD6568;" d="M242.544,234.567c-20.741,2.214-52.54,52.823-68.933,63.994l-21.059-39.144L28.867,29.517h114.581
		l89.958,186.148L242.544,234.567z"/>
</g>
<path style="fill:#E0555C;" d="M334.477,238.052c-5.813-3.962-11.943-7.493-18.346-10.558l-18.221,42.118
	c19.322,13.169,62.291,17.301,71.669,38.996l9.854-20.401C368.739,268.057,353.244,250.846,334.477,238.052z M177.199,238.052
	c-9.025,6.142-17.301,13.328-24.646,21.366l21.059,39.144c16.393-11.171,48.192-61.781,68.933-63.994l-9.139-18.902
	C212.812,218.98,193.741,226.779,177.199,238.052z"/>
<g>
	<path style="fill:#C0E8F6;" d="M186.201,255.274c-19.322,13.158-34.727,31.64-44.105,53.334l-9.854-20.401L7.217,29.517h69.886
		L177.71,237.711L186.201,255.274z"/>
	<path style="fill:#C0E8F6;" d="M434.572,29.517L333.966,237.711l-8.492,17.562c-16.393-11.16-35.602-18.493-56.343-20.707
		l9.139-18.902l89.958-186.148H434.572z"/>
</g>
<path style="fill:#9ED6E5;" d="M278.27,215.665l-9.139,18.902c20.741,2.214,39.95,9.548,56.343,20.707l8.492-17.562
	C317.55,226.632,298.648,218.946,278.27,215.665z M177.199,238.052c-18.766,12.783-34.262,30.005-44.956,50.156l9.854,20.401
	c9.377-21.695,24.783-40.177,44.105-53.334l-8.492-17.562C177.539,237.825,177.369,237.938,177.199,238.052z"/>
<path style="fill:#FEE572;" d="M269.132,235.134c20.741,2.214,39.95,9.548,56.343,20.707c19.322,13.169,34.727,31.64,44.105,53.334
	c6.516,15.065,10.126,31.674,10.126,49.134c0,68.41-55.457,123.879-123.868,123.879c-68.422,0-123.879-55.469-123.879-123.879
	c0-17.46,3.61-34.069,10.138-49.134c9.377-21.695,24.783-40.177,44.105-53.334c16.393-11.171,35.602-18.493,56.343-20.707
	c4.371-0.465,8.798-0.704,13.294-0.704C260.333,234.431,264.761,234.669,269.132,235.134z"/>
<path d="M313.702,297.441c-3.055,2.696-3.346,7.36-0.648,10.415c12.264,13.893,19.018,31.763,19.018,50.318
	c0,41.945-34.126,76.071-76.071,76.071c-41.945,0-76.071-34.126-76.071-76.071s34.126-76.071,76.071-76.071
	c9.276,0,18.333,1.648,26.921,4.9c3.813,1.442,8.072-0.477,9.515-4.289c1.443-3.812-0.478-8.07-4.288-9.513
	c-10.264-3.885-21.079-5.856-32.147-5.856c-50.083,0-90.829,40.745-90.829,90.829s40.747,90.829,90.829,90.829
	s90.829-40.745,90.829-90.829c0-22.153-8.065-43.492-22.712-60.083C321.422,295.034,316.758,294.744,313.702,297.441z"/>
<path d="M510.872,26.029c-1.349-2.151-3.711-3.457-6.251-3.457H368.39c-2.83,0-5.413,1.619-6.645,4.169l-96.888,200.483
	c-2.929-0.196-5.881-0.305-8.857-0.305c-2.977,0-5.928,0.109-8.857,0.305L150.255,26.741c-1.232-2.55-3.813-4.169-6.645-4.169H7.379
	c-2.54,0-4.901,1.306-6.251,3.457c-1.35,2.152-1.499,4.846-0.394,7.133l133.453,276.139c-6.085,15.114-9.443,31.607-9.443,48.872
	c0,72.374,58.88,131.255,131.255,131.255s131.256-58.88,131.256-131.255c0-17.265-3.358-33.759-9.443-48.873L511.266,33.163
	C512.37,30.876,512.223,28.182,510.872,26.029z M231.699,229.183c-15.165,2.851-29.416,8.317-42.268,15.913L89.027,37.331h49.953
	L231.699,229.183z M19.142,37.331h53.494l104.412,216.058c-13.975,10.556-25.779,23.837-34.618,39.048L19.142,37.331z M256,474.67
	c-64.236,0-116.496-52.26-116.496-116.496S191.764,241.677,256,241.677s116.496,52.26,116.496,116.496S320.236,474.67,256,474.67z
	 M369.571,292.436c-8.838-15.21-20.643-28.492-34.617-39.047l72.583-150.194c1.773-3.669,0.236-8.082-3.433-9.855
	c-3.67-1.774-8.082-0.236-9.855,3.433L322.57,245.095c-12.852-7.595-27.102-13.061-42.267-15.912L373.02,37.331h49.952
	L406.84,70.713c-1.773,3.669-0.236,8.082,3.433,9.855c1.034,0.5,2.129,0.737,3.205,0.737c2.743,0,5.375-1.536,6.649-4.17
	l19.235-39.804h53.495L369.571,292.436z"/>
<path d="M248.621,316.169v84.009c0,4.076,3.304,7.379,7.379,7.379c4.076,0,7.379-3.304,7.379-7.379v-84.009
	c0-4.076-3.304-7.379-7.379-7.379C251.925,308.79,248.621,312.093,248.621,316.169z"/>
<g>
</g>
<g>
</g>
<g>
</g>
<g>
</g>
<g>
</g>
<g>
</g>
<g>
</g>
<g>
</g>
<g>
</g>
<g>
</g>
<g>
</g>
<g>
</g>
<g>
</g>
<g>
</g>
<g>
</g>
</svg>
