<?xml version="1.0" encoding="iso-8859-1"?>
<!-- Generator: Adobe Illustrator 19.0.0, SVG Export Plug-In . SVG Version: 6.00 Build 0)  -->
<svg version="1.1" id="Layer_1" xmlns="http://www.w3.org/2000/svg" xmlns:xlink="http://www.w3.org/1999/xlink" x="0px" y="0px"
	 viewBox="0 0 512 512" style="enable-background:new 0 0 512 512;" xml:space="preserve">
<g>
	<path style="fill:#C79175;" d="M500.791,90.496c5.154,5.154,5.154,13.515,0,18.669l-43.748,43.759l-98.546-98.546l43.759-43.748
		c5.154-5.154,13.504-5.154,18.669,0L500.791,90.496z"/>
	<path style="fill:#C79175;" d="M230.149,379.818l-6.879,6.89L109.428,500.539c-5.154,5.154-13.515,5.154-18.669,0l-79.876-79.876
		c-5.154-5.154-5.154-13.516,0-18.67l113.842-113.831l6.879-6.89L230.149,379.818z"/>
	<polygon style="fill:#C79175;" points="278.637,331.331 276.679,333.288 266.515,343.464 233.434,376.544 230.149,379.818 
		131.604,281.272 134.888,277.999 167.969,244.917 178.134,234.742 180.091,232.785 	"/>
	<polygon style="fill:#C79175;" points="446.076,170.715 387.347,222.621 377.968,232 278.637,331.331 180.091,232.785 
		279.422,133.454 288.801,124.075 342.133,60.092 382.669,78.584 382.735,78.618 384.272,80.188 427.23,124.075 	"/>
</g>
<path style="fill:#BA8067;" d="M446.076,170.715l-58.729,51.905L377.968,232c-1.526-5.475-0.144-11.591,4.17-15.916l47.127-47.116
	l-23.459-23.459l-39.883-39.883l-23.47-23.47l-47.127,47.127c-3.185,3.185-7.355,4.778-11.536,4.778
	c-1.471,0-2.942-0.199-4.369-0.608l9.379-9.379l53.332-63.983l40.535,18.493l1.604,1.604l42.958,43.887L446.076,170.715z"/>
<path style="fill:#FEE572;" d="M416.678,134.637l-39.883-39.883l-23.47-23.47l-47.127,47.127c-3.185,3.185-7.355,4.778-11.536,4.778
	c-1.825,0-3.661-0.31-5.397-0.918c-2.245-0.785-4.347-2.068-6.138-3.86c-6.371-6.371-6.371-16.701,0-23.071l56.871-56.871
	c6.714-6.713,17.586-6.713,24.299,0l5.054,5.054l98.546,98.546l5.055,5.054c6.714,6.702,6.714,17.586,0,24.299l-56.871,56.86
	c-3.185,3.185-7.366,4.778-11.536,4.778s-8.35-1.593-11.536-4.778c-1.792-1.792-3.075-3.893-3.86-6.138
	c-2.002-5.729-0.719-12.343,3.86-16.933l47.127-47.116L416.678,134.637z"/>
<path d="M506.037,85.834L426.164,5.963c-7.95-7.95-20.884-7.95-28.835,0l-27.814,27.815c-4.6-4.586-10.707-7.112-17.205-7.112
	c-6.51,0-12.63,2.535-17.232,7.138L278.21,90.672c-4.441,4.44-6.885,10.341-6.885,16.619s2.444,12.181,6.884,16.619
	c0.197,0.197,0.413,0.368,0.615,0.559l-98.569,98.569l-1.955-1.955c-2.807-2.807-7.359-2.807-10.166,0
	c-2.808,2.808-2.808,7.359,0,10.166l1.955,1.955l-38.321,38.321l-1.955-1.955c-2.807-2.807-7.359-2.807-10.166,0
	c-2.808,2.808-2.808,7.359,0,10.166l1.955,1.955L5.963,397.33c-7.95,7.95-7.95,20.886,0,28.836l79.872,79.872
	c3.975,3.975,9.197,5.962,14.418,5.962s10.443-1.987,14.418-5.962l37.027-37.027c2.808-2.808,2.808-7.359,0-10.166
	s-7.359-2.808-10.166,0l-37.028,37.026c-2.343,2.344-6.157,2.345-8.502,0l-79.872-79.872c-2.344-2.344-2.344-6.158,0-8.502
	l115.637-115.637l88.374,88.374l-51.237,51.237c-2.808,2.808-2.808,7.359,0,10.166c1.404,1.404,3.244,2.106,5.083,2.106
	s3.68-0.702,5.083-2.106l51.237-51.237l1.955,1.955c1.404,1.404,3.244,2.106,5.083,2.106s3.68-0.702,5.083-2.106
	c2.808-2.808,2.808-7.359,0-10.166l-1.955-1.955l38.321-38.321l1.954,1.955c1.405,1.404,3.245,2.106,5.084,2.106
	s3.68-0.702,5.084-2.106c2.807-2.808,2.807-7.359-0.001-10.166l-1.954-1.955l98.57-98.57c0.189,0.204,0.358,0.418,0.556,0.616
	c4.582,4.582,10.6,6.873,16.618,6.873c6.019,0,12.038-2.291,16.62-6.873l56.868-56.868c9.492-9.493,9.5-24.932,0.025-34.437
	l27.816-27.815C513.988,106.72,513.988,93.784,506.037,85.834z M230.307,370.066l-88.374-88.374l38.321-38.321l88.374,88.374
	L230.307,370.066z M278.795,321.578l-88.374-88.374l102.502-102.503c0.632,0.051,1.264,0.093,1.905,0.093
	c6.278,0,12.179-2.444,16.619-6.884l42.035-42.036l13.295,13.295l-37.93,37.931c-2.807,2.808-2.807,7.359,0.001,10.166
	c1.404,1.404,3.244,2.106,5.083,2.106s3.68-0.702,5.084-2.106l37.93-37.93l29.719,29.719l-37.93,37.931
	c-2.808,2.808-2.808,7.359,0,10.166c1.404,1.404,3.244,2.106,5.083,2.106s3.68-0.702,5.084-2.106l37.93-37.931l13.295,13.295
	l-42.037,42.036c-5.062,5.063-7.314,11.881-6.781,18.514L278.795,321.578z M495.871,104.503l-27.815,27.814l-59.061-59.062
	c-2.808-2.807-7.361-2.807-10.166,0c-2.808,2.808-2.808,7.359,0,10.166l69.2,69.201c3.897,3.896,3.897,10.236,0,14.133
	l-56.867,56.868c-3.558,3.557-9.347,3.558-12.905,0c-3.558-3.558-3.558-9.347-0.001-12.904l47.121-47.119
	c1.349-1.348,2.106-3.176,2.106-5.083c0-1.907-0.758-3.735-2.106-5.083l-18.379-18.379l0.392-0.392
	c2.808-2.808,2.808-7.359,0-10.166c-2.806-2.807-7.358-2.807-10.166,0l-0.392,0.392l-29.717-29.719l0.392-0.392
	c2.807-2.808,2.807-7.359-0.001-10.166c-2.806-2.807-7.358-2.807-10.166,0l-0.39,0.39L358.57,66.624
	c-1.349-1.348-3.178-2.106-5.084-2.106s-3.735,0.758-5.084,2.106l-47.118,47.119c-1.724,1.723-4.016,2.673-6.453,2.673
	c-2.438,0-4.728-0.949-6.452-2.673c-1.723-1.724-2.672-4.015-2.672-6.451c0-2.437,0.949-4.728,2.672-6.452l56.869-56.868
	c1.887-1.888,4.396-2.927,7.065-2.927c2.67,0,5.179,1.04,7.067,2.927l19.543,19.543c2.806,2.807,7.358,2.807,10.166,0
	c2.807-2.808,2.807-7.359,0-10.166l-9.403-9.403l27.813-27.814c2.346-2.344,6.156-2.344,8.503,0l79.873,79.872
	C498.215,98.346,498.215,102.159,495.871,104.503z"/>
<path d="M294.047,198.551c1.839,0,3.68-0.702,5.084-2.106c2.807-2.808,2.807-7.359-0.001-10.166l-13.295-13.295
	c-2.806-2.807-7.358-2.807-10.166,0c-2.807,2.808-2.807,7.359,0.001,10.166l13.295,13.295
	C290.367,197.849,292.208,198.551,294.047,198.551z"/>
<path d="M248.296,210.523c-2.808-2.807-7.359-2.807-10.166,0c-2.808,2.808-2.808,7.359,0,10.166l13.295,13.295
	c1.405,1.404,3.244,2.106,5.083,2.106s3.68-0.702,5.084-2.106c2.807-2.808,2.807-7.359-0.001-10.166L248.296,210.523z"/>
<path d="M115.735,332.918c-2.808,2.808-2.808,7.359,0,10.166l13.295,13.295c1.404,1.404,3.244,2.106,5.083,2.106
	c1.839,0,3.68-0.702,5.083-2.106c2.808-2.808,2.808-7.359,0-10.166l-13.295-13.295C123.094,330.111,118.542,330.111,115.735,332.918
	z"/>
<path d="M325.72,212.869c-2.806-2.807-7.358-2.807-10.166,0c-2.807,2.808-2.807,7.359,0.001,10.166l13.295,13.295
	c1.404,1.404,3.244,2.106,5.083,2.106s3.68-0.702,5.084-2.106c2.807-2.808,2.807-7.359-0.001-10.166L325.72,212.869z"/>
<path d="M288.182,250.408c-2.808-2.807-7.359-2.807-10.168,0c-2.807,2.808-2.807,7.359,0,10.166l13.295,13.295
	c1.405,1.404,3.245,2.106,5.084,2.106s3.68-0.702,5.083-2.106c2.808-2.808,2.808-7.359,0-10.166L288.182,250.408z"/>
<path d="M173.998,398.372c1.839,0,3.68-0.702,5.083-2.106c2.808-2.807,2.808-7.359,0-10.166l-13.295-13.295
	c-2.807-2.808-7.359-2.808-10.166,0c-2.808,2.807-2.808,7.359,0,10.166l13.295,13.295
	C170.318,397.669,172.158,398.372,173.998,398.372z"/>
<g>
</g>
<g>
</g>
<g>
</g>
<g>
</g>
<g>
</g>
<g>
</g>
<g>
</g>
<g>
</g>
<g>
</g>
<g>
</g>
<g>
</g>
<g>
</g>
<g>
</g>
<g>
</g>
<g>
</g>
</svg>
