<?xml version="1.0" encoding="iso-8859-1"?>
<!-- Generator: Adobe Illustrator 19.0.0, SVG Export Plug-In . SVG Version: 6.00 Build 0)  -->
<svg version="1.1" id="Layer_1" xmlns="http://www.w3.org/2000/svg" xmlns:xlink="http://www.w3.org/1999/xlink" x="0px" y="0px"
	 viewBox="0 0 512 512" style="enable-background:new 0 0 512 512;" xml:space="preserve">
<rect x="416.026" y="253.889" style="fill:#FEE572;" width="88.786" height="207.973"/>
<path style="fill:#E0AA68;" d="M332.873,151.514v140.833L42.189,253.891C141.879,232.712,332.873,208.056,332.873,151.514z"/>
<path style="fill:#FEC274;" d="M170.708,253.891c89.56-0.013,162.165-45.835,162.165-102.378V151.5
	c-0.013-56.543-72.631-102.378-162.191-102.378c-48.759,0-92.498,13.592-122.231,35.087c-24.887,17.998-39.96,41.549-39.96,67.304
	L8.477,359.473c0,25.768,15.074,49.306,39.974,67.304c2.417,1.749,4.94,3.458,7.543,5.1c3.124,1.976,6.382,3.872,9.746,5.661
	c13.752,7.383,29.48,13.338,46.623,17.504l17.357,3.538c13.084,2.15,26.809,3.284,40.962,3.284h246.251V253.891L170.708,253.891
	L170.708,253.891z"/>
<g>
	<path style="fill:#E0AA68;" d="M244.808,133.503c14.86,8.211,19.76,15.848,20.521,18.011c-0.761,2.163-5.661,9.786-20.521,17.998
		c-19.72,10.895-46.049,16.889-74.126,16.889s-54.393-5.995-74.113-16.889c-14.873-8.211-19.76-15.835-20.534-17.998
		c0.774-2.163,5.661-9.8,20.521-18.011c19.72-10.895,46.049-16.889,74.126-16.889S225.088,122.608,244.808,133.503z"/>
	<path style="fill:#E0AA68;" d="M39.474,91.314c0.075-0.065,0.151-0.131,0.226-0.195C39.625,91.183,39.55,91.249,39.474,91.314z"/>
	<path style="fill:#E0AA68;" d="M37.438,93.12c0.048-0.044,0.095-0.087,0.143-0.131C37.533,93.034,37.486,93.076,37.438,93.12z"/>
	<path style="fill:#E0AA68;" d="M43.84,87.697c0.064-0.051,0.13-0.101,0.194-0.152C43.97,87.597,43.904,87.646,43.84,87.697z"/>
	<path style="fill:#E0AA68;" d="M20.462,112.839c0.001-0.003,0.004-0.005,0.005-0.008C20.466,112.834,20.463,112.836,20.462,112.839
		z"/>
	<path style="fill:#E0AA68;" d="M41.612,89.502c0.084-0.069,0.168-0.139,0.251-0.207C41.78,89.365,41.696,89.433,41.612,89.502z"/>
	<path style="fill:#E0AA68;" d="M10.019,137.412c0.02-0.093,0.041-0.188,0.063-0.282C10.062,137.224,10.04,137.319,10.019,137.412z"
		/>
	<path style="fill:#E0AA68;" d="M8.49,151.915L8.477,359.472c0,25.768,15.074,49.306,39.974,67.304v-207.97
		C23.696,200.907,8.65,177.521,8.49,151.915z"/>
	<path style="fill:#E0AA68;" d="M8.872,144.464c0.007-0.059,0.011-0.117,0.017-0.176C8.883,144.347,8.877,144.405,8.872,144.464z"/>
	<path style="fill:#E0AA68;" d="M10.584,135.029c0.015-0.059,0.031-0.117,0.047-0.178C10.616,134.911,10.6,134.969,10.584,135.029z"
		/>
	<path style="fill:#E0AA68;" d="M9.545,139.797c0.02-0.108,0.039-0.215,0.059-0.323C9.584,139.582,9.564,139.69,9.545,139.797z"/>
	<path style="fill:#E0AA68;" d="M9.162,142.162c0.015-0.099,0.027-0.199,0.041-0.299C9.188,141.963,9.176,142.064,9.162,142.162z"/>
</g>
<path d="M100.952,141.606c4.196-2.316,5.718-7.596,3.402-11.792c-2.316-4.196-7.596-5.72-11.792-3.402
	c-15.09,8.333-22.556,17.19-24.51,22.7c-0.666,1.876-0.666,3.924,0,5.8c1.953,5.51,9.417,14.367,24.509,22.701
	c20.983,11.588,48.796,17.968,78.317,17.968s57.333-6.381,78.317-17.968c15.09-8.333,22.554-17.19,24.509-22.7
	c0.666-1.877,0.666-3.927,0-5.805c-1.956-5.51-9.423-14.367-24.509-22.697c-20.983-11.586-48.796-17.968-78.316-17.968
	c-17.828,0-34.803,2.256-50.454,6.705c-4.61,1.311-7.286,6.111-5.975,10.721c1.311,4.612,6.115,7.283,10.721,5.975
	c13.908-3.955,29.715-6.044,45.708-6.044c26.634,0,51.468,5.613,69.926,15.804c7.51,4.147,11.828,7.901,14.175,10.407
	c-2.347,2.505-6.665,6.259-14.174,10.406c-18.458,10.192-43.292,15.805-69.927,15.805s-51.469-5.613-69.927-15.805
	c-7.51-4.147-11.827-7.901-14.174-10.407C89.124,149.508,93.442,145.754,100.952,141.606z"/>
<path d="M503.322,417.243c4.793,0,8.678-3.885,8.678-8.678V254.392c0-4.793-3.885-8.678-8.678-8.678H341.749v-93.562
	c0-0.047,0.003-0.092,0.003-0.139c0-30.432-18.309-58.748-51.552-79.731c-32.003-20.2-74.38-31.326-119.323-31.326
	c-46.831,0-90.458,11.939-122.846,33.617c-3.983,2.666-5.051,8.056-2.386,12.039c2.668,3.985,8.059,5.052,12.039,2.386
	c29.135-19.5,70.392-30.684,113.193-30.684c41.705,0,80.791,10.174,110.057,28.646c28.026,17.69,43.46,40.793,43.46,65.054
	s-15.434,47.364-43.46,65.054c-29.266,18.473-68.352,28.646-110.057,28.646s-80.791-10.174-110.057-28.646
	c-28.026-17.69-43.46-40.793-43.46-65.054c0-14.665,5.526-28.761,16.423-41.894c3.06-3.689,2.551-9.16-1.138-12.22
	c-3.688-3.059-9.159-2.551-12.22,1.138C7.098,115.099,0.04,133.369,0.007,151.881C0.005,151.923,0,359.982,0,359.982
	c0,30.436,18.31,58.754,51.557,79.739c31.979,20.183,74.312,31.306,119.216,31.323c0.035,0,0.069,0,0.104,0h332.444
	c4.793,0,8.678-3.885,8.678-8.678v-19.088c0-4.793-3.885-8.678-8.678-8.678c-4.793,0-8.678,3.885-8.678,8.678v10.41h-68.836V263.07
	h68.836v145.494C494.643,413.357,498.529,417.243,503.322,417.243z M290.199,231.745c14.223-8.977,25.703-19.301,34.193-30.554
	v44.522H263.02C272.696,241.703,281.809,237.042,290.199,231.745z M408.45,453.688h-42.721v-40.181c0-4.793-3.885-8.678-8.678-8.678
	c-4.793,0-8.678,3.885-8.678,8.678v40.181h-61.245v-40.181c0-4.793-3.885-8.678-8.678-8.678s-8.678,3.885-8.678,8.678v40.181
	h-61.245v-40.181c0-4.793-3.885-8.678-8.678-8.678c-4.793,0-8.678,3.885-8.678,8.678v40.181h-20.186c-0.033,0-0.067,0-0.101,0
	c-14.047,0-27.781-1.18-40.959-3.417v-42.772c0-4.793-3.885-8.678-8.678-8.678c-4.793,0-8.678,3.885-8.678,8.678v39.127
	c-17.01-4.306-32.756-10.514-46.559-18.466v-44.693c0-4.793-3.885-8.678-8.678-8.678s-8.678,3.885-8.678,8.678v32.931
	c-20.291-16.271-31.294-35.931-31.294-56.416V201.183c8.491,11.256,19.972,21.582,34.199,30.562
	c32.003,20.2,74.379,31.325,119.322,31.325H408.45V453.688z"/>
<g>
</g>
<g>
</g>
<g>
</g>
<g>
</g>
<g>
</g>
<g>
</g>
<g>
</g>
<g>
</g>
<g>
</g>
<g>
</g>
<g>
</g>
<g>
</g>
<g>
</g>
<g>
</g>
<g>
</g>
</svg>
