<?xml version="1.0" encoding="iso-8859-1"?>
<!-- Generator: Adobe Illustrator 19.0.0, SVG Export Plug-In . SVG Version: 6.00 Build 0)  -->
<svg version="1.1" id="Layer_1" xmlns="http://www.w3.org/2000/svg" xmlns:xlink="http://www.w3.org/1999/xlink" x="0px" y="0px"
	 viewBox="0 0 512.001 512.001" style="enable-background:new 0 0 512.001 512.001;" xml:space="preserve">
<g>
	<path style="fill:#EFBF8B;" d="M238.351,380.733v95.434c0,15.764-13.05,28.481-28.941,27.906
		c-15.132-0.529-26.906-13.43-26.906-28.573v-94.768l29.677-18.308L238.351,380.733z"/>
	<path style="fill:#EFBF8B;" d="M329.416,380.733v95.434c0,7.715-3.127,14.695-8.175,19.754c-5.059,5.048-12.039,8.175-19.754,8.175
		c-15.419,0-27.917-12.498-27.917-27.929v-95.434l29.83-12.176L329.416,380.733z"/>
</g>
<g>
	<path style="fill:#E5AE7B;" d="M198.613,475.489v-94.768l18.384-17.932l-8.65-7.265l-25.833,25.196v94.768
		c0,15.143,11.774,28.044,26.906,28.573c3.176,0.115,6.235-0.309,9.103-1.174C206.91,499.327,198.613,488.2,198.613,475.489z"/>
	<path style="fill:#E5AE7B;" d="M289.679,475.489v-94.768l18.384-17.932l-8.65-7.265L273.58,380.72v94.768
		c0,15.143,11.774,28.044,26.906,28.573c3.176,0.115,6.235-0.309,9.103-1.174C297.976,499.327,289.679,488.2,289.679,475.489z"/>
</g>
<path style="fill:#666666;" d="M319.47,43.838l-71.026,16.333l-58.512-16.333c13.154-22.03,37.231-36.794,64.769-36.794
	S306.316,21.807,319.47,43.838z"/>
<g>
	<path style="fill:#E5AE7B;" d="M284.067,152.92l20.099,41.631c0,16.212-33.241,29.366-49.465,29.366
		c-8.106,0-15.453-3.288-20.766-8.601c-5.312-5.324-30.186-12.659-30.186-20.766l21.585-41.631l13.675-19.693
		c8.302,3.162,6.275,6.132,15.691,6.132s7.436-5.27,15.737-8.432L284.067,152.92z"/>
	<path style="fill:#E5AE7B;" d="M329.796,75.883c0.195,2.15,0.287,4.335,0.287,6.542c0,32.218-20.214,59.71-48.649,70.495
		c-8.302,3.162-17.316,4.887-26.733,4.887c-9.417,0-18.432-1.725-26.733-4.887c-28.435-10.785-48.649-38.277-48.649-70.495
		c0-2.208,0.092-4.392,0.287-6.542c0.701,0.103,1.426,0.149,2.15,0.149l66.687-15.862l79.213,15.862
		C328.381,76.032,329.094,75.986,329.796,75.883z"/>
</g>
<path style="fill:#EFBF8B;" d="M330.083,82.414c0,32.218-20.202,59.71-48.637,70.495c-4.323,1.644-8.842,2.898-13.51,3.725
	c-4.668-0.816-9.187-2.081-13.51-3.725h-0.011c-28.435-10.785-48.649-38.277-48.649-70.495c0-2.208,0.092-4.392,0.287-6.542
	c0.701,0.103,1.426,0.149,2.15,0.149l57.422-15.178l62.032,15.178c0.724,0,1.437-0.046,2.139-0.149
	C329.991,78.022,330.083,80.206,330.083,82.414z"/>
<path style="fill:#E0555C;" d="M339.04,48.552c2.909,2.909,4.714,6.933,4.714,11.383c0,8.164-6.083,14.913-13.959,15.948
	c-0.701,0.103-1.414,0.149-2.139,0.149h-145.9c-0.724,0-1.449-0.046-2.15-0.149c-3.576-0.471-6.795-2.139-9.233-4.565
	c-2.909-2.909-4.714-6.933-4.714-11.383c0-8.9,7.209-16.097,16.097-16.097h8.175H319.47h8.187
	C332.107,43.838,336.131,45.643,339.04,48.552z"/>
<path style="fill:#7D7878;" d="M319.47,43.826l-53.777,10.866l-49.315-10.866c11.004-18.42,29.642-31.758,51.546-35.621
	C289.828,12.068,308.466,25.406,319.47,43.826z"/>
<path style="fill:#FD6568;" d="M343.754,59.924c0,8.175-6.083,14.913-13.959,15.948c-0.701,0.103-1.414,0.149-2.139,0.149H209.974
	c-0.724,0-1.449-0.046-2.15-0.149c-3.576-0.471-6.795-2.127-9.233-4.565c-2.909-2.909-4.714-6.933-4.714-11.383
	c0-8.888,7.209-16.097,16.097-16.097h117.683c4.45,0,8.474,1.805,11.383,4.714C341.949,51.461,343.754,55.485,343.754,59.924z"/>
<path style="fill:#EFBF8B;" d="M423.632,278.721c9.072,12.119,7.382,29.504-4.415,39.002c-12.372,9.98-30.447,7.623-39.887-4.99
	l-49.913-66.643l6.178-29.309l33.732-10.59L423.632,278.721z"/>
<path style="fill:#E5AE7B;" d="M329.416,246.09l49.913,66.643c7.307,9.764,19.788,13.376,30.793,9.883
	c-5.378-1.697-10.294-5.026-13.93-9.883l-73.056-98.251"/>
<path style="fill:#EFBF8B;" d="M182.505,246.09l-49.913,66.643c-5.485,7.324-13.878,11.188-22.375,11.188
	c-5.818,0-11.694-1.817-16.718-5.577c-12.337-9.245-14.856-26.745-5.611-39.082l54.72-73.071l35.461,9.438L182.505,246.09z"/>
<path style="fill:#E5AE7B;" d="M110.362,318.344c-12.337-9.245-14.856-26.745-5.611-39.082l51.917-69.328l-14.061-3.743
	l-54.72,73.071c-9.244,12.337-6.726,29.838,5.611,39.082c5.025,3.76,10.9,5.577,16.718,5.577c2.863,0,5.712-0.45,8.444-1.311
	C115.752,321.686,112.943,320.276,110.362,318.344z"/>
<path style="fill:#FD6568;" d="M329.416,309.444v71.288H273.57v-23.629c0-4.864-1.978-9.256-5.163-12.441
	c-3.185-3.185-7.589-5.163-12.452-5.163c-9.716,0-17.604,7.888-17.604,17.604v23.629h-55.846v-71.288l74.899-23.675L329.416,309.444
	z"/>
<path style="fill:#C0E8F6;" d="M369.326,206.191l-39.91,39.898v63.355H182.505V246.09l-39.898-39.898l14.223-18.995
	c8.083-10.785,18.466-19.351,30.206-25.227c11.728-5.876,24.813-9.049,38.3-9.049v20.225c0,8.106,3.288,15.442,8.601,20.766
	c5.312,5.312,12.659,8.601,20.766,8.601c16.224,0,29.366-13.154,29.366-29.366V152.92h2.518c26.963,0,52.339,12.705,68.506,34.276
	L369.326,206.191z"/>
<polygon style="fill:#E0555C;" points="198.613,305.328 198.613,380.721 182.516,380.721 182.516,309.433 "/>
<path style="fill:#AAD6E2;" d="M182.516,245.909v63.524h16.097v-47.426C198.613,253.116,191.406,245.909,182.516,245.909
	L182.516,245.909z"/>
<path style="fill:#E0555C;" d="M260.9,339.501c15.894,0,28.779,12.885,28.779,28.779v12.442l-0.034,0.012H273.57v-23.629
	c0-4.864-1.978-9.256-5.163-12.441c-3.185-3.185-7.589-5.163-12.452-5.163L260.9,339.501L260.9,339.501z"/>
<path style="fill:#AAD6E2;" d="M225.335,152.92v17.351l0,0c-22.336,0-43.471,10.111-57.486,27.504l-15.021,18.638l-10.222-10.222
	l14.223-18.995c8.083-10.785,18.466-19.351,30.206-25.227C198.763,156.094,211.848,152.92,225.335,152.92z"/>
<path d="M429.787,274.673l-68.541-91.527c-13.568-18.104-33.37-30.542-55.178-35.212c19.262-15.184,31.664-38.703,31.664-65.077
	c0-0.377-0.02-0.744-0.024-1.12c8.069-3.746,13.69-11.905,13.69-21.372c0-12.997-10.574-23.571-23.571-23.571h-4.084
	C308.444,13.999,282.449,0,254.875,0s-53.569,13.999-68.866,36.794h-4.084c-12.997,0-23.571,10.574-23.571,23.571
	c0,9.466,5.621,17.624,13.69,21.372c-0.005,0.375-0.024,0.743-0.024,1.12c0,26.62,12.633,50.332,32.204,65.501
	c-7.047,1.656-13.9,4.123-20.36,7.36c-12.861,6.437-24.217,15.921-32.842,27.43L82.08,275.211
	c-5.669,7.565-8.049,16.886-6.705,26.246c1.344,9.357,6.252,17.631,13.82,23.302c6.178,4.623,13.508,7.067,21.197,7.067
	c11.107,0,21.707-5.302,28.358-14.181l36.457-48.677v206.964c0,19.216,15.306,35.384,34.11,36.042
	c9.703,0.352,18.883-3.16,25.857-9.886c6.983-6.734,10.828-15.787,10.828-25.489V357.535c0-5.586,4.544-10.13,10.13-10.13
	c2.704,0,5.249,1.056,7.167,2.973c1.918,1.918,2.973,4.459,2.973,7.156v119.063c0,19.522,15.877,35.403,35.391,35.403
	c9.448,0,18.338-3.678,25.045-10.37c6.679-6.695,10.358-15.585,10.358-25.033V268.968l36.456,48.675
	c5.81,7.762,14.311,12.703,23.935,13.91c9.62,1.206,19.073-1.487,26.623-7.576C438.739,312.172,441.301,290.054,429.787,274.673z
	 M232.981,162.755c6.978,1.914,14.314,2.957,21.892,2.957c7.578,0,14.914-1.043,21.892-2.957v10.822
	c0,12.072-9.822,21.892-21.892,21.892s-21.892-9.821-21.892-21.892V162.755z M254.874,14.949c19.021,0,37.126,8.131,49.862,21.846
	h-99.723C217.749,23.08,235.852,14.949,254.874,14.949z M186.993,83.937h104.118c4.128,0,7.474-3.346,7.474-7.474
	s-3.346-7.474-7.474-7.474H181.924c-4.756,0-8.624-3.869-8.624-8.624s3.868-8.624,8.624-8.624h145.901
	c4.756,0,8.624,3.869,8.624,8.624s-3.868,8.624-8.624,8.624h-10.843c-4.128,0-7.474,3.346-7.474,7.474
	c0,4.128,3.346,7.474,7.474,7.474h5.773c-0.582,36.946-30.798,66.827-67.88,66.827S187.575,120.883,186.993,83.937z
	 M126.781,308.684c-3.899,5.207-9.873,8.194-16.393,8.194c-4.435,0-8.668-1.413-12.237-4.084c-4.37-3.275-7.206-8.056-7.982-13.463
	c-0.777-5.406,0.598-10.789,3.871-15.158l49.55-66.168l29.221,29.221L126.781,308.684z M316.135,491.062
	c-3.873,3.865-9.013,5.992-14.475,5.992c-11.273,0-20.444-9.176-20.444-20.455v-87.961h40.899v87.961
	C322.115,482.06,319.988,487.201,316.135,491.062z M414.697,312.337c-4.367,3.523-9.829,5.08-15.383,4.383
	c-5.56-0.697-10.471-3.551-13.829-8.037l-46.03-61.459l18.141-18.141c2.919-2.918,2.919-7.651,0-10.569
	c-2.918-2.919-7.651-2.919-10.569,0l-9.963,9.963v-5.988c0-4.128-3.346-7.474-7.474-7.474c-4.128,0-7.474,3.346-7.474,7.474v79.912
	h-9.157c-4.128,0-7.474,3.346-7.474,7.474c0,4.128,3.346,7.474,7.474,7.474h9.157v56.341h-40.899v-16.155
	c0-6.69-2.611-12.985-7.352-17.726c-4.741-4.741-11.041-7.352-17.737-7.352c-13.828,0-25.077,11.25-25.077,25.077v16.155h-22.151
	c-4.128,0-7.474,3.346-7.474,7.474c0,4.128,3.346,7.474,7.474,7.474h22.151v87.961c0,5.608-2.223,10.839-6.256,14.73
	c-4.025,3.883-9.336,5.909-14.949,5.707c-10.859-0.379-19.693-9.846-19.693-21.104V317.349h94.636c4.128,0,7.474-3.346,7.474-7.474
	c0-4.128-3.346-7.474-7.474-7.474h-94.636V222.49c0-4.128-3.346-7.474-7.474-7.474s-7.474,3.346-7.474,7.474v5.988l-22.56-22.56
	l10.339-13.807c7.24-9.66,16.773-17.622,27.572-23.027c8.557-4.286,17.935-6.962,27.479-7.888v12.382
	c0,20.314,16.526,36.84,36.84,36.84s36.84-16.526,36.84-36.84v-12.587c22.641,1.461,43.883,12.857,57.568,31.117l68.539,91.524
	C424.566,292.642,423.167,305.518,414.697,312.337z"/>
<g>
</g>
<g>
</g>
<g>
</g>
<g>
</g>
<g>
</g>
<g>
</g>
<g>
</g>
<g>
</g>
<g>
</g>
<g>
</g>
<g>
</g>
<g>
</g>
<g>
</g>
<g>
</g>
<g>
</g>
</svg>
