<?xml version="1.0" encoding="iso-8859-1"?>
<!-- Generator: Adobe Illustrator 19.0.0, SVG Export Plug-In . SVG Version: 6.00 Build 0)  -->
<svg version="1.1" id="Layer_1" xmlns="http://www.w3.org/2000/svg" xmlns:xlink="http://www.w3.org/1999/xlink" x="0px" y="0px"
	 viewBox="0 0 512 512" style="enable-background:new 0 0 512 512;" xml:space="preserve">
<g>
	<path style="fill:#E0555C;" d="M154.201,479.532c-0.849,1.083-1.785,2.142-2.782,3.139c-13.934,13.946-36.546,13.946-50.492,0
		s-13.946-36.558,0-50.492c0.997-0.997,2.056-1.933,3.139-2.782c6.118,9.97,13.491,19.387,22.119,28.015
		S144.23,473.415,154.201,479.532z"/>
	<path style="fill:#E0555C;" d="M361.952,7.529l69.62,69.632L324.249,232.613c4.924,3.84,9.675,8.013,14.192,12.531
		c59.133,59.133,59.133,154.996,0,214.116c-50.492,50.504-127.768,57.877-186.088,22.119c-9.97-6.118-19.387-13.491-28.015-22.119
		s-16.002-18.045-22.119-28.015c-35.758-58.32-28.385-135.597,22.119-186.101l63.527-63.527l39.167,39.167l36.558-36.558
		l-39.167-39.167L361.952,7.529z"/>
</g>
<path style="fill:#FD6568;" d="M231.392,486.381c-24.802,0-49.018-6.809-70.032-19.693c-8.971-5.505-17.329-12.104-24.836-19.613
	c-7.51-7.51-14.11-15.868-19.618-24.843c-15.471-25.235-22.167-55.441-18.85-85.052c3.413-30.49,16.716-58.101,38.467-79.853
	l51.644-51.643c11.031,8.73,24.585,32.983,38.865,32.983c16.767,0,50.255-43.77,50.255-43.77c5.895-5.895,5.895-15.452,0-21.346
	l-28.494-28.494L361.951,31.9l47.28,47.288L300.832,236.2l12.819,10c4.456,3.475,8.696,7.219,12.604,11.127
	c25.346,25.344,39.304,59.039,39.304,94.878c0,35.837-13.957,69.528-39.302,94.867C300.919,472.42,267.227,486.38,231.392,486.381
	L231.392,486.381z"/>
<circle style="fill:#E0555C;" cx="231.386" cy="352.211" r="53.458"/>
<path d="M437.415,71.975l-69.63-69.631C366.283,0.843,364.249,0,362.127,0c-2.122,0-4.157,0.843-5.657,2.344l-137.522,137.52
	c-1.5,1.5-2.342,3.535-2.342,5.657s0.843,4.157,2.344,5.657l33.51,33.51l-25.241,25.241l-33.511-33.51
	c-3.123-3.124-8.19-3.124-11.313,0l-29.653,29.653c-3.125,3.125-3.125,8.19,0,11.314c3.123,3.124,8.189,3.124,11.314,0
	l23.994-23.995l33.511,33.51c3.123,3.124,8.19,3.124,11.313,0l36.557-36.555c1.5-1.5,2.342-3.535,2.342-5.657
	s-0.843-4.157-2.344-5.657l-33.51-33.51L362.127,19.315l59.258,59.258L317.851,228.536c-2.41,3.49-1.678,8.253,1.668,10.859
	c4.709,3.667,9.234,7.664,13.45,11.878c55.913,55.911,55.913,146.888,0.001,202.799c-55.913,55.911-146.89,55.911-202.8,0
	c-55.913-55.911-55.913-146.888-0.001-202.799l11.115-11.115c3.125-3.124,3.125-8.19,0.001-11.314c-3.124-3.124-8.19-3.125-11.314,0
	l-11.116,11.115c-51.451,51.451-60.307,129.611-26.573,190.26c-7.415,8.074-11.479,18.476-11.479,29.51
	c0,11.675,4.546,22.651,12.803,30.908c8.256,8.257,19.233,12.803,30.907,12.803c11.034,0,21.437-4.066,29.511-11.479
	C178.04,505.319,204.803,512,231.568,512c40.819,0,81.639-15.538,112.715-46.613c62.15-62.151,62.15-163.277,0-225.429
	c-2.904-2.904-5.94-5.714-9.075-8.401L438.339,82.178C440.536,78.998,440.146,74.706,437.415,71.975z M124.513,487.437
	c-7.401,0-14.359-2.883-19.592-8.117c-5.235-5.234-8.117-12.192-8.117-19.592c0-5.468,1.583-10.688,4.516-15.154
	c5.161,7.307,10.999,14.277,17.534,20.812c6.535,6.535,13.505,12.373,20.811,17.534
	C135.202,485.854,129.981,487.437,124.513,487.437z"/>
<path d="M266.384,317.857c7.961,7.96,12.838,18.066,14.104,29.223c0.497,4.389,4.462,7.548,8.851,7.048
	c4.391-0.499,7.547-4.462,7.049-8.851c-1.656-14.581-8.291-28.337-18.69-38.734c-25.435-25.435-66.825-25.435-92.26,0
	c-25.437,25.437-25.437,66.823,0,92.26c12.718,12.718,29.424,19.077,46.131,19.077s33.413-6.359,46.132-19.077
	c6.103-6.104,10.862-13.213,14.142-21.129c1.691-4.082-0.246-8.763-4.328-10.455c-4.088-1.69-8.764,0.246-10.455,4.328
	c-2.473,5.966-6.065,11.329-10.674,15.94c-19.2,19.196-50.435,19.196-69.631,0c-19.197-19.197-19.198-50.434-0.001-69.63
	C215.952,298.659,247.187,298.661,266.384,317.857z"/>
<g>
</g>
<g>
</g>
<g>
</g>
<g>
</g>
<g>
</g>
<g>
</g>
<g>
</g>
<g>
</g>
<g>
</g>
<g>
</g>
<g>
</g>
<g>
</g>
<g>
</g>
<g>
</g>
<g>
</g>
</svg>
