<?xml version="1.0" encoding="iso-8859-1"?>
<!-- Generator: Adobe Illustrator 19.0.0, SVG Export Plug-In . SVG Version: 6.00 Build 0)  -->
<svg version="1.1" id="Layer_1" xmlns="http://www.w3.org/2000/svg" xmlns:xlink="http://www.w3.org/1999/xlink" x="0px" y="0px"
	 viewBox="0 0 512 512" style="enable-background:new 0 0 512 512;" xml:space="preserve">
<g>
	<path style="fill:#EFBF8B;" d="M324.75,346.859v88.028c0,7.12-2.891,13.553-7.541,18.227c-4.771,4.747-11.372,7.662-18.673,7.529
		c-14.143-0.241-25.299-12.18-25.299-26.323v-87.462l25.961-23.528L324.75,346.859z"/>
	<path style="fill:#EFBF8B;" d="M240.746,346.859v88.028c0,14.541-12.035,26.275-26.696,25.745
		c-13.951-0.494-24.817-12.384-24.817-26.359v-55.597l-0.024-31.816h0.024l24.431-21.118L240.746,346.859z"/>
</g>
<g>
	<path style="fill:#E5AE7B;" d="M204.208,434.335v-87.22l16.92-16.503l-7.961-6.686l-23.775,23.189v87.219
		c0,13.937,10.836,25.81,24.763,26.296c2.923,0.106,5.738-0.284,8.378-1.081C211.845,456.274,204.208,446.033,204.208,434.335z"/>
	<path style="fill:#E5AE7B;" d="M288.051,434.334v-87.219l16.92-16.503l-7.961-6.686l-23.775,23.189v87.219
		c0,13.937,10.836,25.81,24.763,26.296c2.923,0.106,5.738-0.284,8.378-1.081C295.688,456.273,288.051,446.033,288.051,434.334z"/>
</g>
<path style="fill:#C0E8F6;" d="M324.75,281.094v65.765h-51.513v-21.793c0-4.494-1.831-8.541-4.759-11.481
	c-2.735-2.723-6.409-4.482-10.493-4.722c-0.699-0.048-1.422-0.048-2.144,0c-8.577,0.59-15.095,8.023-15.095,16.637v21.359h-51.537
	l-0.024-26.275v-39.49h0.048l14.975-7.71l50.417-25.949L324.75,281.094z"/>
<path style="fill:#FD6568;" d="M349.832,147.336l-19.311,28.684c-3.759,5.578-5.771,12.155-5.771,18.89v86.185H189.185v-86.185
	c0-6.734-2.012-13.312-5.771-18.89l-18.986-28.19l0.735-0.494l4.747-21.347l8.132-36.647c9.445,27.214,29.298,34.009,59.717,34.009
	c31.346,0,75.921-11.252,84.607-39.755L349.832,147.336z"/>
<path style="fill:#EFBF8B;" d="M408.248,60.609l-58.416,86.727l-27.467-27.455c-8.686,28.503-35.189,49.248-66.536,49.248
	c-30.419,0-56.272-19.528-65.717-46.743l-13.541,13.541l-2.261,13.926l-9.882-2.024l-58.754-87.221
	c-6.951-9.3-6.686-21.757-0.157-30.672c1.458-2,3.241-3.819,5.337-5.385c4.638-3.47,10.059-5.144,15.42-5.144
	c7.843,0,15.577,3.566,20.637,10.324l8.349,10.782l22.106,28.552c-2.289,2.614,159.66,3.843,158.057,1.47l23.251-30.033l8.337-10.77
	c5.06-6.758,12.806-10.324,20.649-10.324c5.361,0,10.782,1.675,15.42,5.144C414.453,33.081,416.778,49.224,408.248,60.609z"/>
<path style="fill:#E5AE7B;" d="M176.571,135.927l-11.409,11.409l-0.735,0.494l-58.754-87.221c-6.951-9.3-6.686-21.757-0.157-30.672
	L176.571,135.927z"/>
<path style="fill:#666666;" d="M315.45,63.92l-62.71,11.566L196.231,63.92c6.868-11.493,16.963-20.837,29.027-26.773
	c9.228-4.539,19.598-7.09,30.583-7.09c10.985,0,21.355,2.55,30.583,7.09C298.486,43.084,308.582,52.429,315.45,63.92z"/>
<path style="fill:#E5AE7B;" d="M231.225,164.631c-26.17-9.927-44.774-35.228-44.774-64.879c0-2.032,0.084-4.043,0.265-6.021
	c0.646,0.095,1.301,0.137,1.968,0.137l63.37-10.844l70.908,10.844c0.677,0,1.334-0.042,1.979-0.137
	c0.179,1.979,0.265,3.99,0.265,6.021c0,29.651-18.603,54.954-44.774,64.879c-7.64,2.911-15.937,4.497-24.604,4.497
	C247.162,169.129,238.865,167.541,231.225,164.631z"/>
<path style="fill:#EFBF8B;" d="M325.302,99.435c0,29.651-18.593,54.954-44.763,64.879c-3.979,1.513-8.138,2.667-12.434,3.429
	c-4.296-0.752-8.455-1.915-12.434-3.429h-0.011c-26.17-9.927-44.774-35.228-44.774-64.879c0-2.032,0.084-4.043,0.265-6.021
	c0.646,0.095,1.312,0.137,1.979,0.137l52.848-13.969l57.091,13.969c0.666,0,1.323-0.042,1.969-0.137
	C325.218,95.392,325.302,97.403,325.302,99.435z"/>
<path style="fill:#7D7878;" d="M315.534,63.92l-49.493,10l-45.387-10c10.127-16.953,27.281-29.229,47.44-32.784
	C288.254,34.693,305.407,46.968,315.534,63.92z"/>
<path style="fill:#EAD26C;" d="M177.552,68.99c2.699-3.112,6.698-5.069,11.144-5.069h7.534h119.22h7.525
	c4.085,0,7.788,1.661,10.476,4.338c0.666,0.666,1.27,1.397,1.809,2.19c1.588,2.36,2.529,5.218,2.529,8.286
	c0,7.514-5.587,13.714-12.836,14.678c-0.646,0.095-1.312,0.137-1.979,0.137H188.695c-0.666,0-1.323-0.042-1.969-0.137
	c-3.312-0.434-6.264-1.958-8.508-4.201c-2.677-2.688-4.338-6.392-4.338-10.476C173.88,75.011,175.267,71.603,177.552,68.99z"/>
<path style="fill:#FEE572;" d="M337.789,78.736c0,7.514-5.577,13.714-12.836,14.678c-0.646,0.095-1.302,0.137-1.979,0.137H210.568
	c-0.666,0-1.323-0.042-1.968-0.137c-3.312-0.434-6.264-1.958-8.508-4.201c-2.677-2.677-4.338-6.381-4.338-10.476
	c0-8.18,6.636-14.815,14.815-14.815h112.405c4.095,0,7.799,1.661,10.476,4.339C336.138,70.948,337.789,74.651,337.789,78.736z"/>
<polygon style="fill:#AAD6E2;" points="204.207,273.384 204.207,346.859 189.209,346.859 189.185,320.584 189.185,281.094 
	189.233,281.094 "/>
<path style="fill:#E0555C;" d="M204.207,177.164v103.93h-15.023v-86.185c0-6.734-2.012-13.312-5.771-18.89l-18.986-28.19
	l0.735-0.494l11.409-11.409L204.207,177.164z"/>
<path style="fill:#AAD6E2;" d="M288.055,334.236v12.623h-14.818v-21.793c0-4.494-1.831-8.541-4.759-11.481
	c-2.735-2.723-6.409-4.482-10.493-4.722h4.696C276.694,308.862,288.055,320.223,288.055,334.236z"/>
<path d="M460.8,0c-4.325,0-7.831,3.506-7.831,7.831v23.492h-34.782c-2.26-4.819-5.695-9.17-10.244-12.58
	c-5.862-4.386-12.817-6.705-20.113-6.705c-10.517,0-20.556,5.01-26.869,13.405l-4.554,5.88h-65.018
	c-10.807-5.573-22.923-8.641-35.386-8.641c-12.463,0-24.578,3.068-35.387,8.641h-62.746l-4.554-5.883
	c-6.311-8.393-16.35-13.402-26.866-13.402c-7.296,0-14.25,2.319-20.117,6.708c-4.548,3.408-7.981,7.758-10.24,12.577H59.031V7.831
	C59.031,3.506,55.525,0,51.2,0s-7.831,3.506-7.831,7.831v496.339c0,4.325,3.506,7.831,7.831,7.831s7.831-3.506,7.831-7.831V46.984
	h33.896c0.253,6.504,2.388,12.998,6.537,18.607l77.63,115.258c2.901,4.306,4.433,9.326,4.433,14.518l0.051,239.364
	c0,18.225,14.524,33.558,32.366,34.182c9.197,0.332,17.918-2.999,24.535-9.38c6.626-6.39,10.274-14.979,10.274-24.187V325.952
	c0-4.647,3.427-8.521,7.802-8.821c2.478-0.173,4.806,0.7,6.555,2.448c1.591,1.591,2.468,3.701,2.468,5.939v109.257
	c0,18.525,14.805,33.849,33.001,34.158c0.198,0.004,0.394,0.005,0.592,0.005c8.965,0,17.377-3.477,23.756-9.841
	c6.338-6.352,9.828-14.788,9.828-23.752v-239.98c0-5.192,1.532-10.212,4.433-14.518l77.63-115.258
	c4.149-5.609,6.284-12.102,6.537-18.607h31.618v457.186c0,4.325,3.506,7.831,7.831,7.831s7.831-3.506,7.831-7.831V7.831
	C468.631,3.506,465.125,0,460.8,0z M194.35,101.98h92.776c4.325,0,7.831-3.506,7.831-7.831s-3.506-7.831-7.831-7.831h-98.411
	c-3.87,0-7.019-3.148-7.019-7.017s3.148-7.019,7.019-7.019h134.583c3.87,0,7.019,3.148,7.019,7.019c0,3.87-3.148,7.017-7.019,7.017
	h-11.072c-4.325,0-7.831,3.506-7.831,7.831s3.506,7.831,7.831,7.831h5.437c-1.028,33.131-28.279,59.77-61.654,59.77
	S195.378,135.11,194.35,101.98z M334.509,59.612c-3.312-1.894-7.133-2.991-11.213-2.991h-3.266c-2.34-3.437-4.941-6.656-7.768-9.638
	h32.022L334.509,59.612z M299.777,56.621h-87.544c11.469-11.501,27.234-18.279,43.772-18.279
	C272.543,38.342,288.308,45.12,299.777,56.621z M199.747,46.984c-2.826,2.982-5.428,6.201-7.768,9.638h-3.266
	c-3.43,0-6.67,0.788-9.588,2.156l-9.129-11.794H199.747z M112.121,56.367c-5.924-7.906-4.307-19.161,3.601-25.086
	c3.133-2.344,6.844-3.583,10.73-3.583c5.715,0,10.953,2.618,14.371,7.182c0.025,0.034,0.051,0.066,0.076,0.1l27.135,35.053
	c-1.275,2.833-2.001,5.963-2.001,9.267c0,8.888,5.153,16.577,12.616,20.293c-0.001,0.152-0.01,0.3-0.01,0.452
	c0,7.123,0.988,14.017,2.799,20.572l-15.554,15.554L112.35,56.689C112.276,56.579,112.2,56.472,112.121,56.367z M311.853,448.024
	c-3.478,3.47-8.097,5.336-13.007,5.251c-9.708-0.165-17.606-8.464-17.606-18.499v-79.631h35.853v80.201
	C317.093,440.133,315.228,444.64,311.853,448.024z M324.198,172.098c-4.648,6.902-7.105,14.947-7.105,23.266v78.359h-8.885
	c-4.325,0-7.831,3.506-7.831,7.831s3.506,7.831,7.831,7.831h8.885v50.097H281.24v-13.965c0-6.421-2.506-12.464-7.056-17.014
	c-4.924-4.924-11.739-7.473-18.699-6.998c-12.557,0.86-22.392,11.598-22.392,24.446v13.531h-19.454
	c-4.325,0-7.831,3.506-7.831,7.831s3.506,7.831,7.831,7.831h19.454v80.201c0,4.916-1.948,9.503-5.485,12.913
	c-3.529,3.404-8.187,5.177-13.106,5.002c-9.517-0.332-17.261-8.645-17.261-18.531l-0.051-145.344h83.914
	c4.325,0,7.831-3.506,7.831-7.831s-3.506-7.831-7.831-7.831H197.19v-78.359c0-8.321-2.458-16.366-7.105-23.266L174.8,149.404
	l12.963-12.963c13.043,24.357,38.736,40.967,68.244,40.967c30.388,0,56.727-17.619,69.373-43.171l14.531,14.531L324.198,172.098z
	 M402.161,56.367c-0.078,0.105-0.154,0.212-0.228,0.32l-53.108,78.849l-17.572-17.572c1.371-5.756,2.118-11.751,2.118-17.92
	c0-0.152-0.008-0.3-0.01-0.452c7.463-3.717,12.616-11.406,12.616-20.293c0-2.564-0.448-5.02-1.235-7.32l28.641-36.999
	c0.025-0.033,0.051-0.066,0.076-0.1c3.419-4.565,8.657-7.182,14.372-7.182c3.888,0,7.598,1.238,10.725,3.58
	C406.467,37.206,408.084,48.462,402.161,56.367z"/>
<g>
</g>
<g>
</g>
<g>
</g>
<g>
</g>
<g>
</g>
<g>
</g>
<g>
</g>
<g>
</g>
<g>
</g>
<g>
</g>
<g>
</g>
<g>
</g>
<g>
</g>
<g>
</g>
<g>
</g>
</svg>
