<?xml version="1.0" encoding="iso-8859-1"?>
<!-- Generator: Adobe Illustrator 19.0.0, SVG Export Plug-In . SVG Version: 6.00 Build 0)  -->
<svg version="1.1" id="Layer_1" xmlns="http://www.w3.org/2000/svg" xmlns:xlink="http://www.w3.org/1999/xlink" x="0px" y="0px"
	 viewBox="0 0 512 512" style="enable-background:new 0 0 512 512;" xml:space="preserve">
<rect x="150.023" y="87.58" style="fill:#E0555C;" width="211.602" height="95.573"/>
<path style="fill:#EF626A;" d="M421.731,182.839v292.844c0,15.285-12.398,27.683-27.683,27.683H117.592
	c-15.297,0-27.683-12.398-27.683-27.683V182.839c0-15.285,12.386-27.683,27.683-27.683h32.427h211.602h32.427
	C409.332,155.156,421.731,167.555,421.731,182.839z"/>
<path style="fill:#FD6568;" d="M393.859,182.839v292.844c0,15.285-10.315,27.683-23.032,27.683H140.813
	c-12.727,0-23.032-12.398-23.032-27.683V182.839c0-15.285,10.305-27.683,23.032-27.683h26.979h176.054h26.979
	C383.544,155.156,393.859,167.555,393.859,182.839z"/>
<path style="fill:#C0E8F6;" d="M255.82,243.3c66.874,0,121.098,38.488,121.098,85.961s-54.224,85.961-121.098,85.961
	c-66.886,0-121.098-38.488-121.098-85.961S188.934,243.3,255.82,243.3z"/>
<path style="fill:#EAD475;" d="M402.468,21.257v82.132c0,6.734-5.459,12.191-12.191,12.191H121.352
	c-6.734,0-12.191-5.459-12.191-12.191V21.257c0-6.734,5.459-12.191,12.191-12.191h268.924
	C397.009,9.064,402.468,14.523,402.468,21.257z"/>
<path style="fill:#FEE572;" d="M382.565,21.568v81.51c0,6.904-5.598,12.503-12.503,12.503H141.565
	c-6.904,0-12.503-5.598-12.503-12.503v-81.51c0-6.904,5.598-12.503,12.503-12.503h228.498
	C376.968,9.064,382.565,14.662,382.565,21.568z"/>
<path d="M421.911,219.318c4.505,0,8.157-3.652,8.157-8.157V183.32c0-19.765-16.079-35.844-35.844-35.844h-24.267v-24.651h32.7
	c4.505,0,8.157-3.652,8.157-8.157V8.157c0-4.505-3.652-8.157-8.157-8.157H109.342c-4.505,0-8.157,3.652-8.157,8.157v106.511
	c0,4.505,3.652,8.157,8.157,8.157h32.699v24.651h-24.266c-19.765,0-35.844,16.079-35.844,35.844v292.836
	c0,19.765,16.079,35.844,35.844,35.844h276.451c19.763,0,35.844-16.079,35.844-35.844V243.161c0-4.505-3.652-8.157-8.157-8.157
	s-8.157,3.652-8.157,8.157v232.995c0,10.768-8.76,19.53-19.53,19.53H117.774c-10.768,0-19.53-8.76-19.53-19.53V183.32
	c0-10.768,8.76-19.53,19.53-19.53h276.451c10.768,0,19.53,8.76,19.53,19.53v27.841C413.754,215.666,417.406,219.318,421.911,219.318
	z M394.499,106.511h-63.332v-9.256c0-4.505-3.652-8.157-8.157-8.157s-8.157,3.652-8.157,8.157v9.256h-28.361V16.314h28.361v49.569
	c0,4.505,3.652,8.157,8.157,8.157s8.157-3.652,8.157-8.157V16.314h28.362v69.647c0,4.505,3.652,8.157,8.157,8.157
	s8.157-3.652,8.157-8.157V16.314h18.657V106.511z M241.819,106.511V16.314h28.361v90.197H241.819z M197.145,106.511V16.314h28.361
	v90.197H197.145z M152.47,106.511V16.314h28.361v90.197H152.47z M117.498,16.314h18.658v90.197h-18.658V16.314z M158.354,122.825
	h195.288v24.651H158.354C158.354,147.476,158.354,122.825,158.354,122.825z"/>
<path d="M255.999,423.856c34.024,0,66.111-9.476,90.352-26.683c25.087-17.808,38.903-41.757,38.903-67.435
	c0-16.637-5.983-32.968-17.301-47.222c-2.802-3.53-7.933-4.116-11.461-1.315c-3.529,2.801-4.116,7.932-1.316,11.46
	c9.005,11.341,13.765,24.162,13.765,37.077c0,42.901-50.665,77.804-112.941,77.804c-41.013,0-78.921-15.487-98.93-40.418
	c-2.821-3.514-7.955-4.075-11.467-1.255c-3.512,2.82-4.076,7.954-1.255,11.467C167.376,406.031,210.159,423.856,255.999,423.856z"/>
<path d="M344.269,270.525c2.442-3.786,1.353-8.835-2.432-11.277c-23.624-15.237-54.108-23.629-85.838-23.629
	c-34.023,0-66.111,9.476-90.35,26.683c-25.089,17.808-38.904,41.757-38.904,67.435c0,4.309,0.402,8.648,1.193,12.893
	c0.732,3.923,4.158,6.664,8.009,6.662c0.496,0,0.999-0.045,1.505-0.139c4.429-0.826,7.349-5.085,6.523-9.513
	c-0.609-3.263-0.916-6.595-0.916-9.902c0-42.901,50.665-77.804,112.941-77.804c28.633,0,55.976,7.467,76.995,21.023
	C336.777,275.398,341.826,274.31,344.269,270.525z"/>
<path d="M294.377,270.921c-3.186-3.185-8.35-3.185-11.536,0l-48.67,48.67c-1.897,1.897-2.741,4.605-2.254,7.243
	c0.486,2.639,2.237,4.869,4.686,5.967l17.427,7.813l-36.406,36.407c-3.186,3.186-3.186,8.35,0,11.535
	c1.592,1.592,3.681,2.389,5.768,2.389s4.175-0.797,5.768-2.389l44.776-44.777c1.897-1.897,2.739-4.605,2.254-7.243
	c-0.486-2.638-2.237-4.869-4.685-5.967l-17.428-7.813l40.301-40.301C297.562,279.27,297.562,274.106,294.377,270.921z"/>
<g>
</g>
<g>
</g>
<g>
</g>
<g>
</g>
<g>
</g>
<g>
</g>
<g>
</g>
<g>
</g>
<g>
</g>
<g>
</g>
<g>
</g>
<g>
</g>
<g>
</g>
<g>
</g>
<g>
</g>
</svg>
