<?xml version="1.0" encoding="iso-8859-1"?>
<!-- Generator: Adobe Illustrator 19.0.0, SVG Export Plug-In . SVG Version: 6.00 Build 0)  -->
<svg version="1.1" id="Layer_1" xmlns="http://www.w3.org/2000/svg" xmlns:xlink="http://www.w3.org/1999/xlink" x="0px" y="0px"
	 viewBox="0 0 512.002 512.002" style="enable-background:new 0 0 512.002 512.002;" xml:space="preserve">
<path style="fill:#EFBF8B;" d="M459.412,278.711c9.072,12.119,7.382,29.504-4.415,39.001c-12.372,9.98-30.447,7.623-39.887-4.99
	l-49.913-66.643l3.645-39.933l36.253,0.034L459.412,278.711z"/>
<path style="fill:#E5AE7B;" d="M365.197,246.08l49.913,66.643c7.307,9.764,19.788,13.376,30.793,9.883
	c-5.378-1.697-10.294-5.026-13.93-9.883l-73.055-98.251"/>
<g>
	<path style="fill:#EFBF8B;" d="M365.197,380.722v95.434c0,7.715-3.127,14.695-8.175,19.754c-5.163,5.151-12.326,8.302-20.237,8.175
		c-15.327-0.264-27.434-13.211-27.434-28.55v-94.813l27.584-17.914L365.197,380.722z"/>
	<path style="fill:#EFBF8B;" d="M274.132,380.722v95.434c0,15.764-13.05,28.481-28.941,27.906
		c-15.131-0.529-26.905-13.43-26.905-28.573v-94.767l32.988-19.639L274.132,380.722z"/>
</g>
<g>
	<path style="fill:#E5AE7B;" d="M234.487,475.489v-94.767l18.384-17.932l-8.65-7.264l-25.833,25.196v94.767
		c0,15.143,11.774,28.044,26.905,28.573c3.176,0.115,6.235-0.309,9.103-1.174C242.785,499.327,234.487,488.199,234.487,475.489z"/>
	<path style="fill:#E5AE7B;" d="M325.551,475.489v-94.767l18.384-17.932l-8.65-7.264l-25.833,25.196v94.767
		c0,15.143,11.774,28.044,26.905,28.573c3.176,0.115,6.235-0.309,9.103-1.174C333.85,499.327,325.551,488.199,325.551,475.489z"/>
</g>
<path style="fill:#EFBF8B;" d="M173.593,212.598l11.843-15.821l30.458,11.648l2.392,37.656l-16.868,22.525
	c-9.164,12.245-26.537,14.741-38.783,5.565l-42.761-34.379c-7.324-5.485-11.188-13.878-11.188-22.375
	c0-5.83,1.817-11.694,5.577-16.718c9.244-12.349,26.744-14.855,39.093-5.611L173.593,212.598z"/>
<g>
	<path style="fill:#E5AE7B;" d="M179.5,274.169l-42.761-34.379c-7.324-5.485-11.188-13.878-11.188-22.375
		c0-5.83,1.817-11.694,5.577-16.718c3.636-4.857,8.551-8.184,13.926-9.88c-11.006-3.49-23.479,0.114-30.789,9.88
		c-3.76,5.025-5.577,10.889-5.577,16.718c0,8.497,3.863,16.891,11.188,22.375l42.761,34.379c7.448,5.581,16.792,6.837,25.032,4.214
		C184.805,277.467,182.041,276.074,179.5,274.169z"/>
	<path style="fill:#E5AE7B;" d="M286.343,106.977c9.417,0,11.245,3.737,19.547,0.575l13.959,45.36l18.236,32.827
		c0,16.224-39.542,57.49-55.766,57.49c-8.106,0-32.631-23.433-37.944-28.745c-5.312-5.312-3.449-26.951-3.449-35.069l20.191-26.503
		l-6.968-32.712C262.45,123.361,276.926,106.977,286.343,106.977z"/>
</g>
<path style="fill:#FEE572;" d="M365.197,352.241v28.481h-55.846v-23.628c0-4.864-1.978-9.256-5.163-12.441
	c-3.449-3.449-8.336-5.485-13.683-5.117c-9.302,0.632-16.373,8.704-16.373,18.029v23.157h-55.846v-28.481v-42.807l68.057-35.161
	l78.854,35.161V352.241z"/>
<path style="fill:#FD6568;" d="M405.095,206.182l-39.898,39.898v63.354H218.286V246.08l-24.192-36.311l-8.601-12.901l-0.057-0.092
	l7.175-9.589c8.083-10.785,18.466-19.351,30.205-25.227c11.728-5.876,24.813-9.049,38.3-9.049v20.225
	c0,8.118,3.288,15.453,8.601,20.765c5.312,5.312,12.659,8.601,20.765,8.601c16.224,0,29.366-13.142,29.366-29.366v-20.225h2.518
	c26.963,0,52.339,12.705,68.505,34.276L405.095,206.182z"/>
<path style="fill:#7D7878;" d="M134.586,276.801c0,11.9-4.749,22.686-12.464,30.55c-7.934,8.106-18.995,13.142-31.229,13.142
	c-24.134,0-43.693-19.558-43.693-43.693c0-18.144,11.061-33.701,26.813-40.301c5.197-2.185,10.9-3.392,16.879-3.392
	c6.324,0,12.337,1.357,17.764,3.783l11.13,7.152C128.86,252.045,134.586,263.75,134.586,276.801z"/>
<g>
	<path style="fill:#666666;" d="M105.266,310.72c5.979,0,11.671-1.196,16.856-3.369c-7.934,8.106-18.995,13.142-31.229,13.142
		c-24.134,0-43.693-19.558-43.693-43.693c0-18.144,11.061-33.701,26.813-40.301c-7.704,7.876-12.441,18.65-12.441,30.527
		C61.574,291.162,81.132,310.72,105.266,310.72z"/>
	<path style="fill:#666666;" d="M355.251,43.829l-68.869,20.412l-60.667-20.412c13.154-22.03,37.231-36.794,64.768-36.794
		S342.097,21.799,355.251,43.829z"/>
</g>
<path style="fill:#E5AE7B;" d="M263.749,152.911c-28.435-10.785-48.648-38.277-48.648-70.495c0-2.208,0.092-4.392,0.287-6.542
	c0.701,0.103,1.414,0.149,2.139,0.149l68.854-11.782l77.045,11.782c0.736,0,1.449-0.046,2.15-0.149
	c0.195,2.15,0.287,4.335,0.287,6.542c0,32.218-20.214,59.709-48.648,70.495c-8.302,3.162-17.316,4.887-26.733,4.887
	S272.051,156.073,263.749,152.911z"/>
<path style="fill:#EFBF8B;" d="M365.956,82.417c0,32.218-20.202,59.709-48.637,70.495c-4.323,1.644-8.842,2.898-13.51,3.725
	c-4.668-0.816-9.187-2.081-13.51-3.725h-0.011c-28.435-10.785-48.648-38.277-48.648-70.495c0-2.208,0.092-4.392,0.287-6.542
	c0.701,0.103,1.426,0.149,2.15,0.149l57.421-15.177l62.032,15.177c0.724,0,1.437-0.046,2.139-0.149
	C365.864,78.025,365.956,80.209,365.956,82.417z"/>
<path style="fill:#7D7878;" d="M355.343,43.828l-53.776,10.866l-49.315-10.866c11.004-18.42,29.642-31.758,51.546-35.621
	C325.701,12.072,344.339,25.41,355.343,43.828z"/>
<path style="fill:#EAD26C;" d="M379.523,59.925c0,8.164-6.059,14.901-13.947,15.948c-0.701,0.103-1.414,0.149-2.15,0.149H217.527
	c-0.724,0-1.437-0.046-2.139-0.149c-3.599-0.471-6.807-2.127-9.244-4.565c-2.909-2.909-4.714-6.933-4.714-11.383
	c0-8.888,7.209-16.097,16.097-16.097h145.899c4.45,0,8.474,1.805,11.383,4.714C377.73,51.464,379.523,55.488,379.523,59.925z"/>
<path style="fill:#FEE572;" d="M379.523,59.925c0,8.164-6.059,14.901-13.947,15.948c-0.701,0.103-1.414,0.149-2.15,0.149H241.294
	c-0.724,0-1.437-0.046-2.139-0.149c-3.599-0.471-6.807-2.127-9.244-4.565c-2.909-2.909-4.714-6.933-4.714-11.383
	c0-8.888,7.209-16.097,16.097-16.097h122.132c4.45,0,8.474,1.805,11.383,4.714C377.73,51.464,379.523,55.488,379.523,59.925z"/>
<circle style="fill:#999999;" cx="111.763" cy="261.054" r="7.666"/>
<polygon style="fill:#EAD26C;" points="234.521,305.329 234.521,380.721 218.424,380.721 218.424,309.433 "/>
<path style="fill:#E0555C;" d="M218.424,245.911v63.523h16.097v-47.426C234.521,253.118,227.314,245.911,218.424,245.911
	L218.424,245.911z"/>
<path style="fill:#EAD26C;" d="M296.807,339.502c15.894,0,28.778,12.885,28.778,28.778v12.442l-0.034,0.012h-16.074v-23.628
	c0-4.864-1.978-9.256-5.163-12.441c-3.185-3.185-7.589-5.163-12.452-5.163L296.807,339.502L296.807,339.502z"/>
<path style="fill:#E0555C;" d="M261.243,152.923v17.351h-0.126c-11.119,0.023-21.95,2.553-31.735,7.232
	c-9.831,4.691-18.627,11.567-25.629,20.271l-9.658,11.992l-8.601-12.901l7.244-9.67c8.083-10.785,18.466-19.351,30.205-25.227
	c11.694-5.853,24.732-9.026,38.174-9.049L261.243,152.923L261.243,152.923z"/>
<polygon style="fill:#E5AE7B;" points="194.094,209.768 185.674,222.905 173.593,212.598 185.494,196.867 "/>
<path d="M465.557,274.672l-68.541-91.527c-13.567-18.103-33.367-30.541-55.175-35.212c19.263-15.184,31.664-38.702,31.664-65.078
	c0-0.377-0.02-0.744-0.024-1.12c8.069-3.746,13.69-11.905,13.69-21.371c0-12.997-10.574-23.571-23.571-23.571h-4.084
	C344.22,13.999,318.225,0,290.651,0s-53.568,13.999-68.865,36.794h-4.084c-12.997,0-23.571,10.574-23.571,23.571
	c0,9.466,5.621,17.624,13.69,21.371c-0.005,0.375-0.024,0.743-0.024,1.12c0,26.62,12.633,50.332,32.203,65.5
	c-7.048,1.656-13.903,4.123-20.364,7.36c-12.862,6.438-24.217,15.921-32.844,27.432l-14.21,18.988l-14.169-12.262
	c-0.133-0.116-0.27-0.227-0.412-0.332c-15.63-11.699-37.86-8.507-49.557,7.116c-4.623,6.178-7.067,13.508-7.067,21.197
	c0,2.815,0.344,5.596,0.997,8.289c-3.841-0.924-7.845-1.427-11.967-1.427c-28.214,0-51.166,22.952-51.166,51.166
	c0,28.214,22.952,51.166,51.166,51.166c11.922,0,23.531-4.191,32.687-11.8c3.175-2.639,3.609-7.351,0.97-10.525
	s-7.351-3.608-10.525-0.97c-6.478,5.385-14.693,8.349-23.133,8.349c-19.971,0-36.219-16.248-36.219-36.219
	s16.248-36.219,36.219-36.219s36.219,16.248,36.219,36.219c0,2.461-0.247,4.92-0.736,7.308c-0.827,4.044,1.781,7.992,5.825,8.819
	c4.044,0.826,7.992-1.781,8.819-5.825c0.69-3.372,1.039-6.838,1.039-10.302c0-3.236-0.315-6.397-0.892-9.467l17.436,14.018
	c0.067,0.053,0.133,0.105,0.201,0.156c7.521,5.635,16.788,8.001,26.09,6.668c9.304-1.336,17.529-6.214,23.156-13.734l3.411-4.556
	v206.961c0,19.216,15.305,35.384,34.109,36.042c9.696,0.356,18.883-3.16,25.857-9.886c6.983-6.734,10.828-15.786,10.828-25.489
	v-95.322c0-0.037,0.006-0.074,0.006-0.112s-0.005-0.074-0.006-0.112v-23.046c0-5.57,4.131-10.214,9.413-10.572
	c2.981-0.21,5.78,0.84,7.884,2.945c1.918,1.918,2.973,4.459,2.973,7.156v118.441c0,19.532,15.602,35.692,34.789,36.022
	c0.195,0.003,0.391,0.005,0.586,0.005c9.463,0,18.338-3.667,25.061-10.374c6.679-6.695,10.357-15.584,10.357-25.032V268.966
	l36.456,48.675c5.81,7.762,14.309,12.703,23.933,13.91c9.615,1.206,19.073-1.486,26.624-7.576
	C474.51,312.17,477.072,290.053,465.557,274.672z M268.759,162.755c6.978,1.914,14.314,2.957,21.892,2.957
	s14.914-1.043,21.892-2.957v10.822c0,12.072-9.822,21.892-21.892,21.892c-12.071,0-21.892-9.822-21.892-21.892V162.755z
	 M290.651,14.95c19.021,0,37.126,8.131,49.861,21.846H240.79C253.527,23.081,271.63,14.95,290.651,14.95z M222.772,83.938h103.983
	c4.128,0,7.474-3.346,7.474-7.474c0-4.128-3.346-7.474-7.474-7.474H217.702c-4.756,0-8.624-3.869-8.624-8.624
	s3.868-8.624,8.624-8.624h145.9c4.756,0,8.624,3.869,8.624,8.624s-3.868,8.624-8.624,8.624h-10.976
	c-4.128,0-7.474,3.346-7.474,7.474c0,4.128,3.346,7.474,7.474,7.474h5.907c-0.582,36.946-30.798,66.827-67.88,66.827
	S223.353,120.884,222.772,83.938z M195.598,264.567c-3.236,4.323-7.964,7.128-13.315,7.896c-5.309,0.761-10.601-0.574-14.908-3.762
	l-36.163-29.074l11.274-11.274c2.919-2.919,2.919-7.651,0-10.569c-2.918-2.918-7.651-2.918-10.569,0l-11.871,11.871
	c-2.402-3.398-3.722-7.476-3.722-11.797c0-4.435,1.413-8.668,4.086-12.24c6.707-8.959,19.416-10.843,28.435-4.253l17.434,15.087
	v16.387c0,4.128,3.346,7.474,7.474,7.474c4.128,0,7.474-3.346,7.474-7.474V215.53l4.02-5.372l24.057,36.106L195.598,264.567z
	 M290.162,332.52c-13.087,0.889-23.34,12.083-23.34,25.485v15.683h-22.279c-4.128,0-7.474,3.346-7.474,7.474
	c0,4.128,3.346,7.474,7.474,7.474h22.279v87.96c0,5.608-2.223,10.839-6.256,14.73c-4.027,3.883-9.34,5.91-14.95,5.706
	c-10.859-0.379-19.693-9.846-19.693-21.104V317.348h89.908c4.128,0,7.474-3.346,7.474-7.474c0-4.128-3.346-7.474-7.474-7.474
	h-89.908v-53.384l17.1-22.831c2.474-3.303,1.802-7.988-1.502-10.462c-3.302-2.474-7.988-1.802-10.462,1.502l-12.247,16.353
	l-24.063-36.114l4.006-5.352c7.239-9.66,16.773-17.622,27.572-23.027c8.558-4.286,17.938-6.963,27.485-7.888v12.382
	c0,20.314,16.526,36.84,36.84,36.84s36.84-16.526,36.84-36.84v-12.586c22.639,1.463,43.878,12.858,57.563,31.117l10.344,13.811
	l-22.557,22.557v-5.989c0-4.128-3.346-7.474-7.474-7.474s-7.474,3.346-7.474,7.474l-0.006,79.911h-14.46
	c-4.128,0-7.474,3.346-7.474,7.474c0,4.128,3.346,7.474,7.474,7.474h14.46v56.34H316.99v-16.155c0-6.69-2.611-12.985-7.352-17.727
	C304.507,334.678,297.41,332.019,290.162,332.52z M351.907,491.06c-3.963,3.954-9.25,6.073-14.829,5.993
	c-11.077-0.191-20.089-9.647-20.089-21.077v-87.339h40.899v87.96C357.886,482.058,355.759,487.199,351.907,491.06z M450.467,312.336
	c-4.367,3.523-9.833,5.082-15.383,4.383c-5.56-0.697-10.471-3.551-13.829-8.037l-46.028-61.455l29.221-29.221l49.144,65.624
	C460.337,292.641,458.939,305.517,450.467,312.336z"/>
<g>
</g>
<g>
</g>
<g>
</g>
<g>
</g>
<g>
</g>
<g>
</g>
<g>
</g>
<g>
</g>
<g>
</g>
<g>
</g>
<g>
</g>
<g>
</g>
<g>
</g>
<g>
</g>
<g>
</g>
</svg>
