<?xml version="1.0" encoding="iso-8859-1"?>
<!-- Generator: Adobe Illustrator 19.0.0, SVG Export Plug-In . SVG Version: 6.00 Build 0)  -->
<svg version="1.1" id="Layer_1" xmlns="http://www.w3.org/2000/svg" xmlns:xlink="http://www.w3.org/1999/xlink" x="0px" y="0px"
	 viewBox="0 0 512.002 512.002" style="enable-background:new 0 0 512.002 512.002;" xml:space="preserve">
<g>
	<path style="fill:#EFBF8B;" d="M329.289,380.721v95.434c0,7.715-3.127,14.694-8.175,19.754c-5.174,5.151-12.337,8.302-20.248,8.175
		c-15.327-0.264-27.423-13.211-27.423-28.55v-94.813l23.023-30.562L329.289,380.721z"/>
	<path style="fill:#EFBF8B;" d="M238.224,380.721v95.434c0,15.764-13.05,28.481-28.941,27.906
		c-15.131-0.529-26.905-13.43-26.905-28.573v-94.767l29.002-24.43L238.224,380.721z"/>
</g>
<g>
	<path style="fill:#E5AE7B;" d="M198.579,475.488v-94.767l18.384-17.932l-8.65-7.264L182.48,380.72v94.767
		c0,15.143,11.774,28.044,26.905,28.573c3.176,0.115,6.235-0.309,9.103-1.174C206.876,499.326,198.579,488.198,198.579,475.488z"/>
	<path style="fill:#E5AE7B;" d="M289.643,475.488v-94.767l18.384-17.932l-8.65-7.264l-25.833,25.196v94.767
		c0,15.143,11.774,28.044,26.905,28.573c3.176,0.115,6.235-0.309,9.103-1.174C297.94,499.326,289.643,488.198,289.643,475.488z"/>
</g>
<path style="fill:#FEE572;" d="M329.289,352.24v28.481h-55.846v-23.628c0-4.864-1.978-9.256-5.163-12.441
	c-3.461-3.449-8.348-5.485-13.694-5.117c-9.302,0.632-16.362,8.704-16.362,18.029v23.157h-55.846V352.24v-42.807l78.494-27.162
	l68.417,27.162L329.289,352.24L329.289,352.24z"/>
<path style="fill:#EFBF8B;" d="M132.258,152.91h23.284l19.811,19.412l-19.811,36.434h-43.555c-19.65,0-35.575-15.925-35.575-35.563
	v-41.646c0-7.715,3.127-14.694,8.175-19.742c5.059-5.059,12.038-8.187,19.754-8.187c15.419,0,27.917,12.51,27.917,27.929
	C132.258,131.547,132.258,152.91,132.258,152.91z"/>
<path style="fill:#E5AE7B;" d="M93.275,173.193v-41.646c0-7.715,3.127-14.695,8.175-19.742c3.131-3.131,6.999-5.519,11.32-6.887
	c-2.66-0.843-5.491-1.299-8.43-1.299c-7.715,0-14.695,3.127-19.754,8.187c-5.048,5.048-8.175,12.027-8.175,19.742v41.646
	c0,19.639,15.925,35.563,35.575,35.563h16.864C109.2,208.756,93.275,192.831,93.275,173.193z"/>
<path style="fill:#EFBF8B;" d="M435.255,131.547v41.646c0,19.639-15.925,35.563-35.563,35.563H355.93l-17.305-30.297l17.305-25.549
	h23.479v-21.363c0-7.715,3.127-14.695,8.175-19.742c5.059-5.059,12.038-8.187,19.754-8.187c2.909,0,5.726,0.448,8.371,1.276
	C427.033,108.459,435.255,119.048,435.255,131.547z"/>
<path style="fill:#E5AE7B;" d="M283.94,152.91l27.856,59.272c0,16.224-52.776,22.996-68.988,22.996
	c-8.118,0-36.081-16.151-41.393-21.463c-5.312-5.312-3.067-42.474-3.067-50.591l26.859-10.214l-3.096-31.945l24.529,0.767
	c8.302,3.162,12.812-17.63,22.229-17.63s-8.302,3.162,0,0L283.94,152.91z"/>
<path style="fill:#FD6568;" d="M355.93,152.91v55.846h-3.461c-12.797,0-23.18,10.383-23.18,23.18v77.497H182.378v-77.497
	c0-12.797-10.371-23.18-23.18-23.18h-3.656V152.91h69.667v20.225c0,8.118,3.288,15.453,8.601,20.765s12.648,8.601,20.765,8.601
	c16.212,0,29.366-13.142,29.366-29.366V152.91H355.93z"/>
<path style="fill:#666666;" d="M319.343,43.828l-68.87,20.412l-60.667-20.412c13.154-22.03,37.231-36.794,64.768-36.794
	S306.189,21.798,319.343,43.828z"/>
<path style="fill:#E5AE7B;" d="M227.841,152.91c-28.435-10.785-48.648-38.277-48.648-70.495c0-2.208,0.092-4.392,0.287-6.542
	c0.701,0.103,1.414,0.149,2.139,0.149l68.854-11.782l77.045,11.782c0.736,0,1.449-0.046,2.15-0.149
	c0.195,2.15,0.287,4.335,0.287,6.542c0,32.218-20.214,59.709-48.648,70.495c-8.302,3.162-17.316,4.887-26.733,4.887
	C245.157,157.797,236.143,156.072,227.841,152.91z"/>
<path style="fill:#EFBF8B;" d="M330.047,82.416c0,32.218-20.202,59.709-48.637,70.495c-4.323,1.644-8.842,2.898-13.51,3.725
	c-4.668-0.816-9.187-2.081-13.51-3.725h-0.011c-28.435-10.785-48.648-38.277-48.648-70.495c0-2.208,0.092-4.392,0.287-6.542
	c0.701,0.103,1.426,0.149,2.15,0.149l57.421-15.177l62.032,15.177c0.724,0,1.437-0.046,2.139-0.149
	C329.955,78.023,330.047,80.208,330.047,82.416z"/>
<path style="fill:#7D7878;" d="M319.435,43.828l-53.776,10.866l-49.315-10.866c11.004-18.42,29.642-31.758,51.546-35.621
	C289.793,12.071,308.431,25.408,319.435,43.828z"/>
<path style="fill:#EAD26C;" d="M343.615,59.926c0,8.164-6.059,14.901-13.947,15.948c-0.701,0.103-1.414,0.149-2.15,0.149H181.619
	c-0.724,0-1.437-0.046-2.139-0.149c-3.599-0.471-6.807-2.127-9.244-4.565c-2.909-2.909-4.714-6.933-4.714-11.383
	c0-8.888,7.209-16.097,16.097-16.097h145.899c4.45,0,8.474,1.805,11.383,4.714C341.821,51.463,343.615,55.487,343.615,59.926z"/>
<path style="fill:#FEE572;" d="M343.615,59.926c0,8.164-6.059,14.901-13.947,15.948c-0.701,0.103-1.414,0.149-2.15,0.149H205.386
	c-0.724,0-1.437-0.046-2.139-0.149c-3.599-0.471-6.807-2.127-9.244-4.565c-2.909-2.909-4.714-6.933-4.714-11.383
	c0-8.888,7.209-16.097,16.097-16.097h122.132c4.45,0,8.474,1.805,11.383,4.714C341.821,51.463,343.615,55.487,343.615,59.926z"/>
<polygon style="fill:#EAD26C;" points="198.579,305.328 198.579,380.721 182.481,380.721 182.481,309.433 "/>
<path style="fill:#E0555C;" d="M198.579,237.83v71.602h-16.097l-0.103-0.046v-77.451c0-12.797-10.371-23.18-23.18-23.18h-3.656
	v-1.127h12.835C185.057,207.629,198.579,221.151,198.579,237.83z"/>
<path style="fill:#EAD26C;" d="M260.865,339.501c15.894,0,28.778,12.885,28.778,28.778v12.442l-0.034,0.012h-16.074v-23.628
	c0-4.864-1.978-9.256-5.163-12.441c-3.185-3.185-7.589-5.163-12.452-5.163L260.865,339.501L260.865,339.501z"/>
<path style="fill:#E5AE7B;" d="M416.041,106.102c-13.545,0-24.525,10.981-24.525,24.525v22.283h-12.107v-21.363
	c0-7.715,3.127-14.695,8.175-19.742c5.059-5.059,12.038-8.187,19.754-8.187c2.909,0,5.726,0.448,8.371,1.276L416.041,106.102z"/>
<path d="M407.501,96.585c-19.518,0-35.397,15.879-35.397,35.397v13.895h-63.665c17.822-15.208,29.154-37.81,29.154-63.021
	c0-0.377-0.02-0.744-0.024-1.12c8.069-3.746,13.69-11.905,13.69-21.371c0-12.997-10.574-23.571-23.571-23.571h-4.084
	C308.307,13.999,282.312,0,254.739,0s-53.568,13.999-68.865,36.794h-4.084c-12.997,0-23.571,10.574-23.571,23.571
	c0,9.466,5.621,17.624,13.691,21.371c-0.005,0.375-0.024,0.742-0.024,1.119c0,25.211,11.332,47.812,29.154,63.021h-61.137V131.98
	c0-19.517-15.88-35.396-35.398-35.396s-35.397,15.879-35.397,35.397v41.645c0,23.735,19.31,43.045,43.045,43.045h47.216
	c8.659,0,15.705,7.045,15.705,15.704v243.553c0,19.216,15.305,35.384,34.109,36.042c9.703,0.348,18.883-3.16,25.857-9.886
	c6.983-6.734,10.828-15.786,10.828-25.489V358.004c0-5.571,4.127-10.215,9.401-10.572c2.978-0.205,5.787,0.844,7.896,2.946
	c1.918,1.918,2.973,4.459,2.973,7.156v118.441c0,19.532,15.597,35.692,34.777,36.022c0.195,0.003,0.391,0.005,0.586,0.005
	c9.455,0,18.332-3.664,25.072-10.374c6.679-6.695,10.357-15.584,10.357-25.032V232.376c0-8.659,7.045-15.704,15.705-15.704h47.216
	c23.735,0,43.045-19.31,43.045-43.045v-41.645C442.898,112.464,427.019,96.585,407.501,96.585z M232.848,162.754
	c6.978,1.914,14.314,2.957,21.892,2.957c7.578,0,14.914-1.043,21.892-2.957v10.822c0,12.072-9.822,21.892-21.892,21.892
	c-12.071,0-21.892-9.82-21.892-21.892V162.754z M254.739,14.949c19.021,0,37.126,8.131,49.861,21.846h-99.721
	C217.614,23.08,235.719,14.949,254.739,14.949z M186.86,83.937h94.443c4.128,0,7.474-3.346,7.474-7.474
	c0-4.128-3.346-7.474-7.474-7.474H181.79c-4.756,0-8.624-3.869-8.624-8.624s3.868-8.624,8.624-8.624h145.9
	c4.756,0,8.624,3.869,8.624,8.624s-3.868,8.624-8.624,8.624h-21.092c-4.128,0-7.474,3.346-7.474,7.474
	c0,4.128,3.346,7.474,7.474,7.474h16.021c-0.582,36.946-30.798,66.827-67.88,66.827S187.442,120.882,186.86,83.937z M84.056,173.626
	v-41.645c0-11.276,9.173-20.449,20.448-20.449s20.449,9.173,20.449,20.449v38.766c0,4.128,3.346,7.474,7.474,7.474
	s7.474-3.346,7.474-7.474v-9.923h8.34v40.899h-36.088C96.66,201.723,84.056,189.119,84.056,173.626z M316.011,491.053
	c-3.976,3.958-9.278,6.077-14.846,5.999c-11.071-0.191-20.078-9.646-20.078-21.077v-87.339h40.899v87.96
	C321.984,482.057,319.857,487.198,316.011,491.053z M321.984,232.376V302.4h-13.086c-4.128,0-7.474,3.346-7.474,7.474
	c0,4.128,3.346,7.474,7.474,7.474h13.087v56.34h-40.899v-16.155c0-6.69-2.611-12.985-7.36-17.735
	c-5.142-5.125-12.237-7.776-19.477-7.279c-13.081,0.889-23.328,12.083-23.328,25.485v15.683h-23.206
	c-4.128,0-7.474,3.346-7.474,7.474c0,4.128,3.346,7.474,7.474,7.474h23.205v87.96c0,5.608-2.223,10.839-6.256,14.73
	c-4.027,3.883-9.342,5.911-14.95,5.707c-10.859-0.379-19.693-9.846-19.693-21.104V317.347h91.281c4.128,0,7.474-3.346,7.474-7.474
	c0-4.128-3.346-7.474-7.474-7.474h-91.281v-70.024c0-15.607-11.728-28.519-26.833-30.405v-41.146H217.9v12.751
	c0,20.314,16.526,36.84,36.84,36.84c20.314,0,36.84-16.526,36.84-36.84v-12.751h57.043v41.17
	C333.612,203.968,321.984,216.835,321.984,232.376z M427.951,173.626c0,15.492-12.604,28.098-28.098,28.098H363.57v-40.899h8.535
	v9.923c0,4.128,3.346,7.474,7.474,7.474c4.128,0,7.474-3.346,7.474-7.474v-38.766c0-11.276,9.173-20.449,20.449-20.449
	c11.276,0,20.449,9.173,20.449,20.449V173.626z"/>
<g>
</g>
<g>
</g>
<g>
</g>
<g>
</g>
<g>
</g>
<g>
</g>
<g>
</g>
<g>
</g>
<g>
</g>
<g>
</g>
<g>
</g>
<g>
</g>
<g>
</g>
<g>
</g>
<g>
</g>
</svg>
