<?xml version="1.0" encoding="iso-8859-1"?>
<!-- Generator: Adobe Illustrator 19.0.0, SVG Export Plug-In . SVG Version: 6.00 Build 0)  -->
<svg version="1.1" id="Layer_1" xmlns="http://www.w3.org/2000/svg" xmlns:xlink="http://www.w3.org/1999/xlink" x="0px" y="0px"
	 viewBox="0 0 512.002 512.002" style="enable-background:new 0 0 512.002 512.002;" xml:space="preserve">
<g>
	<path style="fill:#EFBF8B;" d="M179.62,99.543l-0.036,35.803h0.036l34.839,16.299l23.125-16.299V36.292
		c0-16.362-13.545-29.561-30.038-28.964c-15.705,0.549-27.926,13.939-27.926,29.656V99.543z"/>
	<path style="fill:#EFBF8B;" d="M274.139,36.936v98.409l25.452,13.116l32.512-13.116V36.292c0-8.008-3.246-15.252-8.485-20.503
		c-5.358-5.347-12.793-8.616-21.004-8.485C286.693,7.578,274.139,21.016,274.139,36.936z"/>
</g>
<g>
	<path style="fill:#E5AE7B;" d="M196.34,36.984v98.361l19.082,18.613l-8.978,7.54l-26.813-26.151V36.984
		c0-15.717,12.221-29.107,27.926-29.656c3.296-0.119,6.472,0.321,9.448,1.218C204.951,12.242,196.34,23.792,196.34,36.984z"/>
	<path style="fill:#E5AE7B;" d="M290.858,36.984v98.361l19.082,18.613l-8.978,7.54l-26.813-26.151V36.984
		c0-15.717,12.221-29.107,27.926-29.656c3.296-0.119,6.472,0.321,9.448,1.218C299.47,12.242,290.858,23.792,290.858,36.984z"/>
</g>
<path style="fill:#FEE572;" d="M179.56,164.906v44.431h0.06l77.802,29.027l74.68-29.027v-44.431v-29.561h-57.964v24.525
	c0,5.048-2.053,9.607-5.358,12.913c-3.58,3.58-8.652,5.693-14.202,5.311c-9.667-0.656-16.994-9.034-16.994-18.713v-24.035H179.62
	h-0.036L179.56,164.906z"/>
<path style="fill:#C0E8F6;" d="M151.706,359.29l0.823,0.549l12.602,55.151c10.609-30.611,145.394-35.262,155.144-3.183l15.89-14.3
	l24.161-37.67l-21.732-32.258c-4.225-6.289-6.492-13.689-6.492-21.267v-96.977H179.62h-0.06v96.977
	c0,7.578-2.256,14.977-6.492,21.267L151.706,359.29z"/>
<path style="fill:#EFBF8B;" d="M85.603,457.437l66.103-98.147l0.823,0.549l28.093,28.093c10.609-30.611,39.705-52.594,73.932-52.594
	c35.277,0,65.101,23.343,74.851,55.422h0.012l30.909-30.921l65.733,97.598c9.595,12.805,6.982,30.969-5.824,40.564
	c-5.215,3.902-11.314,5.788-17.352,5.788c-8.819,0-17.531-4.01-23.224-11.612l-35.528-45.899
	c1.79-2.661-180.433-1.301-177.867,1.635l-34.263,44.264c-5.693,7.602-14.405,11.612-23.224,11.612
	c-6.039,0-12.137-1.886-17.352-5.788C78.621,488.406,76.007,470.242,85.603,457.437z"/>
<path style="fill:#666666;" d="M321.792,453.63l-70.722-13.044l-63.729,13.044c7.745,12.961,19.13,23.498,32.735,30.193
	c10.407,5.12,22.102,7.996,34.49,7.996s24.083-2.876,34.49-7.996C302.661,477.128,314.047,466.59,321.792,453.63z"/>
<path style="fill:#E5AE7B;" d="M226.82,340.41c-29.513,11.194-50.493,39.729-50.493,73.168c0,2.291,0.095,4.559,0.298,6.791
	c0.728-0.107,1.468-0.155,2.22-0.155l71.465,12.229l79.967-12.229c0.764,0,1.504,0.048,2.232,0.155
	c0.203-2.232,0.298-4.499,0.298-6.791c0-33.44-20.98-61.974-50.493-73.168c-8.616-3.282-17.973-5.072-27.747-5.072
	C244.792,335.338,235.436,337.128,226.82,340.41z"/>
<path style="fill:#EFBF8B;" d="M332.902,413.579c0-33.44-20.968-61.974-50.482-73.168c-4.487-1.707-9.177-3.007-14.023-3.867
	c-4.845,0.847-9.535,2.16-14.023,3.867h-0.012c-29.513,11.194-50.493,39.729-50.493,73.168c0,2.291,0.095,4.559,0.298,6.791
	c0.728-0.107,1.48-0.155,2.232-0.155L266,435.967l64.385-15.753c0.752,0,1.492,0.048,2.22,0.155
	C332.807,418.138,332.902,415.87,332.902,413.579z"/>
<path style="fill:#7D7878;" d="M321.887,453.63l-55.816-11.278l-51.186,11.278c11.421,19.119,30.766,32.962,53.501,36.972
	C291.121,486.592,310.466,472.748,321.887,453.63z"/>
<path style="fill:#EAD26C;" d="M166.278,447.913c3.043,3.509,7.554,5.716,12.567,5.716h8.497h134.45h8.485
	c4.607,0,8.784-1.874,11.815-4.893c0.752-0.752,1.432-1.575,2.041-2.47c1.79-2.661,2.852-5.884,2.852-9.344
	c0-8.473-6.301-15.467-14.476-16.553c-0.728-0.107-1.48-0.155-2.232-0.155H178.844c-0.752,0-1.492,0.048-2.22,0.155
	c-3.735,0.489-7.065,2.208-9.595,4.738c-3.019,3.031-4.893,7.208-4.893,11.815C162.136,441.123,163.7,444.966,166.278,447.913z"/>
<path style="fill:#FEE572;" d="M346.985,436.922c0-8.473-6.289-15.467-14.476-16.553c-0.728-0.107-1.468-0.155-2.232-0.155H203.512
	c-0.752,0-1.492,0.048-2.22,0.155c-3.735,0.489-7.065,2.208-9.595,4.738c-3.019,3.019-4.893,7.196-4.893,11.815
	c0,9.225,7.483,16.708,16.708,16.708h126.765c4.618,0,8.795-1.874,11.815-4.893C345.123,445.706,346.985,441.529,346.985,436.922z"
	/>
<polygon style="fill:#EAD26C;" points="196.364,217.679 196.364,135.345 179.62,135.345 179.596,164.906 179.596,209.337 
	179.656,209.337 "/>
<path style="fill:#AAD6E2;" d="M196.364,326.101V209.337h-16.768v96.989c0,7.566-2.267,14.977-6.492,21.255l-21.362,31.721
	l0.823,0.549l4.917,22.162L196.364,326.101z"/>
<path style="fill:#E5AE7B;" d="M164.559,371.845l-11.994-11.994l-0.823-0.549l-66.103,98.135
	c-5.884,7.853-7.172,17.722-4.344,26.386c1.778,5.466,5.215,10.466,10.168,14.178c5.215,3.902,11.314,5.788,17.352,5.788
	c-14.834-3.568-21.446-20.944-12.734-33.475L164.559,371.845z"/>
<path style="fill:#EAD26C;" d="M290.882,144.368v-9.022h-16.708v24.525c0,5.048-2.053,9.607-5.358,12.913
	c-3.043,3.043-7.137,5.012-11.672,5.323l0,0C275.777,178.106,290.882,163.001,290.882,144.368z"/>
<path d="M432.559,453.403l-87.362-129.708c-3.381-5.02-5.167-10.871-5.167-16.924l-0.058-269.334
	c0-19.944-15.886-36.726-35.402-37.409c-10.064-0.359-19.599,3.28-26.838,10.261c-7.246,6.99-11.238,16.386-11.238,26.456v123.09
	c0,5.78-4.288,10.601-9.761,10.977c-3.102,0.212-6.008-0.875-8.193-3.06c-1.991-1.991-3.086-4.628-3.086-7.428V37.387
	c0-20.274-16.192-37.042-36.097-37.381c-10.031-0.178-19.502,3.645-26.63,10.757c-6.934,6.948-10.752,16.176-10.752,25.982v270.026
	c0,6.053-1.787,11.904-5.169,16.924L79.442,453.404c-5.794,7.822-8.223,17.429-6.836,27.076c1.395,9.712,6.489,18.3,14.344,24.186
	c6.411,4.799,14.019,7.335,22.001,7.335c11.506,0,22.489-5.481,29.393-14.666l30.345-39.2c3.745,2.331,8.147,3.701,12.875,3.701
	h4.24c15.876,23.66,42.857,38.189,71.476,38.189c28.621,0,55.601-14.53,71.477-38.189h4.239c3.998,0,7.764-0.983,11.1-2.691
	l29.566,38.193c6.905,9.183,17.887,14.665,29.391,14.665c7.98,0,15.588-2.536,22.004-7.337c7.852-5.884,12.945-14.471,14.34-24.183
	C440.781,470.833,438.354,461.225,432.559,453.403z M288.501,21.456c4.179-4.03,9.671-6.133,15.517-5.923
	c11.269,0.394,20.438,10.219,20.438,21.904l0.025,90.604h-42.474V36.745C282.007,30.925,284.314,25.496,288.501,21.456z
	 M179.672,332.364c5.113-7.59,7.816-16.439,7.816-25.592v-89.225h99.545c4.284,0,7.757-3.473,7.757-7.757s-3.473-7.757-7.757-7.757
	h-99.545V36.745c0-5.669,2.209-11.005,6.207-15.012c4.117-4.108,9.621-6.31,15.396-6.215c11.495,0.196,20.847,10.006,20.847,21.869
	v90.656h-22.864c-4.284,0-7.757,3.473-7.757,7.757c0,4.284,3.473,7.757,7.757,7.757h22.864v16.768c0,6.943,2.71,13.476,7.63,18.398
	c5.326,5.325,12.686,8.084,20.225,7.569c13.579-0.931,24.214-12.551,24.214-26.454v-16.281h42.488l0.019,58.477h-10.032
	c-4.284,0-7.757,3.473-7.757,7.757s3.473,7.757,7.757,7.757h10.032v89.223c0,9.152,2.703,18.002,7.815,25.592l17.683,26.254
	l-16.222,16.222c-14.278-27.764-43.203-46.811-76.512-46.811c-34.301,0-63.966,20.194-77.76,49.312l-18.01-18.01L179.672,332.364z
	 M126.04,487.883c-0.025,0.032-0.05,0.066-0.075,0.098c-4.048,5.405-10.249,8.504-17.015,8.504c-4.603,0-8.997-1.467-12.702-4.239
	c-4.537-3.399-7.48-8.362-8.286-13.974c-0.806-5.61,0.622-11.198,4.018-15.73c0.076-0.104,0.153-0.21,0.226-0.319l60.472-89.783
	l21.09,21.09c-1.614,6.572-2.487,13.432-2.487,20.495c0,0.391,0.02,0.772,0.025,1.161c-8.375,3.888-14.21,12.357-14.21,22.182
	c0,2.963,0.556,5.792,1.525,8.423L126.04,487.883z M257.279,484.51c-19.743,0-38.534-8.44-51.751-22.675h103.504
	C295.813,476.07,277.023,484.51,257.279,484.51z M181.562,446.32c-4.936,0-8.951-4.016-8.951-8.951c0-4.935,4.015-8.951,8.951-8.951
	h106.665c4.284,0,7.757-3.473,7.757-7.757s-3.473-7.757-7.757-7.757H186.825c0.604-38.347,31.967-69.361,70.455-69.361
	c38.489,0,69.852,31.015,70.456,69.361h-13.253c-4.284,0-7.757,3.473-7.757,7.757s3.473,7.757,7.757,7.757h18.515
	c4.936,0,8.951,4.016,8.951,8.951c0,4.935-4.015,8.951-8.951,8.951H181.562z M424.039,478.274
	c-0.807,5.611-3.749,10.575-8.281,13.97c-3.708,2.775-8.101,4.241-12.705,4.241c-6.766,0-12.966-3.099-17.015-8.504
	c-0.025-0.033-0.05-0.066-0.075-0.099l-30.931-39.957c1.541-3.202,2.429-6.773,2.429-10.557c0-9.824-5.835-18.293-14.209-22.181
	c0.005-0.389,0.025-0.771,0.025-1.162c0-8.131-1.159-15.992-3.277-23.454l18.843-18.844l60.951,90.496
	c0.074,0.107,0.148,0.214,0.226,0.319C423.418,467.076,424.846,472.663,424.039,478.274z"/>
<g>
</g>
<g>
</g>
<g>
</g>
<g>
</g>
<g>
</g>
<g>
</g>
<g>
</g>
<g>
</g>
<g>
</g>
<g>
</g>
<g>
</g>
<g>
</g>
<g>
</g>
<g>
</g>
<g>
</g>
</svg>
