<?xml version="1.0" encoding="iso-8859-1"?>
<!-- Generator: Adobe Illustrator 19.0.0, SVG Export Plug-In . SVG Version: 6.00 Build 0)  -->
<svg version="1.1" id="Layer_1" xmlns="http://www.w3.org/2000/svg" xmlns:xlink="http://www.w3.org/1999/xlink" x="0px" y="0px"
	 viewBox="0 0 512.002 512.002" style="enable-background:new 0 0 512.002 512.002;" xml:space="preserve">
<path d="M417.286,224.195c-6.584,0-13.012,0.679-19.22,1.964l-31.51-108.955c-3.206-11.085-13.503-18.826-25.042-18.826h-32.248
	c-4.034,0-7.304,3.27-7.304,7.304s3.27,7.304,7.304,7.304h32.248c5.072,0,9.599,3.404,11.009,8.277l9.71,33.575H160.954v-12.714
	h25.806c4.034,0,7.304-3.27,7.304-7.304c0-4.034-3.27-7.304-7.304-7.304h-64.895c-4.034,0-7.304,3.27-7.304,7.304
	c0,4.034,3.27,7.304,7.304,7.304h24.481v18.691l-25.244,67.151c-8.383-2.436-17.23-3.769-26.389-3.769
	C42.488,224.197,0,266.686,0,318.91s42.489,94.713,94.713,94.713c49.765,0,90.659-38.588,94.404-87.41h28.789
	c2.964,15.34,15.078,27.453,30.419,30.418v11.083h-11.424c-4.034,0-7.304,3.27-7.304,7.304s3.27,7.304,7.304,7.304h18.728
	c4.034,0,7.304-3.27,7.304-7.304v-18.4c5.652-1.083,10.984-3.401,15.681-6.912c3.231-2.414,3.892-6.991,1.479-10.223
	c-2.415-3.231-6.993-3.892-10.223-1.478c-2.126,1.589-4.464,2.786-6.935,3.58v-22.677c0-4.034-3.27-7.304-7.304-7.304
	c-4.034,0-7.304,3.27-7.304,7.304v22.663c-9.57-3.092-16.516-12.077-16.516-22.663c0-13.134,10.685-23.819,23.819-23.819
	c13.133,0,23.819,10.685,23.819,23.819c0,4.034,3.27,7.304,7.304,7.304c4.034,0,7.304-3.27,7.304-7.304
	c0-6.545-1.648-12.711-4.546-18.11l87.475-94.954l7.054,24.39c-35.87,13.494-61.465,48.144-61.465,88.674
	c0,52.226,42.489,94.713,94.713,94.713s94.714-42.489,94.714-94.713S469.511,224.195,417.286,224.195z M94.713,399.014
	c-44.171,0-80.106-35.935-80.106-80.106s35.935-80.106,80.106-80.106c7.351,0,14.465,1.016,21.233,2.878l-28.067,74.658
	c-0.843,2.243-0.533,4.758,0.832,6.727c1.364,1.97,3.608,3.146,6.005,3.146h79.756C170.769,366.971,136.42,399.014,94.713,399.014z
	 M129.619,246.82c24.651,11.985,42.26,36.247,44.852,64.785h-69.206L129.619,246.82z M280.176,289.368
	c-5.789-4.819-13.012-7.969-20.925-8.712l-42.84-52.784c-2.542-3.133-7.141-3.61-10.274-1.069c-3.132,2.542-3.61,7.141-1.069,10.274
	l37.18,45.809c-12.397,4.621-21.781,15.466-24.342,28.716h-28.789c-2.668-34.781-24.185-64.354-54.345-78.493l21.234-56.483
	l33.911,41.782c1.444,1.779,3.551,2.701,5.676,2.701c1.617,0,3.245-0.535,4.598-1.633c3.132-2.542,3.61-7.141,1.069-10.274
	l-32.27-39.761h197.468l5.781,19.99L280.176,289.368z M417.286,399.014c-44.171,0-80.106-35.935-80.106-80.106
	c0-33.88,21.151-62.891,50.933-74.583l22.156,76.611c0.925,3.198,3.843,5.277,7.013,5.277c0.672,0,1.355-0.093,2.033-0.289
	c3.876-1.121,6.108-5.171,4.987-9.045l-22.16-76.622c4.907-0.943,9.966-1.455,15.144-1.455c44.171,0,80.106,35.935,80.106,80.106
	S461.457,399.014,417.286,399.014z"/>
<g>
</g>
<g>
</g>
<g>
</g>
<g>
</g>
<g>
</g>
<g>
</g>
<g>
</g>
<g>
</g>
<g>
</g>
<g>
</g>
<g>
</g>
<g>
</g>
<g>
</g>
<g>
</g>
<g>
</g>
</svg>
