<?xml version="1.0" encoding="iso-8859-1"?>
<!-- Generator: Adobe Illustrator 19.0.0, SVG Export Plug-In . SVG Version: 6.00 Build 0)  -->
<svg version="1.1" id="Layer_1" xmlns="http://www.w3.org/2000/svg" xmlns:xlink="http://www.w3.org/1999/xlink" x="0px" y="0px"
	 viewBox="0 0 512 512" style="enable-background:new 0 0 512 512;" xml:space="preserve">
<g>
	<path style="fill:#E0555C;" d="M70.999,333.225v114.938c0,12.003-9.734,21.748-21.748,21.748c-12.003,0-21.737-9.745-21.737-21.748
		V333.225H70.999z"/>
	<path style="fill:#E0555C;" d="M484.157,333.225v114.938c0,12.003-9.745,21.748-21.748,21.748
		c-12.014,0-21.748-9.745-21.748-21.748V333.225H484.157z"/>
</g>
<g>
	<path style="fill:#FD6568;" d="M471.244,357.414v82.329c0,8.598-3.959,15.577-8.835,15.577c-4.881,0-8.835-6.981-8.835-15.577
		v-82.329H471.244z"/>
	<path style="fill:#FD6568;" d="M58.092,357.414v82.329c0,8.598-3.959,15.577-8.835,15.577c-4.881,0-8.835-6.981-8.835-15.577
		v-82.329H58.092z"/>
</g>
<path d="M504.513,326.173h-34.03v-77.52c0-100.984-70.15-185.89-164.279-208.55c-16.11-3.877-32.921-5.932-50.203-5.932
	c-14.918,0-29.487,1.531-43.554,4.444C114.991,58.796,41.517,145.305,41.517,248.653v77.52H7.487c-4.135,0-7.487,3.352-7.487,7.487
	s3.352,7.487,7.487,7.487h12.704v81.038c0,4.135,3.352,7.487,7.487,7.487s7.487-3.352,7.487-7.487v-81.038h28.515v107.45
	c0,7.862-6.395,14.257-14.257,14.257s-14.257-6.395-14.257-14.257c0-4.135-3.352-7.487-7.487-7.487s-7.487,3.352-7.487,7.487
	c0,16.119,13.113,29.232,29.232,29.232s29.232-13.113,29.232-29.232v-107.45h12.704c4.135,0,7.487-3.352,7.487-7.487
	s-3.352-7.487-7.487-7.487H56.492v-77.52c0-78.987,46.141-147.398,112.884-179.701c-23.953,22.874-38.907,55.094-38.907,90.75
	c0,69.217,56.313,125.531,125.531,125.531s125.531-56.313,125.531-125.531c0-35.651-14.946-67.869-38.892-90.742
	c66.734,32.305,112.868,100.712,112.868,179.693v77.52h-34.868c-4.135,0-7.487,3.352-7.487,7.487s3.352,7.487,7.487,7.487h12.704
	v37.266c0,4.135,3.352,7.487,7.487,7.487s7.487-3.352,7.487-7.487v-37.266h28.515v107.45c0,7.862-6.397,14.257-14.257,14.257
	c-7.861,0-14.257-6.395-14.257-14.257v-41.386c0-4.135-3.352-7.487-7.487-7.487s-7.487,3.352-7.487,7.487v41.386
	c0,16.119,13.113,29.232,29.232,29.232c16.119,0,29.232-13.113,29.232-29.232v-107.45h12.704c4.135,0,7.487-3.352,7.487-7.487
	S508.648,326.173,504.513,326.173z M366.556,159.702c0,60.961-49.596,110.556-110.556,110.556s-110.556-49.596-110.556-110.556
	S195.039,49.145,255.999,49.145C316.961,49.145,366.556,98.741,366.556,159.702z"/>
<g>
</g>
<g>
</g>
<g>
</g>
<g>
</g>
<g>
</g>
<g>
</g>
<g>
</g>
<g>
</g>
<g>
</g>
<g>
</g>
<g>
</g>
<g>
</g>
<g>
</g>
<g>
</g>
<g>
</g>
</svg>
