<?xml version="1.0" encoding="iso-8859-1"?>
<!-- Generator: Adobe Illustrator 19.0.0, SVG Export Plug-In . SVG Version: 6.00 Build 0)  -->
<svg version="1.1" id="Layer_1" xmlns="http://www.w3.org/2000/svg" xmlns:xlink="http://www.w3.org/1999/xlink" x="0px" y="0px"
	 viewBox="0 0 511.999 511.999" style="enable-background:new 0 0 511.999 511.999;" xml:space="preserve">
<path style="fill:#E0555C;" d="M350.161,186.129v288.738c0,16.18-13.115,29.295-29.295,29.295H190.808
	c-16.18,0-29.295-13.115-29.295-29.295V186.129c0-16.18,13.115-29.295,29.295-29.295h130.057
	C337.046,156.833,350.161,169.948,350.161,186.129z"/>
<path style="fill:#FD6568;" d="M302.304,186.129v288.738c0,16.18-13.115,29.295-29.295,29.295h-82.2
	c-16.18,0-29.295-13.115-29.295-29.295V186.129c0-16.18,13.115-29.295,29.295-29.295h82.2
	C289.189,156.833,302.304,169.948,302.304,186.129z"/>
<path style="fill:#F98086;" d="M213.677,376.657L213.677,376.657c-11.327,0-20.51-9.183-20.51-20.51V218.273
	c0-11.327,9.183-20.51,20.51-20.51l0,0c11.327,0,20.51,9.183,20.51,20.51v137.874C234.187,367.474,225.005,376.657,213.677,376.657z
	"/>
<path d="M324.511,150.031L263.406,42.473V7.406C263.406,3.316,260.091,0,256,0c-4.091,0-7.406,3.316-7.406,7.406v35.068
	l-61.104,107.558c-18.61,1.759-33.22,17.469-33.22,36.532v224.402c0,4.091,3.316,7.406,7.406,7.406s7.406-3.316,7.406-7.406V186.563
	c0-12.069,9.819-21.888,21.888-21.888h57.623v13.75c0,4.091,3.316,7.406,7.406,7.406c4.091,0,7.406-3.316,7.406-7.406v-13.75h16.845
	c10.052,0,18.23,8.178,18.23,18.23v15.922c0,4.091,3.316,7.406,7.406,7.406s7.406-3.316,7.406-7.406v-15.922
	c0-6.734-2.029-13-5.502-18.23h13.237c12.07,0,21.889,9.819,21.889,21.888v288.735c0,12.069-9.819,21.888-21.889,21.888h-14.675
	c4.358-5.958,6.94-13.296,6.94-21.228v-12.923c0-4.091-3.316-7.406-7.406-7.406s-7.406,3.316-7.406,7.406v12.923
	c0,11.704-9.522,21.228-21.228,21.228h-86.284c-12.069,0-21.888-9.819-21.888-21.888v-31.861c0-4.091-3.316-7.406-7.406-7.406
	c-4.091,0-7.406,3.316-7.406,7.406v31.861c0,20.237,16.464,36.701,36.701,36.701h130.06c20.238,0,36.702-16.464,36.702-36.701
	V186.563C357.73,167.501,343.12,151.791,324.511,150.031z M204.621,149.862l43.973-77.4v77.4H204.621z M263.406,72.461l43.973,77.4
	h-43.973V72.461z"/>
<path d="M298.481,428.151c0,4.091,3.316,7.406,7.406,7.406s7.406-3.316,7.406-7.406v-41.557c0-4.091-3.316-7.406-7.406-7.406
	s-7.406,3.316-7.406,7.406V428.151z"/>
<path d="M298.481,351.71c0,4.091,3.316,7.406,7.406,7.406s7.406-3.316,7.406-7.406v-41.558c0-4.091-3.316-7.406-7.406-7.406
	s-7.406,3.316-7.406,7.406V351.71z"/>
<path d="M305.888,282.673c4.091,0,7.406-3.316,7.406-7.406V233.71c0-4.091-3.316-7.406-7.406-7.406s-7.406,3.316-7.406,7.406v41.557
	C298.481,279.358,301.797,282.673,305.888,282.673z"/>
<g>
</g>
<g>
</g>
<g>
</g>
<g>
</g>
<g>
</g>
<g>
</g>
<g>
</g>
<g>
</g>
<g>
</g>
<g>
</g>
<g>
</g>
<g>
</g>
<g>
</g>
<g>
</g>
<g>
</g>
</svg>
