<?xml version="1.0" encoding="iso-8859-1"?>
<!-- Generator: Adobe Illustrator 19.0.0, SVG Export Plug-In . SVG Version: 6.00 Build 0)  -->
<svg version="1.1" id="Layer_1" xmlns="http://www.w3.org/2000/svg" xmlns:xlink="http://www.w3.org/1999/xlink" x="0px" y="0px"
	 viewBox="0 0 512.002 512.002" style="enable-background:new 0 0 512.002 512.002;" xml:space="preserve">
<path style="fill:#EFBF8B;" d="M175.743,319.467l42.124,23.434l-21.097,23.34h-81.749c-12.92,0-23.387-10.467-23.387-23.387
	c0-6.46,2.617-12.313,6.845-16.541c4.229-4.229,10.081-6.845,16.541-6.845L175.743,319.467L175.743,319.467z"/>
<path style="fill:#E5AE7B;" d="M115.572,352.763h79.346l15.013-15.393l6.081,7.243l-21.096,21.629h-79.345
	c-12.678,0-23.48-9.858-23.923-22.527c-0.096-2.659,0.258-5.221,0.984-7.621C95.614,345.816,104.93,352.763,115.572,352.763z"/>
<path style="fill:#EFBF8B;" d="M318.365,400.713v79.868c0,6.46-2.617,12.301-6.845,16.53c-4.322,4.322-10.315,6.951-16.938,6.845
	c-12.838-0.222-22.955-11.063-22.955-23.889v-66.411c0-4.322-0.584-8.516-1.67-12.499l5.152-20.875l16.354,0.584L318.365,400.713z"
	/>
<path style="fill:#E5AE7B;" d="M283.433,480.021v-79.346l15.393-15.013l-7.243-6.081l-21.629,21.096v79.346
	c0,12.678,9.858,23.48,22.527,23.923c2.659,0.096,5.221-0.258,7.621-0.984C290.38,499.98,283.433,490.663,283.433,480.021z"/>
<path style="fill:#666666;" d="M310.06,144.08l-57.049,10.523l-51.408-10.523c6.247-10.455,15.432-18.956,26.407-24.356
	c8.394-4.129,17.829-6.449,27.822-6.449c9.994,0,19.427,2.32,27.822,6.449C294.629,125.124,303.813,133.625,310.06,144.08z"/>
<path style="fill:#7D7878;" d="M310.137,144.08l-45.025,9.098l-41.29-9.098c9.213-15.422,24.818-26.59,43.157-29.825
	C285.319,117.49,300.925,128.657,310.137,144.08z"/>
<path style="fill:#FEE572;" d="M318.365,324.887v75.826h-46.75l-1.659,0.444c-5.479-20.128-23.877-34.917-45.746-34.917h-27.44
	l-6.063-13.481l-14.964-33.293h19.614l79.225-20.373L318.365,324.887z"/>
<path style="fill:#FD6568;" d="M341.121,219.682l-17.523,26.015c-3.411,5.07-5.233,11.039-5.233,17.149v62.042l-110.824-4.883
	l-12.184-0.537v-56.621c0-6.11-1.822-12.079-5.233-17.149l-17.219-25.571l-0.047-20.828l-0.07-25.676
	c8.551,24.683,55.441,29.683,83.045,29.683c28.445,0,61.049-2.757,68.922-28.62L341.121,219.682z"/>
<path style="fill:#EFBF8B;" d="M398.162,132.396c-0.724,3.026-2.056,5.946-4.03,8.586l-53.012,78.7l-24.929-24.929
	c-7.873,25.863-31.914,44.694-60.359,44.694c-27.604,0-51.072-17.733-59.623-42.416l-15.034,15.034l-7.616,7.616l-0.654,0.444
	L119.6,140.982c-1.963-2.617-3.294-5.502-4.019-8.493c-0.783-3.259-0.853-6.624-0.234-9.871c0.491-2.582,1.413-5.082,2.757-7.395
	c1.53-2.64,3.598-5.011,6.191-6.951c3.318-2.488,7.079-3.948,10.911-4.451c1.016-0.14,2.044-0.21,3.072-0.21
	c5.07,0,10.093,1.635,14.228,4.801c1.67,1.273,3.189,2.792,4.497,4.556l27.639,35.699c-2.079,2.36,75.861,7.418,75.861,7.418
	s68.992-3.948,67.544-6.098l28.667-37.019c0.911-1.215,1.916-2.313,2.991-3.306c4.381-3.972,10.035-6.051,15.735-6.051
	c4.871,0,9.789,1.519,13.995,4.661C397.111,114.032,400.253,123.611,398.162,132.396z"/>
<path style="fill:#E5AE7B;" d="M233.449,235.41c-23.807-9.03-40.732-32.048-40.732-59.023c0-1.848,0.077-3.677,0.241-5.478
	c0.588,0.086,1.185,0.125,1.791,0.125l57.649-9.864l64.506,9.864c0.616,0,1.213-0.039,1.8-0.125c0.164,1.8,0.241,3.63,0.241,5.478
	c0,26.974-16.924,49.993-40.732,59.023c-6.951,2.647-14.498,4.091-22.382,4.091S240.4,238.057,233.449,235.41z"/>
<path style="fill:#EFBF8B;" d="M319.023,176.387c0,26.974-16.914,49.993-40.721,59.023c-3.62,1.376-7.403,2.426-11.311,3.119
	c-3.909-0.683-7.692-1.743-11.311-3.119h-0.009c-23.807-9.03-40.732-32.048-40.732-59.023c0-1.848,0.077-3.677,0.241-5.478
	c0.588,0.086,1.194,0.125,1.8,0.125l48.077-12.707l51.937,12.707c0.606,0,1.203-0.039,1.791-0.125
	C318.946,172.709,319.023,174.539,319.023,176.387z"/>
<path style="fill:#EAD26C;" d="M184.612,148.691c2.454-2.83,6.094-4.611,10.137-4.611h6.855h108.456h6.844
	c3.716,0,7.085,1.512,9.531,3.947c0.606,0.606,1.155,1.271,1.646,1.993c1.444,2.147,2.301,4.746,2.301,7.538
	c0,6.835-5.083,12.476-11.677,13.352c-0.588,0.086-1.194,0.125-1.8,0.125H194.751c-0.606,0-1.203-0.039-1.791-0.125
	c-3.013-0.395-5.7-1.781-7.74-3.822c-2.436-2.445-3.947-5.815-3.947-9.531C181.272,154.168,182.533,151.069,184.612,148.691z"/>
<path style="fill:#FEE572;" d="M330.383,157.557c0,6.835-5.073,12.476-11.677,13.352c-0.588,0.086-1.185,0.125-1.8,0.125H214.648
	c-0.606,0-1.203-0.039-1.791-0.125c-3.013-0.395-5.7-1.781-7.74-3.822c-2.436-2.436-3.947-5.805-3.947-9.531
	c0-7.441,6.036-13.477,13.477-13.477h102.257c3.725,0,7.095,1.512,9.531,3.947C328.882,150.472,330.383,153.841,330.383,157.557z"/>
<path style="fill:#EAD26C;" d="M235.518,352.76c26.465,0,47.918,21.453,47.918,47.918l0,0l-0.105,0.035h-11.717l-1.659,0.444
	c-5.479-20.128-23.877-34.917-45.746-34.917h-27.44l-6.063-13.481L235.518,352.76L235.518,352.76z"/>
<path style="fill:#E0555C;" d="M207.54,268.898v51.106l-12.184-0.537v-56.621c0-6.11-1.822-12.079-5.233-17.149l-17.219-25.571
	l-0.047-20.828l25.771,39.581C204.445,247.811,207.54,258.239,207.54,268.898z"/>
<path style="fill:#E5AE7B;" d="M135.207,103.822L135.207,103.822c-3.832,0.502-7.593,1.963-10.911,4.451
	c-2.593,1.939-4.661,4.311-6.191,6.951c-0.356,0.613-0.679,1.242-0.975,1.878c-0.111,0.237-0.202,0.482-0.304,0.723
	c-0.174,0.409-0.347,0.817-0.496,1.234c-0.102,0.283-0.187,0.57-0.278,0.855c-0.121,0.383-0.241,0.767-0.341,1.156
	c-0.081,0.307-0.148,0.616-0.216,0.925c-0.046,0.208-0.106,0.414-0.146,0.623l0.019,0.029c-0.612,3.237-0.57,6.593,0.215,9.842
	c0.724,2.991,2.056,5.876,4.019,8.493l53.304,79.144l0.654-0.444l7.616-7.616l-37.823-58.823
	C133.935,138.599,130.988,120.714,135.207,103.822z"/>
<path d="M403.097,47.587V7.593c0-4.194-3.399-7.593-7.593-7.593s-7.593,3.399-7.593,7.593v39.992
	c-22.206,3.639-39.206,22.953-39.206,46.172c0,5.07,0.801,10.012,2.382,14.752c-0.079,0.103-0.165,0.2-0.243,0.305l-23.741,30.657
	c-2.989-1.63-6.413-2.557-10.051-2.557h-2.702c-13.1-19.097-35.069-30.795-58.352-30.795s-45.254,11.697-58.352,30.795h-2.702
	c-3.047,0-5.935,0.664-8.552,1.832l-23.18-29.931c-5.899-7.849-14.921-12.349-24.764-12.349c-6.717,0-13.124,2.134-18.535,6.176
	c-6.619,4.957-10.912,12.193-12.089,20.379c-0.051,0.354-0.088,0.709-0.126,1.063c-13.131-3.849-22.81-16.066-22.81-30.328
	c0-17.43,14.182-31.611,31.612-31.611c12.559,0,23.929,7.438,28.965,18.948c1.681,3.842,6.161,5.593,10.001,3.913
	c3.842-1.681,5.593-6.157,3.913-10.001c-6.423-14.682-19.815-24.867-35.29-27.409V7.593c0-4.194-3.399-7.593-7.593-7.593
	c-4.194,0-7.593,3.399-7.593,7.593v39.994c-22.202,3.642-39.199,22.955-39.199,46.171c0,23.495,17.738,43.243,40.522,46.345
	c0.902,1.998,2.015,3.915,3.349,5.718l70.421,104.564c2.577,3.83,3.939,8.295,3.939,12.911v49.026h-72.746
	c-17.081,0-30.979,13.897-30.979,30.979s13.897,30.978,30.979,30.978h109.195c21.957,0,39.819,17.863,39.819,39.819v66.421
	c0,17.069,13.645,31.191,30.427,31.481c0.171,0.002,0.341,0.004,0.512,0.004c8.289,0,16.055-3.21,21.918-9.072
	c5.848-5.848,9.069-13.626,9.069-21.899V263.294c0-4.614,1.362-9.078,3.938-12.907L400.5,145.818
	c10.084-13.648,7.263-32.975-6.35-43.18c-5.404-4.037-11.815-6.171-18.54-6.171c-3.966,0-7.794,0.743-11.344,2.128
	c-0.244-1.59-0.373-3.203-0.373-4.839c0-17.43,14.182-31.611,31.612-31.611s31.611,14.18,31.611,31.611
	c0,7.233-2.375,14.036-6.87,19.673c-2.613,3.279-2.073,8.057,1.204,10.671c1.398,1.114,3.069,1.655,4.729,1.655
	c2.231,0,4.443-0.98,5.942-2.86c6.565-8.236,10.181-18.584,10.181-29.14C442.298,70.54,425.3,51.227,403.097,47.587z
	 M255.997,121.306c14.476,0,28.3,5.765,38.539,15.609h-77.079C227.696,127.071,241.521,121.306,255.997,121.306z M317.052,152.101
	c3.242,0,5.879,2.638,5.879,5.879c0,3.242-2.638,5.879-5.879,5.879H302.73c-4.194,0-7.593,3.399-7.593,7.593
	s3.399,7.593,7.593,7.593h8.708c-1.182,29.564-25.591,53.255-55.44,53.255s-54.258-23.691-55.44-53.255h75.305
	c4.194,0,7.593-3.399,7.593-7.593s-3.399-7.593-7.593-7.593h-80.92c-3.242,0-5.879-2.638-5.879-5.879
	c0-3.242,2.638-5.879,5.879-5.879H317.052z M125.842,136.875c-2.527-3.368-3.587-7.52-2.988-11.69
	c0.6-4.172,2.787-7.859,6.154-10.379c2.758-2.062,6.022-3.151,9.439-3.151c5.034,0,9.643,2.301,12.645,6.314
	c0.025,0.033,0.05,0.067,0.075,0.099l24.443,31.564c-1.111,2.562-1.734,5.383-1.734,8.349c0,8.147,4.656,15.213,11.44,18.716
	c0,0.036-0.002,0.071-0.002,0.107c0,6.409,0.873,12.615,2.479,18.521l-13.489,13.489l-48.238-71.626
	C125.994,137.083,125.918,136.977,125.842,136.875z M99.393,343.297c0-8.708,7.084-15.793,15.792-15.793h55.812l14.199,31.584
	h-70.011C106.478,359.089,99.393,352.005,99.393,343.297z M306.317,492.189c-3.049,3.05-7.112,4.688-11.439,4.622
	c-8.543-0.147-15.493-7.459-15.493-16.297v-66.421c0-1.804-0.093-3.586-0.264-5.346h31.816v72.281
	C310.937,485.247,309.296,489.21,306.317,492.189z M317.465,241.907c-4.27,6.347-6.528,13.742-6.528,21.387V317.4l-7.899-0.348
	c-4.215-0.192-7.736,3.062-7.92,7.251c-0.183,4.189,3.062,7.736,7.252,7.92l8.567,0.377v60.961h-35.543
	c-8.154-20.187-27.941-34.474-51.015-34.474h-22.533l-14.199-31.584h7.666c0.009,0,0.019-0.001,0.028-0.001l82.597,3.641
	c0.114,0.005,0.227,0.008,0.34,0.008c4.04,0,7.4-3.183,7.58-7.259c0.183-4.189-3.062-7.736-7.252-7.92l-75.491-3.328v-49.351
	c0-7.646-2.257-15.041-6.528-21.39l-13.641-20.255l11.009-11.009c12.012,21.937,35.316,36.848,62.04,36.848
	c27.522,0,51.404-15.822,63.073-38.838l12.427,12.427L317.465,241.907z M385.047,114.797c6.96,5.218,8.384,15.124,3.173,22.082
	c-0.075,0.102-0.148,0.204-0.22,0.31l-47.86,71.054l-15.333-15.333c1.211-5.177,1.873-10.564,1.873-16.104
	c0-0.036-0.002-0.071-0.002-0.107c6.784-3.503,11.44-10.57,11.44-18.716c0-2.292-0.38-4.493-1.06-6.56l25.827-33.352
	c0.025-0.033,0.05-0.065,0.074-0.098c3.005-4.014,7.615-6.315,12.648-6.315C379.031,111.654,382.3,112.743,385.047,114.797z"/>
<g>
</g>
<g>
</g>
<g>
</g>
<g>
</g>
<g>
</g>
<g>
</g>
<g>
</g>
<g>
</g>
<g>
</g>
<g>
</g>
<g>
</g>
<g>
</g>
<g>
</g>
<g>
</g>
<g>
</g>
</svg>
