<?xml version="1.0" encoding="iso-8859-1"?>
<!-- Generator: Adobe Illustrator 19.0.0, SVG Export Plug-In . SVG Version: 6.00 Build 0)  -->
<svg version="1.1" id="Layer_1" xmlns="http://www.w3.org/2000/svg" xmlns:xlink="http://www.w3.org/1999/xlink" x="0px" y="0px"
	 viewBox="0 0 512 512" style="enable-background:new 0 0 512 512;" xml:space="preserve">
<path style="fill:#9CCBD8;" d="M176.618,261.515h-34.239c-19.1,0-34.64-15.539-34.64-34.638v-98.575
	c0-19.1,15.539-34.638,34.64-34.638h34.239v15.05h-34.239c-10.802,0-19.59,8.788-19.59,19.589v98.575
	c0,10.802,8.788,19.589,19.59,19.589h34.239V261.515z"/>
<path style="fill:#E0555C;" d="M368.782,29.168v12.989L265.927,80.616l-96.83-38.459V29.168c0-12.19,9.886-22.077,22.088-22.077
	h155.509C358.895,7.092,368.782,16.978,368.782,29.168z"/>
<path style="fill:#FD6568;" d="M335.21,29.168v12.989l-68.27,38.459l-64.271-38.459V29.168c0-12.19,6.562-22.077,14.661-22.077
	h103.219C328.648,7.092,335.21,16.978,335.21,29.168z"/>
<rect x="221.147" y="295.933" style="fill:#9CCBD8;" width="100.172" height="89.765"/>
<path style="fill:#F2D766;" d="M364.684,380.461v93.203H177.791v-93.203c0-13.267,10.755-24.021,24.01-24.021h19.345h100.172h19.345
	C353.929,356.439,364.684,367.194,364.684,380.461z"/>
<path style="fill:#FEE572;" d="M342.329,380.461v93.203H200.145v-93.203c0-13.267,8.182-24.021,18.266-24.021h14.717h76.209h14.717
	C334.147,356.439,342.329,367.194,342.329,380.461z"/>
<path style="fill:#C0E8F6;" d="M396.566,42.157l-27.784,69.448v166.159c0,26.198-21.232,47.418-47.418,47.418h-0.046H221.145h-4.631
	c-26.186,0-47.418-21.22-47.418-47.418v-23.767V101.187V42.157h199.685C368.782,42.157,396.566,42.157,396.566,42.157z"/>
<g>
	<path style="fill:#9CCBD8;" d="M202.669,277.765v-23.767V101.187V42.157h-33.572v59.029v152.811v23.767
		c0,26.198,21.232,47.418,47.418,47.418h4.631h28.942C223.9,325.182,202.669,303.963,202.669,277.765z"/>
	<path style="fill:#9CCBD8;" d="M335.21,277.765v-23.767V101.187V42.157h61.356l-27.784,69.448v142.392v23.767
		c0,26.198-21.232,47.418-47.418,47.418h-4.631h-28.942C313.978,325.182,335.21,303.963,335.21,277.765z"/>
</g>
<polygon style="fill:#E0555C;" points="384.098,468.455 384.098,498.832 158.377,498.832 158.377,468.455 177.791,468.455 
	364.684,468.455 "/>
<g>
	<polygon style="fill:#FD6568;" points="364.684,468.455 364.684,498.832 177.791,498.832 177.791,468.455 193.865,468.455 
		348.609,468.455 	"/>
	<circle style="fill:#FD6568;" cx="271.239" cy="415.056" r="30.331"/>
</g>
<path d="M376.478,278.207v-164.71l27.244-68.11c0.927-2.318,0.645-4.946-0.756-7.013c-1.4-2.068-3.735-3.306-6.231-3.306h-20.258
	v-5.457C376.478,13.283,363.195,0,346.867,0H191.35c-16.328,0-29.609,13.283-29.609,29.61v64.496h-19.189
	c-19.1,0-34.64,15.539-34.64,34.638v98.575c0,19.1,15.539,34.638,34.64,34.638h19.189v16.249c0,29.326,23.094,53.357,52.05,54.867
	v16.283h-11.816c-17.392,0-31.542,14.15-31.542,31.542v85.68h-11.891c-4.156,0-7.525,3.369-7.525,7.525v30.374
	c0,4.156,3.369,7.525,7.525,7.525h225.723c4.156,0,7.525-3.369,7.525-7.525v-30.374c0-4.156-3.369-7.525-7.525-7.525h-11.89v-85.68
	c0-17.392-14.15-31.542-31.542-31.542h-11.816v-16.728C355.783,328.966,376.478,305.964,376.478,278.207z M142.552,246.908
	c-10.802,0-19.59-8.788-19.59-19.589v-98.575c0-10.802,8.788-19.589,19.59-19.589h19.189v137.754h-19.189V246.908z M176.791,278.207
	v-23.774V101.63V50.117h19.1c4.156,0,7.525-3.369,7.525-7.525s-3.369-7.525-7.525-7.525h-19.1v-5.457
	c0-8.028,6.532-14.56,14.56-14.56h155.517c8.03,0,14.561,6.532,14.561,14.56v5.457H223.096c-4.156,0-7.525,3.369-7.525,7.525
	s3.369,7.525,7.525,7.525H385.62l-23.655,59.137c-0.355,0.889-0.538,1.837-0.538,2.795v166.159
	c0,21.998-17.896,39.894-39.894,39.894H216.683C194.687,318.101,176.791,300.205,176.791,278.207z M376.739,496.95H166.066v-15.324
	h210.674V496.95z M304.711,349.357c-4.156,0-7.525,3.369-7.525,7.525s3.369,7.525,7.525,7.525h36.121
	c9.093,0,16.492,7.399,16.492,16.492v85.68H185.482v-85.68c0-9.093,7.399-16.492,16.492-16.492h72.639
	c4.156,0,7.525-3.369,7.525-7.525s-3.369-7.525-7.525-7.525H228.84v-16.206h85.126v16.206L304.711,349.357L304.711,349.357z"/>
<path d="M233.549,415.492c0,20.873,16.981,37.853,37.854,37.853c20.873,0,37.853-16.981,37.853-37.853
	c0-20.873-16.981-37.853-37.853-37.853C250.53,377.638,233.549,394.619,233.549,415.492z M294.207,415.492
	c0,12.575-10.229,22.804-22.804,22.804s-22.805-10.229-22.805-22.804s10.23-22.804,22.805-22.804S294.207,402.917,294.207,415.492z"
	/>
<path d="M198.785,121.31h39.937c4.156,0,7.525-3.369,7.525-7.525c0-4.156-3.369-7.525-7.525-7.525h-39.937
	c-4.156,0-7.525,3.369-7.525,7.525C191.26,117.941,194.629,121.31,198.785,121.31z"/>
<path d="M198.785,160.09h20.837c4.156,0,7.525-3.369,7.525-7.525c0-4.156-3.369-7.525-7.525-7.525h-20.837
	c-4.156,0-7.525,3.369-7.525,7.525C191.26,156.721,194.629,160.09,198.785,160.09z"/>
<path d="M198.785,198.869h39.937c4.156,0,7.525-3.369,7.525-7.525s-3.369-7.525-7.525-7.525h-39.937
	c-4.156,0-7.525,3.369-7.525,7.525S194.629,198.869,198.785,198.869z"/>
<path d="M227.146,230.123c0-4.156-3.369-7.525-7.525-7.525h-20.837c-4.156,0-7.525,3.369-7.525,7.525
	c0,4.156,3.369,7.525,7.525,7.525h20.837C223.778,237.648,227.146,234.279,227.146,230.123z"/>
<g>
</g>
<g>
</g>
<g>
</g>
<g>
</g>
<g>
</g>
<g>
</g>
<g>
</g>
<g>
</g>
<g>
</g>
<g>
</g>
<g>
</g>
<g>
</g>
<g>
</g>
<g>
</g>
<g>
</g>
</svg>
