<?xml version="1.0" encoding="iso-8859-1"?>
<!-- Generator: Adobe Illustrator 19.0.0, SVG Export Plug-In . SVG Version: 6.00 Build 0)  -->
<svg version="1.1" id="Layer_1" xmlns="http://www.w3.org/2000/svg" xmlns:xlink="http://www.w3.org/1999/xlink" x="0px" y="0px"
	 viewBox="0 0 512.001 512.001" style="enable-background:new 0 0 512.001 512.001;" xml:space="preserve">
<g>
	<path style="fill:#EF626A;" d="M490.621,467.441l-65.147,26.98l-16.361,6.782c-15.161,6.287-32.537-0.916-38.811-16.076
		l-80.852-195.194l24.888-21.918l19.455-17.116l64.615-6.089l14.01,33.836l3.082,7.438l3.082,7.426l10.136,24.467l3.082,7.438
		l3.082,7.426l10.124,24.455l3.082,7.438l3.082,7.438l10.124,24.455l3.082,7.438l3.082,7.426L490.621,467.441z"/>
	<path style="fill:#EF626A;" d="M222.186,289.932l-0.532,1.287l-80.32,193.907c-6.275,15.161-23.651,22.363-38.811,16.076
		l-58.477-24.22l-23.032-9.542l23.168-55.952l3.082-7.426l3.082-7.438l10.136-24.455l3.082-7.438l3.082-7.426l10.124-24.467
		l3.082-7.426l3.082-7.438l10.136-24.455l3.069-7.426l3.082-7.438l14.022-33.848l57.907,4.851L222.186,289.932z"/>
</g>
<path style="fill:#FEE572;" d="M344.535,220.453l-7.03-16.497l-20.755-48.737c24.071-23.972,32.685-60.977,18.886-94.317
	C317.37,16.831,266.838-4.109,222.755,14.158c-44.071,18.255-64.999,68.786-46.744,112.869
	c4.294,10.383,10.396,19.455,17.772,27.054l-26.67,66.372l-0.804,1.943l4.839,27.264l28.836-13.317v-0.012l25.495-61.484
	c9.629,3.614,19.913,5.532,30.358,5.532c10.111,0,20.359-1.795,30.334-5.544l17.821,43.007l7.661,18.49v0.012l21.212,13.948
	l0.928,0.606l0.483-1.2l11.064-27.314L344.535,220.453z M274.635,139.403c-25.086,10.383-53.86-1.522-64.244-26.621
	c-10.396-25.086,1.522-53.86,26.608-64.256c25.099-10.383,53.86,1.522,64.256,26.621
	C311.652,100.233,299.734,129.007,274.635,139.403z"/>
<g>
	<polygon style="fill:#EAD475;" points="345.339,222.384 334.275,249.698 332.864,250.292 311.652,236.344 311.652,236.332 
		303.991,217.842 330.018,207.062 337.505,203.956 344.535,220.453 	"/>
	<polygon style="fill:#EAD475;" points="166.296,222.384 177.36,249.698 178.771,250.292 199.983,236.344 199.983,236.332 
		207.644,217.842 181.617,207.062 174.13,203.956 167.1,220.453 	"/>
</g>
<path style="fill:#E0555C;" d="M441.018,204.958c1.064,2.562,1.559,5.223,1.559,7.834c0,8.044-4.765,15.693-12.661,18.96
	l-31.509,13.057l-108.958,45.123l-4.332-10.458c-6.275-15.148,0.916-32.524,16.076-38.799l10.458-4.332l33.687-13.96l68.872-28.527
	C424.682,189.526,436.674,194.488,441.018,204.958z"/>
<path style="fill:#FD6568;" d="M467.453,411.489l-3.082-7.426l-3.082-7.438l-10.124-24.455l-3.082-7.438l-3.082-7.438L434.88,332.84
	l-3.082-7.426l-3.082-7.438l-10.136-24.467l-3.082-7.426l-3.082-7.438l-11.023-26.622l-0.511,0.212l-79.453,32.904l78.339,189.134
	c4.616,11.151,14.591,18.453,25.705,20.148l65.147-26.98L467.453,411.489z"/>
<path style="fill:#E0555C;" d="M210.441,240.676c15.161,6.275,22.351,23.651,16.076,38.799l-4.332,10.458L113.24,244.809
	l-31.509-13.057c-7.896-3.267-12.673-10.903-12.673-18.96c0-2.611,0.507-5.272,1.572-7.834c4.332-10.47,16.324-15.433,26.794-11.101
	l68.885,28.539l33.675,13.948L210.441,240.676z"/>
<path style="fill:#FD6568;" d="M131.9,264.892l-12.881,31.092l-3.082,7.438l-3.069,7.426l-10.136,24.455l-3.082,7.438l-3.082,7.426
	l-10.124,24.467l-3.082,7.426l-3.082,7.438l-10.136,24.455l-3.082,7.438l-3.082,7.426l-19.938,48.167l58.477,24.22
	c15.161,6.287,32.537-0.916,38.811-16.076l76.486-184.65L131.9,264.892z"/>
<path d="M308.866,116.33c5.849-14.121,5.849-29.674-0.001-43.795c-1.698-4.103-6.401-6.054-10.51-4.354
	c-4.104,1.7-6.054,6.406-4.354,10.511c4.204,10.151,4.204,21.33,0,31.481c-4.204,10.151-12.11,18.057-22.259,22.261
	c-20.954,8.682-45.063-1.308-53.743-22.261c-8.679-20.954,1.308-45.062,22.261-53.742c11.153-4.619,23.715-4.114,34.472,1.381
	c3.959,2.021,8.802,0.452,10.823-3.505c2.022-3.957,0.453-8.802-3.504-10.824c-14.964-7.643-32.438-8.341-47.948-1.917
	c-29.15,12.074-43.041,45.612-30.967,74.762c9.119,22.013,30.473,35.325,52.94,35.324c7.283,0,14.687-1.4,21.823-4.356
	C292.019,141.45,303.016,130.451,308.866,116.33z"/>
<path d="M498.234,464.836l-23.173-55.944l1.683-0.697c4.104-1.7,6.054-6.406,4.354-10.511c-1.698-4.104-6.401-6.054-10.51-4.354
	l-1.683,0.697l-10.133-24.464l1.985-0.823c4.104-1.7,6.054-6.406,4.354-10.511c-1.698-4.104-6.401-6.054-10.51-4.354l-1.986,0.823
	l-10.133-24.464l2.287-0.948c4.104-1.7,6.054-6.406,4.354-10.511c-1.698-4.104-6.4-6.056-10.51-4.354l-2.288,0.948l-10.133-24.464
	l2.59-1.073c4.104-1.7,6.054-6.406,4.354-10.511c-1.698-4.104-6.4-6.054-10.51-4.354l-2.592,1.073l-10.942-26.415l24.081-9.975
	c7.046-2.918,12.534-8.407,15.453-15.453c2.918-7.047,2.917-14.808,0-21.854c-2.918-7.047-8.407-12.536-15.453-15.454
	s-14.808-2.918-21.854,0l-61.453,25.455l-23.012-55.525c22.995-26.201,30.606-64.202,16.388-98.527
	c-19.927-48.106-75.275-71.031-123.379-51.105c-23.304,9.652-41.453,27.803-51.107,51.105c-9.652,23.304-9.652,48.971,0.001,72.275
	c4.042,9.758,9.591,18.597,16.367,26.303l-22.991,55.474l-61.453-25.455c-14.542-6.023-31.282,0.907-37.307,15.454
	c-6.026,14.547,0.907,31.282,15.453,37.307l24.08,9.974l-10.942,26.415l-2.59-1.073c-4.103-1.7-8.81,0.249-10.51,4.354
	c-1.7,4.104,0.249,8.81,4.354,10.511l2.59,1.073L75.676,315.37l-2.288-0.948c-4.105-1.702-8.812,0.25-10.51,4.354
	c-1.7,4.104,0.249,8.81,4.354,10.511l2.288,0.948l-10.133,24.464l-1.985-0.823c-4.105-1.7-8.812,0.25-10.51,4.354
	c-1.7,4.104,0.249,8.81,4.354,10.511l1.985,0.823l-10.133,24.464l-1.683-0.697c-4.105-1.702-8.81,0.25-10.51,4.354
	c-1.7,4.104,0.249,8.81,4.354,10.511l1.683,0.697l-23.173,55.944c-1.7,4.104,0.249,8.81,4.354,10.511l81.508,33.762
	c4.709,1.95,9.59,2.874,14.396,2.874c14.819,0,28.908-8.781,34.924-23.302l54.563-131.729c1.7-4.104-0.249-8.81-4.354-10.511
	c-4.105-1.702-8.812,0.251-10.51,4.354l-54.563,131.728c-4.57,11.034-17.265,16.293-28.299,11.721l-74.077-30.683l20.095-48.513
	l51.524,21.341c1.006,0.417,2.048,0.614,3.074,0.614c3.157,0,6.153-1.87,7.436-4.968c1.7-4.104-0.249-8.81-4.354-10.511
	l-51.523-21.341l10.133-24.464l51.221,21.216c1.006,0.417,2.048,0.614,3.074,0.614c3.157,0,6.153-1.87,7.436-4.968
	c1.7-4.104-0.249-8.81-4.354-10.511l-51.221-21.216l10.133-24.464l50.917,21.091c1.006,0.417,2.048,0.614,3.074,0.614
	c3.157,0,6.153-1.87,7.436-4.968c1.7-4.104-0.249-8.81-4.354-10.511l-50.917-21.091l10.133-24.464l50.617,20.966
	c1.006,0.417,2.049,0.614,3.074,0.614c3.157,0,6.153-1.87,7.436-4.968c1.7-4.104-0.249-8.81-4.354-10.511l-50.618-20.965
	l10.942-26.415l94.089,38.972l-8.891,21.465c-1.7,4.104,0.249,8.81,4.354,10.511c1.006,0.417,2.048,0.614,3.074,0.614
	c3.157,0,6.153-1.87,7.435-4.968l16.3-39.352c3.859-9.315,3.859-19.575,0-28.891c-3.859-9.315-11.114-16.57-20.429-20.428
	l-3.027-1.254l19.555-47.187c8.452,2.416,17.107,3.648,25.769,3.648c8.659,0,17.316-1.234,25.769-3.648l19.557,47.186l-3.03,1.255
	c-19.229,7.965-28.392,30.09-20.428,49.318l85.184,205.653c3.858,9.315,11.112,16.57,20.428,20.428
	c4.658,1.929,9.552,2.894,14.445,2.894s9.787-0.965,14.445-2.894l43.977-18.215c4.104-1.7,6.054-6.406,4.354-10.511
	c-1.698-4.104-6.401-6.054-10.51-4.354l-43.977,18.215c-5.346,2.215-11.232,2.214-16.578,0c-5.344-2.214-9.507-6.376-11.721-11.721
	l-77.776-187.766l94.087-38.972l10.942,26.415l-50.614,20.965c-4.104,1.7-6.054,6.406-4.354,10.511
	c1.282,3.098,4.278,4.968,7.435,4.968c1.025,0,2.068-0.197,3.074-0.614l50.615-20.965l10.133,24.464l-50.917,21.091
	c-4.104,1.7-6.054,6.406-4.354,10.511c1.282,3.098,4.278,4.968,7.435,4.968c1.025,0,2.068-0.197,3.074-0.614l50.917-21.091
	l10.133,24.464l-51.221,21.216c-4.104,1.7-6.054,6.406-4.354,10.511c1.282,3.098,4.278,4.968,7.435,4.968
	c1.025,0,2.068-0.197,3.074-0.614l51.221-21.216l10.133,24.464l-51.521,21.341c-4.104,1.7-6.054,6.406-4.354,10.511
	c1.282,3.098,4.278,4.968,7.435,4.968c1.025,0,2.068-0.197,3.074-0.614l51.523-21.341l20.094,48.513l-4.598,1.905
	c-4.104,1.7-6.054,6.406-4.354,10.511c1.699,4.104,6.403,6.056,10.51,4.354l12.031-4.983c1.971-0.817,3.537-2.382,4.354-4.354
	C499.05,469.021,499.05,466.807,498.234,464.836z M219.269,276.87l-1.252,3.022L84.984,224.788c-6.35-2.63-9.376-9.935-6.746-16.286
	c1.986-4.796,6.638-7.695,11.533-7.695c1.585,0,3.199,0.304,4.754,0.949l113.021,46.816
	C218.579,253.142,223.838,265.837,219.269,276.87z M177,218.505l20.644-49.812c5.382,4.216,11.241,7.877,17.531,10.883
	l-19.362,46.721L177,218.505z M226.02,166.812c-19.334-8.008-34.39-23.065-42.399-42.399c-8.008-19.333-8.008-40.627,0-59.96
	s23.066-34.39,42.399-42.399c9.773-4.047,19.904-5.963,29.878-5.963c30.757,0,59.998,18.226,72.481,48.363
	c16.529,39.91-2.49,85.828-42.399,102.359C266.648,174.82,245.352,174.82,226.02,166.812z M296.828,179.576
	c6.34-3.036,12.183-6.72,17.517-10.916l20.657,49.843l-18.812,7.792L296.828,179.576z M304.453,248.573l113.023-46.816
	c1.538-0.637,3.155-0.955,4.77-0.955c1.615,0,3.231,0.318,4.77,0.955c3.075,1.273,5.471,3.669,6.746,6.746
	c1.273,3.075,1.273,6.464,0,9.539c-1.273,3.075-3.669,5.471-6.745,6.746l-31.511,13.052c-0.001,0-0.001,0-0.002,0.001
	l-101.519,42.051l-1.252-3.022C288.162,265.837,293.421,253.142,304.453,248.573z"/>
<g>
</g>
<g>
</g>
<g>
</g>
<g>
</g>
<g>
</g>
<g>
</g>
<g>
</g>
<g>
</g>
<g>
</g>
<g>
</g>
<g>
</g>
<g>
</g>
<g>
</g>
<g>
</g>
<g>
</g>
</svg>
