<?xml version="1.0" encoding="iso-8859-1"?>
<!-- Generator: Adobe Illustrator 19.0.0, SVG Export Plug-In . SVG Version: 6.00 Build 0)  -->
<svg version="1.1" id="Layer_1" xmlns="http://www.w3.org/2000/svg" xmlns:xlink="http://www.w3.org/1999/xlink" x="0px" y="0px"
	 viewBox="0 0 512 512" style="enable-background:new 0 0 512 512;" xml:space="preserve">
<path style="fill:#EAD26C;" d="M402.644,472.149v10.996c0,10.591-8.588,19.179-19.179,19.179h-255.28
	c-10.591,0-19.179-8.588-19.179-19.179v-10.996H402.644z"/>
<path style="fill:#E0555C;" d="M446.21,24.567v109.235H65.44V24.567c0-9.411,7.63-17.041,17.041-17.041h346.688
	C438.58,7.526,446.21,15.156,446.21,24.567z"/>
<path style="fill:#FD6568;" d="M399.363,24.567v109.235H112.287V24.567c0-9.411,5.752-17.041,12.848-17.041h261.381
	C393.611,7.526,399.363,15.156,399.363,24.567z"/>
<path style="fill:#EAD26C;" d="M426.417,133.803v321.441c0,10.013-8.121,18.134-18.134,18.134h-5.639H109.006h-5.639
	c-10.025,0-18.147-8.121-18.147-18.134V133.803C85.221,133.803,426.417,133.803,426.417,133.803z"/>
<path style="fill:#FEE572;" d="M389.743,144.062v300.226c0,9.352-6.375,16.938-14.236,16.938h-4.427H140.568h-4.427
	c-7.87,0-14.246-7.585-14.246-16.938V144.062H389.743z"/>
<path d="M429.345,0H82.656C68.855,0,57.627,11.228,57.627,25.029v109.234c0,4.411,3.575,7.986,7.986,7.986h11.806v254.142
	c0,4.411,3.575,7.986,7.986,7.986c4.411,0,7.986-3.575,7.986-7.986V142.248h352.996c4.411,0,7.986-3.575,7.986-7.986V25.029
	C454.374,11.228,443.146,0,429.345,0z M165.821,61.596c-4.411,0-7.986,3.575-7.986,7.986v56.695h-44.148V15.972h44.148v25.352
	c0,4.411,3.575,7.986,7.986,7.986c4.411,0,7.986-3.575,7.986-7.986V15.972h44.149v110.304h-44.149V69.582
	C173.807,65.171,170.232,61.596,165.821,61.596z M233.926,15.972h44.148v110.304h-44.148V15.972z M294.047,15.972h44.149v110.304
	h-44.149V15.972L294.047,15.972z M85.405,126.276H73.599V25.029c0-4.994,4.063-9.057,9.057-9.057h15.058v110.304H85.405z
	 M438.402,126.276h-11.806h-12.311v-16.15c0-4.411-3.575-7.986-7.986-7.986c-4.411,0-7.986,3.575-7.986,7.986v16.151h-44.148V15.972
	h44.148v63.439c0,4.411,3.575,7.986,7.986,7.986c4.411,0,7.986-3.575,7.986-7.986V15.972h15.058c4.994,0,9.057,4.063,9.057,9.057
	v101.247H438.402z"/>
<path d="M426.596,156.199c-4.411,0-7.986,3.575-7.986,7.986v291.522c0,5.599-4.554,10.153-10.153,10.153H103.544
	c-5.599,0-10.153-4.554-10.153-10.153v-31.056c0-4.411-3.575-7.986-7.986-7.986c-4.411,0-7.986,3.575-7.986,7.986v31.056
	c0,13.613,10.47,24.813,23.777,26.006v3.124c0,14.978,12.185,27.163,27.163,27.163h255.281c14.978,0,27.163-12.185,27.163-27.163
	v-3.124c13.307-1.193,23.777-12.393,23.777-26.006V164.185C434.582,159.774,431.007,156.199,426.596,156.199z M394.833,484.837
	c0,6.171-5.02,11.191-11.191,11.191H128.361c-6.171,0-11.191-5.02-11.191-11.191v-3.005h277.665v3.005H394.833z"/>
<path d="M169.384,214.187h173.234c4.411,0,7.986-3.575,7.986-7.986c0-4.411-3.575-7.986-7.986-7.986H169.384
	c-4.411,0-7.986,3.575-7.986,7.986C161.398,210.612,164.973,214.187,169.384,214.187z"/>
<path d="M169.384,263.114h173.234c4.411,0,7.986-3.575,7.986-7.986c0-4.411-3.575-7.986-7.986-7.986H169.384
	c-4.411,0-7.986,3.575-7.986,7.986C161.398,259.538,164.973,263.114,169.384,263.114z"/>
<path d="M169.384,312.04h173.234c4.411,0,7.986-3.575,7.986-7.986s-3.575-7.986-7.986-7.986H169.384
	c-4.411,0-7.986,3.575-7.986,7.986S164.973,312.04,169.384,312.04z"/>
<g>
</g>
<g>
</g>
<g>
</g>
<g>
</g>
<g>
</g>
<g>
</g>
<g>
</g>
<g>
</g>
<g>
</g>
<g>
</g>
<g>
</g>
<g>
</g>
<g>
</g>
<g>
</g>
<g>
</g>
</svg>
