<?xml version="1.0" encoding="iso-8859-1"?>
<!-- Generator: Adobe Illustrator 19.0.0, SVG Export Plug-In . SVG Version: 6.00 Build 0)  -->
<svg version="1.1" id="Layer_1" xmlns="http://www.w3.org/2000/svg" xmlns:xlink="http://www.w3.org/1999/xlink" x="0px" y="0px"
	 viewBox="0 0 512 512" style="enable-background:new 0 0 512 512;" xml:space="preserve">
<g>
	<path style="fill:#FD6568;" d="M393.557,310.202c53.232,0,96.386,43.154,96.386,96.399c0,53.232-43.154,96.386-96.386,96.386
		c-53.245,0-96.399-43.154-96.399-96.386C297.158,353.356,340.312,310.202,393.557,310.202z M454.573,406.601
		c0-33.706-27.324-61.029-61.016-61.029c-33.706,0-61.029,27.324-61.029,61.029c0,33.693,27.324,61.016,61.029,61.016
		C427.25,467.617,454.573,440.293,454.573,406.601z"/>
	<path style="fill:#FD6568;" d="M118.068,310.202c53.232,0,96.386,43.154,96.386,96.399c0,53.232-43.154,96.386-96.386,96.386
		c-53.245,0-96.399-43.154-96.399-96.386C21.669,353.356,64.823,310.202,118.068,310.202z M179.084,406.601
		c0-33.706-27.324-61.029-61.016-61.029c-33.706,0-61.029,27.324-61.029,61.029c0,33.693,27.324,61.016,61.029,61.016
		C151.76,467.617,179.084,440.293,179.084,406.601z"/>
</g>
<polygon style="fill:#C79175;" points="489.943,8.018 489.943,48.996 393.557,48.996 118.068,48.996 21.669,48.996 21.669,8.018 "/>
<path d="M490.135,58.015c4.705,0,8.518-3.814,8.518-8.518V8.518c0-4.705-3.814-8.518-8.518-8.518H93.504
	c-4.705,0-8.518,3.814-8.518,8.518s3.814,8.518,8.518,8.518h388.112v23.943H30.382V17.036h30.36c4.705,0,8.518-3.814,8.518-8.518
	S65.447,0,60.742,0H21.864c-4.705,0-8.518,3.814-8.518,8.518v40.979c0,4.705,3.814,8.518,8.518,8.518h87.873v244.544
	c-53.874,4.353-96.391,49.557-96.391,104.533C13.346,464.939,60.408,512,118.255,512s104.909-47.062,104.909-104.908
	c0-54.976-42.516-100.18-96.391-104.533V58.015h258.454v244.544c-53.874,4.353-96.391,49.557-96.391,104.533
	c0,57.847,47.062,104.908,104.909,104.908s104.908-47.062,104.908-104.908c0-54.976-42.516-100.18-96.39-104.533V58.015H490.135z
	 M206.127,407.092c0,48.452-39.419,87.872-87.873,87.872s-87.873-39.419-87.873-87.872S69.8,319.22,118.254,319.22
	S206.127,358.64,206.127,407.092z M481.616,407.092c0,48.452-39.419,87.872-87.872,87.872c-48.454,0-87.873-39.419-87.873-87.872
	s39.419-87.872,87.873-87.872C442.197,319.22,481.616,358.64,481.616,407.092z"/>
<path d="M48.716,407.092c0,38.343,31.195,69.538,69.538,69.538s69.538-31.195,69.538-69.538s-31.195-69.538-69.538-69.538
	S48.716,368.749,48.716,407.092z M170.757,407.092c0,28.95-23.553,52.502-52.502,52.502s-52.502-23.552-52.502-52.502
	s23.553-52.502,52.502-52.502S170.757,378.142,170.757,407.092z"/>
<path d="M324.207,407.092c0,38.343,31.195,69.538,69.538,69.538s69.538-31.195,69.538-69.538c0-14.149-4.226-27.768-12.219-39.383
	c-2.668-3.875-7.972-4.855-11.847-2.187c-3.875,2.668-4.854,7.972-2.187,11.847c6.031,8.762,9.217,19.039,9.217,29.724
	c0,28.95-23.552,52.502-52.502,52.502s-52.502-23.552-52.502-52.502c0-28.95,23.553-52.502,52.502-52.502
	c8.664,0,17.246,2.152,24.818,6.223c4.145,2.228,9.31,0.675,11.536-3.469c2.228-4.144,0.676-9.31-3.468-11.536
	c-10.045-5.4-21.417-8.255-32.887-8.255C355.4,337.554,324.207,368.749,324.207,407.092z"/>
<g>
</g>
<g>
</g>
<g>
</g>
<g>
</g>
<g>
</g>
<g>
</g>
<g>
</g>
<g>
</g>
<g>
</g>
<g>
</g>
<g>
</g>
<g>
</g>
<g>
</g>
<g>
</g>
<g>
</g>
</svg>
