<?xml version="1.0" encoding="iso-8859-1"?>
<!-- Generator: Adobe Illustrator 19.0.0, SVG Export Plug-In . SVG Version: 6.00 Build 0)  -->
<svg version="1.1" id="Layer_1" xmlns="http://www.w3.org/2000/svg" xmlns:xlink="http://www.w3.org/1999/xlink" x="0px" y="0px"
	 viewBox="0 0 511.999 511.999" style="enable-background:new 0 0 511.999 511.999;" xml:space="preserve">
<g>
	<polygon style="fill:#CCCCCC;" points="391.085,270.074 285.685,270.074 280.631,270.074 280.631,241.084 285.685,241.084 
		391.085,241.084 	"/>
	<polygon style="fill:#CCCCCC;" points="226.684,241.084 226.684,270.074 222.029,270.074 124.957,270.074 124.957,241.084 
		222.029,241.084 	"/>
</g>
<g>
	<polygon style="fill:#FD6568;" points="141.768,270.074 141.768,277.094 36.71,277.094 36.71,234.075 141.768,234.075 
		141.768,241.084 	"/>
	<polygon style="fill:#FD6568;" points="475.278,234.075 475.278,277.094 369.91,277.094 369.91,270.074 369.91,241.084 
		369.91,234.075 	"/>
</g>
<path style="fill:#666666;" d="M255.844,472.682c-25.392,0-45.972-20.58-45.972-45.961V270.074v-28.989V84.459
	c0-25.392,20.58-45.972,45.972-45.972c12.685,0,24.178,5.14,32.5,13.461c8.311,8.322,13.461,19.815,13.461,32.51v156.625v28.989
	v156.647C301.805,452.102,281.225,472.682,255.844,472.682z"/>
<path style="fill:#808080;" d="M255.842,434.258c-13.695,0-24.795-16.938-24.795-37.826V267.508V243.65V114.745
	c0-20.897,11.1-37.835,24.795-37.835c6.841,0,13.04,4.23,17.529,11.078c4.482,6.849,7.26,16.308,7.26,26.756V243.65v23.859V396.43
	C280.631,417.32,269.531,434.258,255.842,434.258z"/>
<g>
	<path style="fill:#FEE572;" d="M44.728,234.075v43.019H30.939c-6.616,0-12.619-2.406-16.961-6.299s-7.031-9.273-7.031-15.211
		c0-11.876,10.749-21.51,23.992-21.51H44.728z"/>
	<path style="fill:#FEE572;" d="M497.71,240.374c4.33,3.893,7.02,9.273,7.02,15.211c0,11.876-10.738,21.51-23.992,21.51h-13.789
		v-43.019h13.789C487.365,234.075,493.358,236.481,497.71,240.374z"/>
</g>
<path d="M480.897,227.385H377.176v-4.669c0-3.926-3.182-7.108-7.108-7.108s-7.108,3.182-7.108,7.108v11.679h-53.888V84.869
	c0-29.264-23.808-53.072-53.072-53.072s-53.072,23.807-53.072,53.072v149.525h-36.594c-3.926,0-7.108,3.182-7.108,7.108
	c0,3.926,3.182,7.108,7.108,7.108h36.594v14.775h-53.888v-40.669c0-3.926-3.182-7.108-7.108-7.108s-7.108,3.182-7.108,7.108v4.669
	H31.104C13.953,227.385,0,240.22,0,255.999s13.953,28.615,31.103,28.615h103.721v4.669c0,3.926,3.182,7.108,7.108,7.108
	c3.926,0,7.108-3.182,7.108-7.108V277.6h53.888v86.953c0,3.926,3.182,7.108,7.108,7.108s7.108-3.182,7.108-7.108V84.869
	c0-18.997,13.707-34.842,31.748-38.192v101.671c0,3.926,3.182,7.108,7.108,7.108s7.108-3.182,7.108-7.108V46.677
	c18.041,3.349,31.748,19.196,31.748,38.192V427.13c0,18.998-13.707,34.843-31.748,38.194V222.316c0-3.926-3.182-7.108-7.108-7.108
	s-7.108,3.182-7.108,7.108v243.007c-18.041-3.351-31.748-19.196-31.748-38.194v-37.427c0-3.926-3.182-7.108-7.108-7.108
	s-7.108,3.182-7.108,7.108v37.427c0,29.264,23.808,53.072,53.072,53.072s53.072-23.808,53.072-53.072V277.6h53.888v11.683
	c0,3.926,3.182,7.108,7.108,7.108s7.108-3.182,7.108-7.108v-4.669h19.892c3.926,0,7.108-3.182,7.108-7.108s-3.182-7.108-7.108-7.108
	h-19.892v-28.799H460v28.799h-39.968c-3.926,0-7.108,3.182-7.108,7.108s3.182,7.108,7.108,7.108h60.864
	c17.151,0,31.103-12.837,31.103-28.615S498.048,227.385,480.897,227.385z M14.216,255.999c0-7.94,7.576-14.4,16.887-14.4h6.68
	v28.799h-6.68C21.792,270.398,14.216,263.939,14.216,255.999z M52,270.398v-28.799h82.825v28.799H52z M309.073,248.61h53.888v14.775
	h-53.888V248.61z M480.897,270.398h-6.68v-28.799h6.68c9.312,0,16.887,6.459,16.887,14.4
	C497.784,263.939,490.209,270.398,480.897,270.398z"/>
<path d="M255.999,199.837c3.926,0,7.108-3.182,7.108-7.108v-9.795c0-3.926-3.182-7.108-7.108-7.108s-7.108,3.182-7.108,7.108v9.795
	C248.892,196.653,252.075,199.837,255.999,199.837z"/>
<g>
</g>
<g>
</g>
<g>
</g>
<g>
</g>
<g>
</g>
<g>
</g>
<g>
</g>
<g>
</g>
<g>
</g>
<g>
</g>
<g>
</g>
<g>
</g>
<g>
</g>
<g>
</g>
<g>
</g>
</svg>
