<?xml version="1.0" encoding="iso-8859-1"?>
<!-- Generator: Adobe Illustrator 19.0.0, SVG Export Plug-In . SVG Version: 6.00 Build 0)  -->
<svg version="1.1" id="Layer_1" xmlns="http://www.w3.org/2000/svg" xmlns:xlink="http://www.w3.org/1999/xlink" x="0px" y="0px"
	 viewBox="0 0 511.999 511.999" style="enable-background:new 0 0 511.999 511.999;" xml:space="preserve">
<path style="fill:#808080;" d="M255.815,50.944c112.971,0,204.563,91.592,204.563,204.563c0,112.984-91.592,204.563-204.563,204.563
	c-112.984,0-204.563-91.579-204.563-204.563C51.252,142.537,142.83,50.944,255.815,50.944z M291.177,255.507
	c0-19.537-15.84-35.363-35.363-35.363c-19.537,0-35.376,15.827-35.376,35.363c0,19.537,15.84,35.376,35.376,35.376
	C275.338,290.884,291.177,275.043,291.177,255.507z"/>
<path style="fill:#B3B3B3;" d="M255.815,7.941c136.725,0,247.566,110.841,247.566,247.566S392.541,503.073,255.815,503.073
	c-136.738,0-247.579-110.841-247.579-247.566S119.077,7.941,255.815,7.941z M447.41,255.507
	c0-105.809-85.786-191.595-191.595-191.595c-105.822,0-191.595,85.786-191.595,191.595c0,105.822,85.773,191.595,191.595,191.595
	C361.624,447.101,447.41,361.328,447.41,255.507z"/>
<path d="M255.999,0C114.841,0,0,114.841,0,255.999c0,141.159,114.841,255.999,255.999,255.999s255.999-114.841,255.999-255.999
	C512,114.841,397.159,0,255.999,0z M255.999,495.14c-131.862,0-239.14-107.278-239.14-239.14s107.278-239.14,239.14-239.14
	s239.14,107.278,239.14,239.14S387.863,495.14,255.999,495.14z"/>
<path d="M444.139,188.076c-2.675-7.413-5.807-14.72-9.305-21.718c-2.08-4.164-7.142-5.851-11.31-3.772
	c-4.164,2.081-5.853,7.144-3.771,11.308c3.206,6.413,6.076,13.111,8.528,19.906c34.296,94.997-15.087,200.185-110.083,234.481
	c-46.022,16.614-95.754,14.312-140.04-6.479c-44.287-20.792-77.827-57.586-94.441-103.604s-14.312-95.752,6.479-140.04
	c20.792-44.287,57.586-77.827,103.606-94.441c72.561-26.193,154.305-3.866,203.423,55.558c2.965,3.588,8.279,4.094,11.867,1.127
	c3.588-2.966,4.091-8.279,1.126-11.867C356.578,63.64,267.301,39.257,188.076,67.86c-50.255,18.143-90.435,54.769-113.141,103.133
	c-22.706,48.363-25.218,102.674-7.074,152.928c18.141,50.254,54.768,90.435,103.132,113.141
	c27.018,12.684,55.892,19.067,84.878,19.067c22.901,0,45.872-3.984,68.051-11.992C427.663,406.685,481.59,291.817,444.139,188.076z"
	/>
<path d="M255.999,297.556c22.915,0,41.557-18.642,41.557-41.557c0-4.656-3.774-8.429-8.429-8.429s-8.429,3.774-8.429,8.429
	c0,13.618-11.08,24.698-24.698,24.698c-13.618,0-24.698-11.079-24.698-24.698c0-13.618,11.08-24.697,24.698-24.697
	c3.338,0,6.571,0.651,9.611,1.937c4.293,1.814,9.233-0.191,11.048-4.479c1.813-4.287-0.191-9.233-4.479-11.048
	c-5.128-2.17-10.571-3.269-16.179-3.269c-22.915,0-41.557,18.642-41.557,41.556S233.084,297.556,255.999,297.556z"/>
<path d="M376.132,135.868c-3.291-3.293-8.629-3.293-11.921,0l-67.867,67.867c-3.293,3.293-3.293,8.629-0.001,11.921
	c1.647,1.647,3.804,2.469,5.962,2.469c2.157,0,4.315-0.823,5.96-2.469l67.867-67.867
	C379.423,144.497,379.423,139.16,376.132,135.868z"/>
<path d="M135.87,376.132c1.646,1.646,3.804,2.469,5.96,2.469c2.157,0,4.315-0.824,5.962-2.469l67.866-67.867
	c3.291-3.293,3.291-8.629-0.001-11.921c-3.29-3.291-8.628-3.291-11.921,0l-67.866,67.867
	C132.576,367.503,132.576,372.839,135.87,376.132z"/>
<path d="M364.21,376.132c1.647,1.646,3.805,2.469,5.962,2.469c2.157,0,4.315-0.824,5.96-2.469c3.293-3.293,3.293-8.629,0-11.921
	l-67.866-67.867c-3.293-3.291-8.63-3.291-11.921,0c-3.293,3.293-3.293,8.629,0,11.921L364.21,376.132z"/>
<path d="M203.734,215.656c1.647,1.647,3.804,2.469,5.962,2.469c2.157,0,4.315-0.823,5.96-2.469
	c3.293-3.293,3.293-8.629,0.001-11.921l-67.866-67.867c-3.291-3.293-8.629-3.293-11.921,0c-3.293,3.293-3.293,8.629-0.001,11.921
	L203.734,215.656z"/>
<g>
</g>
<g>
</g>
<g>
</g>
<g>
</g>
<g>
</g>
<g>
</g>
<g>
</g>
<g>
</g>
<g>
</g>
<g>
</g>
<g>
</g>
<g>
</g>
<g>
</g>
<g>
</g>
<g>
</g>
</svg>
