<?xml version="1.0" encoding="iso-8859-1"?>
<!-- Generator: Adobe Illustrator 19.0.0, SVG Export Plug-In . SVG Version: 6.00 Build 0)  -->
<svg version="1.1" id="Layer_1" xmlns="http://www.w3.org/2000/svg" xmlns:xlink="http://www.w3.org/1999/xlink" x="0px" y="0px"
	 viewBox="0 0 512 512" style="enable-background:new 0 0 512 512;" xml:space="preserve">
<g>
	<path style="fill:#EFBF8B;" d="M327.48,380.72v95.434c0,7.715-3.127,14.694-8.175,19.754c-5.163,5.151-12.326,8.302-20.237,8.175
		c-15.327-0.264-27.434-13.211-27.434-28.55V380.72l25.595-20.596L327.48,380.72z"/>
	<path style="fill:#EFBF8B;" d="M236.415,380.72v95.434c0,15.764-13.05,28.481-28.941,27.906
		c-15.131-0.529-26.905-13.43-26.905-28.573V380.72l31.574-15.997L236.415,380.72z"/>
</g>
<g>
	<path style="fill:#E5AE7B;" d="M196.665,475.487V380.72l18.384-17.932l-8.65-7.264l-25.833,25.196v94.767
		c0,15.143,11.774,28.044,26.905,28.573c3.176,0.115,6.235-0.309,9.103-1.174C204.964,499.325,196.665,488.197,196.665,475.487z"/>
	<path style="fill:#E5AE7B;" d="M287.73,475.495v-94.767l18.384-17.932l-8.65-7.264l-25.833,25.196v94.767
		c0,15.143,11.774,28.044,26.905,28.573c3.176,0.115,6.235-0.309,9.103-1.174C296.028,499.333,287.73,488.205,287.73,475.495z"/>
</g>
<path style="fill:#C0E8F6;" d="M327.48,352.239v28.481h-55.846v-23.628c0-4.864-1.978-9.256-5.163-12.441
	c-3.449-3.449-8.336-5.485-13.683-5.117c-9.302,0.632-16.373,8.704-16.373,18.029v23.157h-55.846v-28.481v-42.807l72.633-34.061
	l74.277,34.061L327.48,352.239L327.48,352.239z"/>
<path style="fill:#EFBF8B;" d="M147.719,196.774l31.462,10.808l1.388,38.495l-16.868,22.525
	c-9.164,12.245-26.538,14.74-38.783,5.565l-42.761-34.379c-7.324-5.485-11.188-13.878-11.188-22.375
	c0-5.83,1.817-11.694,5.577-16.718c9.244-12.349,26.744-14.855,39.093-5.611l20.237,17.512L147.719,196.774z"/>
<g>
	<path style="fill:#E5AE7B;" d="M143.891,274.167l-42.761-34.379c-7.324-5.485-11.188-13.878-11.188-22.375
		c0-5.83,1.817-11.694,5.577-16.718c3.397-4.538,7.911-7.74,12.872-9.526c-11.255-4.071-24.299-0.553-31.844,9.526
		c-3.76,5.025-5.577,10.889-5.577,16.718c0,8.497,3.863,16.891,11.188,22.375l42.761,34.379c7.768,5.82,17.597,6.938,26.087,3.856
		C148.517,277.116,146.119,275.837,143.891,274.167z"/>
	<path style="fill:#E5AE7B;" d="M282.13,152.909l30.545,53.257c0,16.224-43.687,59.911-59.911,59.911
		c-8.106,0-15.442-3.288-20.765-8.601c-5.312-5.312-42.853-31.045-42.853-39.162l34.253-65.404l7.14-28.88
		c8.302,3.162,12.809,3.832,22.226,3.832s1.115,3.162,9.417,0L282.13,152.909z"/>
</g>
<path style="fill:#EFBF8B;" d="M421.695,278.709c9.072,12.119,7.382,29.504-4.415,39.001c-12.372,9.98-30.447,7.623-39.887-4.99
	l-49.913-66.643l4.243-27.764l35.655-12.134L421.695,278.709z"/>
<path style="fill:#E5AE7B;" d="M406.942,322.965c-10.693,2.852-22.513-0.851-29.55-10.245l-49.913-66.643l2.403-15.695
	l61.883,82.338C395.685,317.952,401.079,321.413,406.942,322.965z"/>
<circle style="fill:#515260;" cx="374.285" cy="339.445" r="25.296"/>
<path style="fill:#FEE572;" d="M180.568,246.078l-32.85-49.304l7.175-9.589c8.083-10.785,18.466-19.351,30.205-25.227
	c11.728-5.876,24.813-9.049,38.3-9.049v20.225c0,8.118,3.288,15.453,8.601,20.765c5.324,5.312,12.659,8.601,20.765,8.601
	c16.224,0,29.366-13.142,29.366-29.366v-20.225h2.518c26.963,0,52.339,12.705,68.505,34.276l14.223,18.995l-39.898,39.898v63.354
	H180.568L180.568,246.078L180.568,246.078z"/>
<path style="fill:#E5AE7B;" d="M327.858,75.872c0.195,2.15,0.287,4.335,0.287,6.542c0,32.218-20.214,59.709-48.648,70.495
	c-8.302,3.162-17.316,4.887-26.733,4.887s-18.431-1.725-26.733-4.887c-28.435-10.785-48.648-38.277-48.648-70.495
	c0-2.208,0.092-4.392,0.287-6.542c0.701,0.103,1.414,0.149,2.15,0.149l60.683-11.782l85.215,11.782
	C326.445,76.022,327.158,75.976,327.858,75.872z"/>
<path style="fill:#666666;" d="M317.534,43.827l-51.733,9.681l-77.804-9.681c13.154-22.03,37.231-36.794,64.769-36.794
	S304.38,21.797,317.534,43.827z"/>
<g>
	<path style="fill:#515260;" d="M136.6,162.878c4.082,13.361-3.438,27.503-16.799,31.585c-13.349,4.082-27.492-3.438-31.585-16.787
		c-4.082-13.361,3.438-27.503,16.799-31.597C118.364,141.997,132.508,149.517,136.6,162.878z"/>
	<path style="fill:#515260;" d="M87.297,246.423c4.082,13.361-3.438,27.503-16.787,31.585c-13.361,4.082-27.503-3.426-31.597-16.787
		c-4.082-13.361,3.438-27.503,16.799-31.597C69.072,225.542,83.214,233.062,87.297,246.423z"/>
	<circle style="fill:#515260;" cx="443.388" cy="271.492" r="25.296"/>
</g>
<path style="fill:#AAD6E2;" d="M337.103,48.541c2.909,2.921,4.714,6.945,4.714,11.383c0,8.175-6.082,14.913-13.959,15.948
	c-0.701,0.103-1.414,0.149-2.139,0.149H179.821c-0.736,0-1.449-0.046-2.15-0.149c-3.587-0.471-6.807-2.127-9.233-4.565
	c-2.909-2.909-4.714-6.933-4.714-11.383c0-8.888,7.209-16.097,16.097-16.097h8.175h129.537h8.187
	C330.158,43.827,334.182,45.632,337.103,48.541z"/>
<path style="fill:#EFBF8B;" d="M330.043,82.415c0,32.218-20.202,59.709-48.637,70.495c-4.323,1.644-8.842,2.898-13.51,3.725
	c-4.668-0.816-9.187-2.081-13.51-3.725h-0.011c-28.435-10.785-48.648-38.277-48.648-70.495c0-2.208,0.092-4.392,0.287-6.542
	c0.701,0.103,1.426,0.149,2.15,0.149l57.421-15.177l62.032,15.177c0.724,0,1.437-0.046,2.139-0.149
	C329.952,78.022,330.043,80.207,330.043,82.415z"/>
<path style="fill:#7D7878;" d="M319.431,43.826l-53.776,10.866L216.34,43.826c11.004-18.42,29.642-31.758,51.546-35.621
	C289.789,12.069,308.426,25.407,319.431,43.826z"/>
<path style="fill:#C0E8F6;" d="M343.714,59.923c0,8.175-6.082,14.913-13.959,15.948c-0.701,0.103-1.414,0.149-2.139,0.149H209.934
	c-0.724,0-1.449-0.046-2.15-0.149c-3.576-0.471-6.795-2.127-9.233-4.565c-2.909-2.909-4.714-6.933-4.714-11.383
	c0-8.888,7.209-16.097,16.097-16.097h117.683c4.45,0,8.474,1.805,11.383,4.714C341.909,51.462,343.714,55.486,343.714,59.923z"/>
<g>
	<circle style="fill:#999999;" cx="120.155" cy="167.343" r="9.198"/>
	<circle style="fill:#999999;" cx="71.863" cy="250.129" r="9.198"/>
	<circle style="fill:#999999;" cx="450.149" cy="263.926" r="9.198"/>
	<circle style="fill:#999999;" cx="381.161" cy="330.615" r="9.198"/>
</g>
<polygon style="fill:#AAD6E2;" points="196.665,305.327 196.665,380.72 180.568,380.72 180.568,309.432 "/>
<path style="fill:#EAD26C;" d="M180.568,245.909v63.523h16.097v-47.426C196.665,253.116,189.458,245.909,180.568,245.909
	L180.568,245.909z"/>
<path style="fill:#AAD6E2;" d="M258.963,339.488c15.894,0,28.778,12.885,28.778,28.778v12.442l-0.034,0.012h-16.074v-23.628
	c0-4.864-1.978-9.256-5.163-12.441c-3.185-3.185-7.589-5.163-12.452-5.163L258.963,339.488L258.963,339.488z"/>
<path d="M448.73,239.159c-14.319,0-26.513,9.235-30.962,22.058L359.3,183.142c-13.567-18.103-33.367-30.54-55.175-35.21
	c19.263-15.184,31.664-38.702,31.664-65.077c0-0.377-0.02-0.744-0.024-1.119c8.069-3.746,13.691-11.905,13.691-21.371
	c0-12.997-10.574-23.571-23.571-23.571h-4.084C306.504,13.999,280.509,0,252.936,0s-53.568,13.999-68.865,36.794h-4.084
	c-12.997,0-23.571,10.574-23.571,23.571c0,9.466,5.621,17.625,13.691,21.371c-0.005,0.375-0.024,0.742-0.024,1.119
	c0,26.619,12.633,50.33,32.201,65.5c-7.048,1.656-13.903,4.123-20.364,7.36c-12.861,6.437-24.217,15.921-32.844,27.432
	l-14.21,18.988l-8.139-7.044c14.378-6.872,21.985-23.45,17.187-39.142l0,0c-5.286-17.279-23.643-27.035-40.92-21.753
	c-8.371,2.561-15.243,8.227-19.352,15.955s-4.961,16.595-2.401,24.966c1.095,3.579,2.762,6.882,4.911,9.815
	c-5.941,2.317-11.329,6.257-15.422,11.727c-4.623,6.178-7.067,13.508-7.067,21.196c0,2.605,0.301,5.18,0.862,7.684
	c-3.572-0.139-7.225,0.299-10.833,1.403c-17.279,5.284-27.038,23.641-21.753,40.92c4.312,14.098,17.324,23.188,31.355,23.188
	c3.165,0,6.385-0.463,9.565-1.436c13.253-4.053,22.072-15.798,23.082-28.847l24.46,19.665c0.067,0.053,0.133,0.106,0.201,0.156
	c7.52,5.634,16.781,8.003,26.09,6.667c9.304-1.336,17.529-6.214,23.156-13.733l3.413-4.557v206.964
	c0,19.216,15.305,35.384,34.109,36.042c9.695,0.354,18.883-3.16,25.857-9.886c6.983-6.734,10.828-15.787,10.828-25.489v-95.322
	c0-0.038,0.006-0.074,0.006-0.112s-0.005-0.074-0.006-0.112v-23.046c0-5.57,4.131-10.214,9.412-10.572
	c2.979-0.206,5.78,0.84,7.884,2.945c1.918,1.918,2.975,4.46,2.975,7.156v118.441c0,19.532,15.601,35.691,34.789,36.022
	c0.195,0.003,0.391,0.005,0.586,0.005c9.462,0,18.338-3.667,25.061-10.374c6.679-6.694,10.357-15.584,10.357-25.032V268.963
	l33.678,44.965c-15.377,2.692-27.105,16.133-27.105,32.269c0,18.069,14.7,32.769,32.769,32.769c18.069,0,32.769-14.7,32.769-32.769
	c0-5.237-1.242-10.187-3.436-14.583c6.656-0.72,12.979-3.321,18.338-7.644c7.093-5.711,11.345-13.837,12.551-22.444
	c4.26,2.031,9.024,3.17,14.048,3.17c18.069,0,32.769-14.7,32.769-32.769S466.799,239.159,448.73,239.159z M231.043,162.753
	c6.978,1.914,14.314,2.957,21.892,2.957s14.914-1.043,21.893-2.957v10.822c0,12.072-9.822,21.892-21.893,21.892
	s-21.892-9.82-21.892-21.892L231.043,162.753L231.043,162.753z M252.936,14.947c19.021,0,37.126,8.131,49.861,21.846h-99.723
	C215.81,23.079,233.915,14.947,252.936,14.947z M185.056,83.936h105.441c4.128,0,7.474-3.346,7.474-7.474s-3.346-7.474-7.474-7.474
	H179.985c-4.756,0-8.624-3.869-8.624-8.624s3.868-8.624,8.624-8.624h145.9c4.756,0,8.624,3.869,8.624,8.624
	s-3.868,8.624-8.624,8.624h-11.243c-4.128,0-7.474,3.346-7.474,7.474c0,4.128,3.346,7.474,7.474,7.474h6.173
	c-0.582,36.946-30.798,66.827-67.88,66.827S185.638,120.881,185.056,83.936z M96.839,157.168c2.234-4.204,5.972-7.285,10.524-8.678
	c1.73-0.529,3.48-0.781,5.202-0.781c7.63,0,14.708,4.944,17.053,12.611c2.875,9.397-2.433,19.381-11.83,22.256
	c-4.551,1.392-9.373,0.929-13.578-1.306c-4.204-2.234-7.284-5.972-8.676-10.524S94.605,161.372,96.839,157.168z M68.486,275.321
	c-9.396,2.873-19.381-2.433-22.256-11.83c-2.875-9.397,2.433-19.381,11.83-22.256c1.73-0.529,3.48-0.781,5.203-0.781
	c7.63,0,14.708,4.944,17.053,12.612l0,0C83.191,262.462,77.884,272.446,68.486,275.321z M157.883,264.564
	c-3.236,4.323-7.964,7.128-13.314,7.896c-5.312,0.763-10.602-0.574-14.908-3.762l-42.655-34.294
	c-0.067-0.054-0.135-0.107-0.204-0.158c-5.207-3.899-8.194-9.875-8.194-16.393c0-4.435,1.413-8.667,4.086-12.24
	c6.708-8.96,19.417-10.84,28.435-4.252l17.434,15.087v16.387c0,4.128,3.346,7.474,7.474,7.474c4.128,0,7.474-3.346,7.474-7.474
	v-17.307l4.02-5.372l24.057,36.106L157.883,264.564z M314.192,491.056c-3.963,3.954-9.255,6.084-14.829,5.994
	c-11.077-0.191-20.089-9.646-20.089-21.077v-87.339h40.897v87.96C320.171,482.056,318.042,487.196,314.192,491.056z M374.46,364.021
	c-9.827,0-17.822-7.995-17.822-17.822c0-9.827,7.995-17.822,17.822-17.822c9.827,0,17.822,7.995,17.822,17.822
	C392.282,356.027,384.287,364.021,374.46,364.021z M412.752,312.334c-4.368,3.523-9.825,5.081-15.384,4.384
	c-5.56-0.698-10.471-3.551-13.829-8.037l-46.028-61.455l18.518-18.518c2.919-2.918,2.919-7.651,0.001-10.569
	c-2.918-2.918-7.651-2.919-10.569,0l-10.337,10.337v-5.989c0-4.128-3.346-7.474-7.474-7.474c-4.128,0-7.474,3.346-7.474,7.474
	v23.961c0,0.024-0.006,0.047-0.006,0.07v55.881h-10.128c-4.128,0-7.474,3.346-7.474,7.474c0,4.128,3.346,7.474,7.474,7.474h10.128
	v56.34h-40.897v-16.155c0-6.688-2.611-12.984-7.353-17.725c-5.13-5.13-12.234-7.788-19.474-7.289
	c-13.087,0.89-23.34,12.084-23.34,25.485v15.683h-21.396c-4.128,0-7.474,3.346-7.474,7.474c0,4.128,3.346,7.474,7.474,7.474h21.396
	v87.96c0,5.608-2.223,10.839-6.256,14.73c-4.027,3.883-9.347,5.91-14.949,5.706c-10.859-0.379-19.693-9.847-19.693-21.104V317.346
	h93.09c4.128,0,7.474-3.346,7.474-7.474c0-4.128-3.346-7.474-7.474-7.474h-93.09v-53.385l17.1-22.831
	c2.474-3.303,1.802-7.988-1.502-10.462c-3.303-2.474-7.988-1.803-10.462,1.502l-12.248,16.353l-24.063-36.114l4.006-5.354
	c7.239-9.66,16.773-17.622,27.572-23.027c8.558-4.288,17.937-6.964,27.484-7.889v12.382c0,20.314,16.526,36.84,36.84,36.84
	s36.84-16.526,36.84-36.84v-12.587c22.638,1.463,43.878,12.858,57.562,31.117l68.539,91.523
	C422.622,292.639,421.223,305.515,412.752,312.334z M448.73,289.751c-9.827,0-17.822-7.995-17.822-17.822
	c0-9.827,7.995-17.822,17.822-17.822c9.827,0,17.822,7.995,17.822,17.822C466.552,281.756,458.558,289.751,448.73,289.751z"/>
<g>
</g>
<g>
</g>
<g>
</g>
<g>
</g>
<g>
</g>
<g>
</g>
<g>
</g>
<g>
</g>
<g>
</g>
<g>
</g>
<g>
</g>
<g>
</g>
<g>
</g>
<g>
</g>
<g>
</g>
</svg>
