<?xml version="1.0" encoding="iso-8859-1"?>
<!-- Generator: Adobe Illustrator 19.0.0, SVG Export Plug-In . SVG Version: 6.00 Build 0)  -->
<svg version="1.1" id="Layer_1" xmlns="http://www.w3.org/2000/svg" xmlns:xlink="http://www.w3.org/1999/xlink" x="0px" y="0px"
	 viewBox="0 0 512 512" style="enable-background:new 0 0 512 512;" xml:space="preserve">
<path style="fill:#EAD26C;" d="M405.125,377.569v29.322L31.908,442.453c-4.409-1.19-8.444-3.266-11.908-6.03
	c-1.003-0.781-1.948-1.633-2.846-2.531c-6.018-6.007-9.739-14.323-9.739-23.502c0-18.358,14.883-33.241,33.241-33.241h337.644
	C380.083,377.149,403.422,377.289,405.125,377.569z"/>
<path style="fill:#FEE572;" d="M405.125,388.964v17.927L31.908,442.453c-4.409-1.19-8.444-3.266-11.908-6.03
	c-2.088-4.35-3.254-9.226-3.254-14.369c0-18.358,14.883-33.241,33.241-33.241H387.63C388.714,388.813,397.8,388.859,405.125,388.964
	z"/>
<g>
	<path style="fill:#7D7878;" d="M504.252,419.583v50.279h-40.858l-9.516-62.971h37.683
		C498.571,406.891,504.252,412.573,504.252,419.583z"/>
	<path style="fill:#7D7878;" d="M402.011,406.891v62.971H31.908v-50.279c0-7.01,5.682-12.692,12.692-12.692H402.011z"/>
</g>
<polygon style="fill:#FEE572;" points="469.109,64.428 377.327,167.22 327.758,167.22 326.008,165.47 448.08,43.399 "/>
<polygon style="fill:#999999;" points="398.905,157.889 398.905,194.617 289.463,194.617 289.463,157.889 329.997,157.889 "/>
<path style="fill:#FD6568;" d="M304.819,157.889v36.728H197.225c-5.074,0-9.657-2.053-12.981-5.377
	c-3.336-3.324-5.388-7.919-5.388-12.993c0-10.135,8.234-18.358,18.37-18.358H304.819z"/>
<rect x="364.108" y="406.889" style="fill:#666666;" width="37.906" height="62.971"/>
<path style="fill:#E0555C;" d="M469.74,406.891l6.52,62.971h-92.712v-62.971v-29.322V194.617v-36.728v-33.567
	c0-4.979,4.037-9.016,9.016-9.016h22.557h16.27c4.62,0,8.492,3.492,8.968,8.086L469.74,406.891z"/>
<polygon style="fill:#FD6568;" points="392.878,460.531 392.878,143.127 426.802,143.127 452.85,410.753 457.69,460.531 "/>
<path d="M504.419,399.748h-27.676l-14.678-141.664c-0.432-4.165-4.158-7.192-8.322-6.759c-4.165,0.432-7.192,4.157-6.759,8.322
	l21.042,203.073h-76.73V123.33h41.564l10.702,103.289c0.432,4.165,4.148,7.189,8.322,6.759c4.165-0.432,7.192-4.157,6.759-8.322
	l-11.407-110.089c-0.4-3.864-3.656-6.8-7.54-6.8h-6.105l40.08-40.08c2.961-2.961,2.961-7.761,0-10.721l-21.029-21.029
	c-2.96-2.96-7.761-2.96-10.721,0L327.512,150.746H197.4c-14.31,0-25.951,11.641-25.951,25.95c0,14.309,11.641,25.95,25.951,25.95
	h178.732v167.362H117.209c-4.187,0-7.581,3.394-7.581,7.581s3.394,7.581,7.581,7.581h258.922v14.579h-43.15
	c-4.187,0-7.581,3.394-7.581,7.581s3.394,7.581,7.581,7.581h43.15v47.808H39.656v-47.808h260.669c4.187,0,7.581-3.394,7.581-7.581
	s-3.394-7.581-7.581-7.581H32.074c-4.187,0-7.581,3.394-7.581,7.581v23.271c-0.626-0.518-1.239-1.057-1.817-1.635
	c-4.845-4.837-7.514-11.277-7.514-18.138c0-14.149,11.511-25.659,25.659-25.659h48.395c4.187,0,7.581-3.394,7.581-7.581
	c0-4.187-3.394-7.581-7.581-7.581H40.822C18.313,370.007,0,388.319,0,410.828c0,10.915,4.249,21.167,11.96,28.863
	c3.624,3.624,7.89,6.507,12.533,8.534v22.075c0,4.187,3.394,7.581,7.581,7.581h472.344c4.187,0,7.581-3.394,7.581-7.581v-62.971
	C512,403.142,508.606,399.748,504.419,399.748z M447.28,52.419l10.307,10.307l-45.441,45.441h-20.615L447.28,52.419z
	 M376.131,123.568v27.177h-27.177L376.131,123.568z M186.611,176.695c0-5.948,4.839-10.787,10.789-10.787h100.008v21.575H197.4
	C191.45,187.482,186.611,182.643,186.611,176.695z M312.57,187.482v-21.575h63.562v21.575H312.57z M496.838,462.719h-13.57
	l-4.953-47.808h18.524L496.838,462.719L496.838,462.719z"/>
<g>
</g>
<g>
</g>
<g>
</g>
<g>
</g>
<g>
</g>
<g>
</g>
<g>
</g>
<g>
</g>
<g>
</g>
<g>
</g>
<g>
</g>
<g>
</g>
<g>
</g>
<g>
</g>
<g>
</g>
</svg>
