<?xml version="1.0" encoding="iso-8859-1"?>
<!-- Generator: Adobe Illustrator 19.0.0, SVG Export Plug-In . SVG Version: 6.00 Build 0)  -->
<svg version="1.1" id="Layer_1" xmlns="http://www.w3.org/2000/svg" xmlns:xlink="http://www.w3.org/1999/xlink" x="0px" y="0px"
	 viewBox="0 0 512 512" style="enable-background:new 0 0 512 512;" xml:space="preserve">
<path style="fill:#C0E8F6;" d="M255.803,8.449c136.432,0,247.026,110.594,247.026,247.026s-110.594,247.04-247.026,247.04
	S8.763,391.908,8.763,255.476S119.371,8.449,255.803,8.449z"/>
<path style="fill:#ACD9E5;" d="M502.829,255.476c0,77.597-35.77,146.847-91.737,192.136c-42.419,34.336-96.454,54.904-155.29,54.904
	c-136.432,0-247.04-110.608-247.04-247.04c0-108.139,69.485-200.041,166.229-233.507c25.328-8.76,52.517-13.519,80.811-13.519
	C392.235,8.449,502.829,119.044,502.829,255.476z"/>
<path style="fill:#C0E8F6;" d="M502.829,255.476c0,77.597-35.77,146.847-91.737,192.136c-25.314,8.76-52.504,13.519-80.797,13.519
	c-136.432,0-247.04-110.608-247.04-247.04c0-77.597,35.784-146.834,91.737-192.122c25.328-8.76,52.517-13.519,80.811-13.519
	C392.235,8.449,502.829,119.044,502.829,255.476z"/>
<path d="M482.981,137.504c-18.371-35.119-45.105-65.97-77.314-89.216c-4.017-2.9-9.621-1.992-12.519,2.022
	c-2.898,4.016-1.992,9.621,2.022,12.519c8.742,6.31,17.035,13.238,24.843,20.673c-53.066,15.399-108.162,23.221-164.011,23.221
	c-55.836,0-110.905-7.816-163.93-23.204C134.796,42.898,192.536,17.933,256,17.933c38.117,0,74.527,8.735,108.219,25.959
	c4.41,2.254,9.811,0.506,12.066-3.903c2.254-4.409,0.508-9.811-3.903-12.066C336.139,9.396,296.983,0,256,0
	C114.842,0,0,114.842,0,256s114.842,256,256,256s256-114.842,256-256C512,214.771,501.966,173.796,482.981,137.504z M256,494.067
	c-81.538,0-153.623-41.212-196.548-103.893c63.073,21.651,129.067,32.62,196.552,32.62c41.712,0,83.391-4.268,123.877-12.687
	c4.849-1.007,7.961-5.755,6.954-10.604c-1.007-4.848-5.751-7.96-10.604-6.954c-39.288,8.169-79.739,12.311-120.227,12.311
	c-72.842,0-143.881-13.163-211.215-39.11c-14.354-27.513-23.493-58.157-26.086-90.621c13.253,5.652,26.762,10.853,40.32,15.515
	c0.966,0.332,1.951,0.49,2.918,0.49c3.722,0,7.2-2.335,8.478-6.053c1.61-4.683-0.88-9.785-5.562-11.396
	c-15.824-5.444-31.577-11.644-46.914-18.451c0.083-26.096,4.385-51.215,12.261-74.714c71.752,28.873,147.665,43.513,225.8,43.513
	c48.578,0,96.921-5.772,143.684-17.154c4.812-1.171,7.762-6.022,6.591-10.833c-1.171-4.812-6.026-7.765-10.833-6.591
	c-45.377,11.044-92.292,16.644-139.444,16.644c-75.958,0-149.743-14.252-219.464-42.36c10.208-24.194,24.315-46.35,41.513-65.703
	c57.415,17.647,117.246,26.616,177.951,26.616c60.716,0,120.572-8.975,178.031-26.633c12.905,14.537,24.067,30.607,33.056,47.791
	c3.057,5.844,5.846,11.826,8.398,17.91c-14.948,6.021-30.24,11.468-45.58,16.216c-4.732,1.464-7.379,6.486-5.915,11.217
	c1.19,3.849,4.736,6.319,8.564,6.319c0.877,0,1.771-0.13,2.653-0.403c15.675-4.85,31.301-10.411,46.581-16.555
	c7.989,23.991,12.181,49.295,12.262,74.726c-75.071,33.331-155.126,50.237-238.05,50.237c-35.752,0-71.554-3.234-106.416-9.611
	c-4.87-0.89-9.542,2.335-10.433,7.208c-0.891,4.872,2.335,9.542,7.208,10.433c35.922,6.571,72.811,9.903,109.641,9.903
	c82.498,0,162.249-16.239,237.291-48.278c-2.595,32.461-11.731,63.101-26.083,90.611c-16.311,6.284-33.06,11.897-49.848,16.681
	c-4.762,1.357-7.522,6.318-6.165,11.081c1.123,3.941,4.714,6.511,8.619,6.511c0.814,0,1.64-0.112,2.462-0.345
	c10.134-2.887,20.252-6.075,30.277-9.513C409.635,452.849,337.545,494.067,256,494.067z"/>
<path d="M119.975,289.657c-8.941-2.12-17.94-4.481-26.75-7.015c-4.762-1.371-9.727,1.378-11.097,6.137
	c-1.37,4.759,1.378,9.727,6.137,11.097c9.081,2.614,18.358,5.046,27.573,7.231c0.695,0.166,1.391,0.244,2.076,0.244
	c4.06,0,7.74-2.777,8.717-6.9C127.773,295.632,124.793,290.799,119.975,289.657z"/>
<g>
</g>
<g>
</g>
<g>
</g>
<g>
</g>
<g>
</g>
<g>
</g>
<g>
</g>
<g>
</g>
<g>
</g>
<g>
</g>
<g>
</g>
<g>
</g>
<g>
</g>
<g>
</g>
<g>
</g>
</svg>
