<?xml version="1.0" encoding="iso-8859-1"?>
<!-- Generator: Adobe Illustrator 19.0.0, SVG Export Plug-In . SVG Version: 6.00 Build 0)  -->
<svg version="1.1" id="Layer_1" xmlns="http://www.w3.org/2000/svg" xmlns:xlink="http://www.w3.org/1999/xlink" x="0px" y="0px"
	 viewBox="0 0 511.999 511.999" style="enable-background:new 0 0 511.999 511.999;" xml:space="preserve">
<path style="fill:#F2D766;" d="M361.938,115.43v72.97c0,4.272-3.525,7.715-7.82,7.586c-4.155-0.128-7.353-3.747-7.353-7.902v-50.047
	c0-8.929-7.236-16.165-16.165-16.165H181.043c-8.917,0-16.153,7.236-16.153,16.165V188.4c0,4.272-3.525,7.715-7.82,7.586
	c-4.155-0.128-7.353-3.747-7.353-7.902V115.43c0-22.187,17.986-40.185,40.185-40.185h131.852
	C343.941,75.246,361.938,93.231,361.938,115.43z"/>
<path style="fill:#FD6568;" d="M57.408,172.97v255.756h396.839V172.97H57.408z"/>
<g>
	<path style="fill:#FEE572;" d="M504.248,217.38v198.332c0,7.19-5.836,13.014-13.025,13.014h-47.771V172.97h16.387
		C484.36,172.97,504.248,192.858,504.248,217.38z"/>
	<path style="fill:#FEE572;" d="M68.204,172.97v255.756H20.433c-7.19,0-13.014-5.824-13.014-13.014V217.38
		c0-24.522,19.876-44.41,44.398-44.41H68.204z"/>
</g>
<g>
	<path style="fill:#E0555C;" d="M394.595,338.821v32.12c0,10.049-8.147,18.196-18.184,18.196H312.16
		c-10.037,0-18.184-8.147-18.184-18.196v-32.12H394.595z"/>
	<path style="fill:#E0555C;" d="M217.692,338.821v32.12c0,10.049-8.147,18.196-18.196,18.196h-64.239
		c-10.049,0-18.196-8.147-18.196-18.196v-32.12H217.692z"/>
</g>
<path style="fill:#FEE572;" d="M394.595,322.481v32.12c0,10.049-8.147,18.196-18.184,18.196H312.16
	c-10.037,0-18.184-8.147-18.184-18.196v-32.12H394.595z"/>
<path style="fill:#F2D766;" d="M394.362,322.481c-1.389,8.672-8.894,15.301-17.951,15.301H312.16
	c-9.057,0-16.562-6.629-17.951-15.301H394.362z"/>
<path style="fill:#FEE572;" d="M217.692,322.481v32.12c0,10.049-8.147,18.196-18.196,18.196h-64.239
	c-10.049,0-18.196-8.147-18.196-18.196v-32.12H217.692z"/>
<rect x="57.412" y="399.652" style="fill:#E0555C;" width="396.839" height="29.073"/>
<g>
	<path style="fill:#F2D766;" d="M7.42,399.652h60.785v29.073H20.433c-7.19,0-13.014-5.824-13.014-13.014
		C7.42,415.712,7.42,399.652,7.42,399.652z"/>
	<path style="fill:#F2D766;" d="M504.248,399.652v16.06c0,7.19-5.836,13.014-13.025,13.014h-47.771v-29.073H504.248z"/>
	<path style="fill:#F2D766;" d="M217.452,322.481c-1.389,8.672-8.894,15.301-17.951,15.301h-64.251
		c-9.057,0-16.562-6.629-17.951-15.301H217.452z"/>
</g>
<path d="M460.011,165.832h-97.897v-49.95c0-22.162-18.029-40.192-40.192-40.192H190.078c-22.162,0-40.192,18.03-40.192,40.192v49.95
	H51.99C23.322,165.832,0,189.154,0,217.821v198.33c0,11.36,9.243,20.602,20.604,20.602h470.793c11.36,0,20.602-9.243,20.602-20.602
	v-198.33C512,189.154,488.677,165.832,460.011,165.832z M165.061,129.906H288.1c4.19,0,7.586-3.396,7.586-7.586
	c0-4.19-3.396-7.586-7.586-7.586H165.119c0.606-13.261,11.552-23.872,24.96-23.872h131.844c13.407,0,24.354,10.61,24.96,23.872
	h-30.187c-4.19,0-7.586,3.396-7.586,7.586c0,4.19,3.396,7.586,7.586,7.586h30.245v35.925H165.061V129.906z M15.173,416.152V217.821
	c0-20.301,16.516-36.817,36.817-36.817h8.804V421.58h-40.19C17.61,421.582,15.173,419.146,15.173,416.152z M496.827,416.152
	c0,2.994-2.436,5.43-5.43,5.43h-40.19V243.697c0-4.19-3.396-7.586-7.586-7.586s-7.586,3.396-7.586,7.586v177.885H75.967V181.005
	h360.068v33.514c0,4.19,3.396,7.586,7.586,7.586s7.586-3.396,7.586-7.586v-33.514h8.804c20.301,0,36.816,16.516,36.816,36.817
	V416.152z"/>
<path d="M397.501,241.299h-12.328v-7.088c0-4.19-3.396-7.586-7.586-7.586S370,230.021,370,234.211v7.088h-15.224v-7.088
	c0-4.19-3.396-7.586-7.586-7.586s-7.586,3.396-7.586,7.586v7.088h-15.224v-7.088c0-4.19-3.396-7.586-7.586-7.586
	s-7.586,3.396-7.586,7.586v7.088h-15.223v-7.088c0-4.19-3.396-7.586-7.586-7.586s-7.586,3.396-7.586,7.586v7.088h-15.223v-7.088
	c0-4.19-3.396-7.586-7.586-7.586c-4.19,0-7.586,3.396-7.586,7.586v7.088H233.19v-7.088c0-4.19-3.396-7.586-7.586-7.586
	s-7.586,3.396-7.586,7.586v7.088h-15.224v-7.088c0-4.19-3.396-7.586-7.586-7.586s-7.586,3.396-7.586,7.586v7.088h-15.223v-7.088
	c0-4.19-3.396-7.586-7.586-7.586c-4.19,0-7.586,3.396-7.586,7.586v7.088H142v-7.088c0-4.19-3.396-7.586-7.586-7.586
	c-4.19,0-7.586,3.396-7.586,7.586v7.088H114.5c-4.19,0-7.586,3.396-7.586,7.586s3.396,7.586,7.586,7.586h12.329v7.088
	c0,4.19,3.396,7.586,7.586,7.586s7.586-3.396,7.586-7.586v-7.088h15.224v7.088c0,4.19,3.396,7.586,7.586,7.586
	s7.586-3.396,7.586-7.586v-7.088h15.223v7.088c0,4.19,3.396,7.586,7.586,7.586c4.19,0,7.586-3.396,7.586-7.586v-7.088h15.224v7.088
	c0,4.19,3.396,7.586,7.586,7.586s7.586-3.396,7.586-7.586v-7.088h15.224v7.088c0,4.19,3.396,7.586,7.586,7.586
	c4.19,0,7.586-3.396,7.586-7.586v-7.088h15.224v7.088c0,4.19,3.396,7.586,7.586,7.586s7.586-3.396,7.586-7.586v-7.088h15.223v7.088
	c0,4.19,3.396,7.586,7.586,7.586s7.586-3.396,7.586-7.586v-7.088h15.224v7.088c0,4.19,3.396,7.586,7.586,7.586
	c4.19,0,7.586-3.396,7.586-7.586v-7.088h15.224v40.629c0,4.19,3.396,7.586,7.586,7.586s7.586-3.396,7.586-7.586v-40.629h12.328
	c4.19,0,7.586-3.396,7.586-7.586C405.09,244.696,401.691,241.299,397.501,241.299z"/>
<path d="M217.857,316.176H163.8c-4.19,0-7.586,3.396-7.586,7.586s3.396,7.586,7.586,7.586h46.471v24.534
	c0,5.847-4.757,10.603-10.605,10.603h-64.243c-5.847,0-10.603-4.757-10.603-10.603v-24.534h12.135c4.19,0,7.586-3.396,7.586-7.586
	s-3.396-7.586-7.586-7.586h-19.721c-4.19,0-7.586,3.396-7.586,7.586v32.121c0,14.213,11.563,25.776,25.776,25.776h64.243
	c14.215,0,25.777-11.564,25.777-25.776v-32.121C225.444,319.572,222.047,316.176,217.857,316.176z"/>
<path d="M394.767,316.176H294.143c-4.19,0-7.586,3.396-7.586,7.586v32.121c0,14.213,11.563,25.776,25.776,25.776h64.243
	c14.215,0,25.777-11.564,25.777-25.776v-32.121C402.353,319.572,398.957,316.176,394.767,316.176z M387.18,355.883
	c0,5.847-4.757,10.603-10.605,10.603h-64.243c-5.847,0-10.603-4.757-10.603-10.603v-24.534h85.451V355.883z"/>
<g>
</g>
<g>
</g>
<g>
</g>
<g>
</g>
<g>
</g>
<g>
</g>
<g>
</g>
<g>
</g>
<g>
</g>
<g>
</g>
<g>
</g>
<g>
</g>
<g>
</g>
<g>
</g>
<g>
</g>
</svg>
