<?xml version="1.0" encoding="iso-8859-1"?>
<!-- Generator: Adobe Illustrator 19.0.0, SVG Export Plug-In . SVG Version: 6.00 Build 0)  -->
<svg version="1.1" id="Layer_1" xmlns="http://www.w3.org/2000/svg" xmlns:xlink="http://www.w3.org/1999/xlink" x="0px" y="0px"
	 viewBox="0 0 512 512" style="enable-background:new 0 0 512 512;" xml:space="preserve">
<g>
	<path style="fill:#EFBF8B;" d="M323.357,391.16v87.453c0,7.068-2.866,13.467-7.487,18.1c-4.633,4.633-11.032,7.498-18.1,7.498
		c-14.136,0-25.587-11.451-25.587-25.598V391.16l24.431-18.244L323.357,391.16z"/>
	<path style="fill:#EFBF8B;" d="M239.903,391.16v87.453c0,14.453-11.95,26.096-26.516,25.575
		c-13.864-0.487-24.658-12.312-24.658-26.187V391.16l24.824-18.998L239.903,391.16z"/>
</g>
<g>
	<path style="fill:#E5AE7B;" d="M207.985,478.001V391.16l15.483-11.85l-9.914-7.148l-24.824,18.998v86.841
		c0,13.875,10.794,25.7,24.658,26.187c3.766,0.135,7.355-0.549,10.611-1.88C214.542,498.381,207.985,488.814,207.985,478.001z"/>
	<path style="fill:#E5AE7B;" d="M291.439,478.001V391.16l15.483-11.85l-9.914-7.148l-24.824,18.998v86.841
		c0,13.875,10.794,25.7,24.658,26.187c3.766,0.135,7.355-0.549,10.611-1.88C297.996,498.381,291.439,488.814,291.439,478.001z"/>
	<path style="fill:#E5AE7B;" d="M281.8,182.389l14.06,62.16c0,14.872-25.164,11.022-40.025,11.022
		c-7.43,0-41.187-12.947-46.057-17.818s-12.082-29.404-12.082-36.834l30.279-18.53l2.413-26.187
		c7.611,2.888,15.869-0.755,24.499-0.755c8.631,0,3.976,5.845,11.587,2.956L281.8,182.389z"/>
</g>
<path style="fill:#666666;" d="M314.251,82.42l-46.654,7.759l-10.998,1.835l-61.062-9.594
	c12.051-20.184,34.116-33.719,59.351-33.719c3.862,0,7.634,0.317,11.327,0.929C286.636,52.994,304.034,65.317,314.251,82.42z"/>
<path style="fill:#7D7878;" d="M314.251,82.42l-46.654,7.759L218.19,82.42c10.205-17.103,27.603-29.426,48.025-32.79
	C286.636,52.994,304.034,65.317,314.251,82.42z"/>
<path style="fill:#E5AE7B;" d="M323.969,117.782c0,29.528-18.519,54.719-44.581,64.607c-3.93,1.484-8.019,2.628-12.255,3.387
	c-3.964,0.714-8.065,1.087-12.244,1.087c-8.631,0-16.888-1.586-24.499-4.474c-26.062-9.888-44.581-35.078-44.581-64.607
	c0-1.993,0.091-3.964,0.26-5.912c0.43,0.034,0.872,0.057,1.314,0.057l64.924-13.354l12.708,2.424l57.38,10.93
	c0.453,0,0.895-0.023,1.325-0.057C323.89,113.817,323.969,115.788,323.969,117.782z"/>
<g>
	<path style="fill:#EFBF8B;" d="M323.969,117.782c0,29.528-18.519,54.719-44.581,64.607c-3.93,1.484-8.019,2.628-12.255,3.387
		c-4.236-0.748-8.336-1.892-12.267-3.387c-26.062-9.888-44.581-35.078-44.581-64.607c0-1.993,0.091-3.964,0.26-5.912
		c0.43,0.034,0.872,0.057,1.314,0.057l53.156-10.93l57.38,10.93c0.453,0,0.895-0.023,1.325-0.057
		C323.89,113.817,323.969,115.788,323.969,117.782z"/>
	<path style="fill:#EFBF8B;" d="M409.7,297.671c8.314,11.111,6.762,27.037-4.044,35.747c-11.338,9.141-27.909,6.989-36.551-4.576
		l-45.748-61.073l9.503-26.995l27.059-9.568h0.011L409.7,297.671z"/>
</g>
<path style="fill:#E5AE7B;" d="M397.66,337.789c-10.171,3.387-21.792,0.102-28.554-8.948l-45.748-61.073l5.369-15.246l56.52,76.318
	C388.496,333.191,392.868,336.204,397.66,337.789z"/>
<path style="fill:#EFBF8B;" d="M188.729,267.768l-45.737,61.073c-5.029,6.717-12.72,10.251-20.512,10.251
	c-5.323,0-10.715-1.665-15.314-5.108c-11.315-8.472-13.615-24.511-5.142-35.815l50.143-66.963l25.895,11.076L188.729,267.768z"/>
<path style="fill:#E5AE7B;" d="M124.534,333.984c-11.315-8.472-13.615-24.511-5.142-35.815l45.929-61.337l-13.155-5.626
	l-50.143,66.963c-8.472,11.304-6.173,27.342,5.142,35.815c4.599,3.443,9.99,5.108,15.314,5.108c2.973,0,5.929-0.518,8.731-1.527
	C128.876,336.723,126.621,335.547,124.534,333.984z"/>
<path style="fill:#FD6568;" d="M323.72,111.869c-0.43,0.034-0.872,0.057-1.325,0.057H187.382c-0.442,0-0.883-0.023-1.314-0.057
	c-7.17-0.668-12.776-6.694-12.776-14.034v-1.314c0-7.781,6.309-14.102,14.09-14.102h8.155h118.714h8.144
	c7.793,0,14.102,6.32,14.102,14.102v1.314C336.496,105.164,330.889,111.19,323.72,111.869z"/>
<path style="fill:#E0555C;" d="M203.873,97.836v-1.314c0-7.781,6.309-14.102,14.09-14.102h-22.427h-8.155
	c-7.781,0-14.09,6.32-14.09,14.102v1.314c0,7.34,5.607,13.365,12.776,14.034c0.43,0.034,0.872,0.057,1.314,0.057h30.582
	c-0.442,0-0.883-0.023-1.314-0.057C209.48,111.201,203.873,105.175,203.873,97.836z"/>
<path style="fill:#FD6568;" d="M323.357,325.828v65.332h-51.173v-21.656c0-4.451-1.812-8.484-4.735-11.406
	c-2.922-2.911-6.954-4.723-11.406-4.723c-8.903,0-16.14,7.226-16.14,16.129v21.656h-51.173v-65.332l19.255-4.848l60.688-15.268
	L323.357,325.828z"/>
<path style="fill:#C0E8F6;" d="M359.931,231.206h-0.011l-36.562,36.562v58.06H188.729v-58.06l-36.562-36.562l13.037-17.409
	c7.408-9.877,16.922-17.726,27.682-23.118c10.738-5.38,22.732-8.291,35.09-8.291v18.53c0,7.43,3.013,14.158,7.883,19.029
	c4.87,4.87,11.598,7.883,19.029,7.883c14.86,0,26.912-12.04,26.912-26.912v-18.53h2.311c24.703,0,47.968,11.644,62.783,31.409
	L359.931,231.206z"/>
<polygon style="fill:#E0555C;" points="207.985,320.981 207.985,391.16 188.729,391.16 188.729,325.828 "/>
<path style="fill:#AAD6E2;" d="M207.985,287.023v38.805h-19.255v-58.06C199.365,267.768,207.985,276.388,207.985,287.023z"/>
<path style="fill:#E0555C;" d="M291.439,388.77v2.39h-19.255v-21.656c0-4.451-1.812-8.484-4.735-11.406
	c-2.922-2.911-6.954-4.723-11.406-4.723l0,0C275.591,353.375,291.439,369.222,291.439,388.77z"/>
<path style="fill:#AAD6E2;" d="M227.976,182.389v13.082l0,0c-15.67,0-30.608,6.635-41.113,18.263l-24.762,27.406l-9.933-9.933
	l13.037-17.409c7.408-9.877,16.922-17.726,27.682-23.118C203.624,185.299,215.619,182.389,227.976,182.389z"/>
<path d="M390.311,61.541C356.593,22.43,307.638,0,256,0c-51.63,0-100.58,22.424-134.296,61.524
	c-33.718,39.099-48.702,90.813-41.112,141.882l13.873,93.325c-8.306,14.062-5.367,32.613,7.338,42.842
	c7.035,5.673,15.836,8.178,24.79,7.056c6.164-0.774,11.833-3.192,16.53-6.978l10.704,10.704c1.437,1.437,3.322,2.157,5.206,2.157
	s3.768-0.719,5.207-2.157c2.875-2.876,2.875-7.537-0.001-10.411l-11.468-11.467l28.587-38.167v188.734
	c0,8.795,3.424,17.07,9.654,23.315c6.232,6.218,14.507,9.642,23.302,9.642c18.166,0,32.946-14.785,32.946-32.957v-109.11
	c0-2.336,0.914-4.535,2.573-6.194c1.662-1.66,3.865-2.575,6.206-2.575c4.836,0,8.769,3.934,8.769,8.77v109.11
	c0,9.032,3.579,17.459,10.08,23.727c6.492,6.261,15.033,9.527,24.062,9.204c17.513-0.613,31.761-15.659,31.761-33.543V290.31
	l28.734,38.367l-11.268,11.269c-2.875,2.876-2.875,7.537,0.001,10.411c1.437,1.437,3.322,2.157,5.206,2.157s3.768-0.719,5.207-2.157
	l10.58-10.58c5.764,4.532,12.967,7.11,20.424,7.11c7.157,0,13.982-2.274,19.735-6.581c13.778-10.324,17.158-29.439,8.212-43.781
	l13.858-93.074C439.006,152.374,424.029,100.65,390.311,61.541z M124.76,332.021c-4.945,0.622-9.819-0.767-13.718-3.911
	c-7.545-6.074-8.787-17.556-2.769-25.594l44.758-59.768l26.045,26.045l-41.992,56.065
	C134.093,328.856,129.717,331.399,124.76,332.021z M298.427,497.26c-5.011,0.178-9.73-1.626-13.317-5.087
	c-3.596-3.468-5.577-8.131-5.577-13.129v-80.095h36.455v79.483C315.988,488.475,308.115,496.921,298.427,497.26z M400.506,328.518
	c-3.185,2.383-6.958,3.643-10.91,3.643c-5.431,0-10.419-2.349-13.889-6.445c-0.326-0.591-0.735-1.15-1.237-1.651
	c-0.08-0.08-0.167-0.149-0.249-0.225l-41.079-54.848l13.647-13.647c2.875-2.875,2.875-7.537,0-10.411
	c-2.876-2.876-7.537-2.876-10.413,0l-5.491,5.491v-4.249c0-4.066-3.296-7.362-7.362-7.362c-4.066,0-7.362,3.296-7.362,7.362v20.52
	c-0.102,0.489-0.173,0.988-0.173,1.502v50.697h-9.737c-4.066,0-7.362,3.296-7.362,7.362c0,4.066,3.296,7.362,7.362,7.362h9.737
	v50.605h-36.455v-14.291c0-12.955-10.539-23.495-23.494-23.495c-6.274,0-12.176,2.445-16.617,6.888
	c-4.442,4.441-6.888,10.339-6.888,16.607v14.291h-18.203c-4.066,0-7.362,3.296-7.362,7.362c0,4.066,3.296,7.362,7.362,7.362h18.203
	v80.095c0,10.053-8.174,18.232-18.221,18.232c-4.868,0-9.451-1.897-12.891-5.329c-3.444-3.452-5.342-8.034-5.342-12.902V333.62
	h83.552c4.066,0,7.362-3.296,7.362-7.362c0-4.066-3.296-7.362-7.362-7.362h-83.552v-49.195c0.102-0.489,0.173-0.988,0.173-1.501
	v-22.022c0-4.066-3.296-7.362-7.362-7.362s-7.362,3.296-7.362,7.362v4.249l-19.584-19.584l9.134-12.196
	c11.911-15.892,30.113-26.05,49.7-28.07v10.778c0,18.898,15.375,34.273,34.274,34.273c18.898,0,34.273-15.375,34.273-34.273v-10.954
	c9.226,0.688,18.32,3.159,26.576,7.295c9.824,4.916,18.497,12.16,25.083,20.947l63.18,84.372
	C410.19,311.051,408.547,322.494,400.506,328.518z M286.019,119.72c4.066,0,7.362-3.296,7.362-7.362s-3.296-7.362-7.362-7.362
	h-98.471c-3.713,0-6.734-3.021-6.734-6.735v-1.31c0-3.713,3.021-6.735,6.734-6.735h135.015c3.713,0,6.734,3.021,6.734,6.735v1.31
	c0,3.713-3.021,6.735-6.734,6.735h-11.059c-4.066,0-7.362,3.296-7.362,7.362s3.296,7.362,7.362,7.362h5.232
	c-0.804,33.338-28.152,60.214-61.68,60.214c-7.888,0-15.426-1.503-22.365-4.212v-0.266h-0.674
	c-22.208-8.972-38.032-30.496-38.641-55.736C193.376,119.72,286.019,119.72,286.019,119.72z M210.543,75.492
	c11.526-11.946,27.624-18.994,44.512-18.994c16.887,0,32.985,7.047,44.511,18.994H210.543z M235.507,192.115
	c6.243,1.653,12.793,2.544,19.55,2.544c6.755,0,13.305-0.89,19.549-2.544v9.238c0,10.779-8.769,19.549-19.549,19.549
	c-10.78,0-19.55-8.769-19.55-19.549V192.115z M416.838,201.282l-11.686,78.482l-52.382-69.951
	c-7.951-10.608-18.42-19.353-30.275-25.285c-6.144-3.077-12.673-5.396-19.385-6.922c17.301-14.027,28.388-35.434,28.388-59.391
	c0-0.156-0.009-0.309-0.01-0.466c7.384-3.396,12.534-10.844,12.534-19.49v-1.31c0-11.833-9.626-21.459-21.458-21.459h-4.124
	c-14.133-20.896-38.036-33.718-63.384-33.718c-25.349,0-49.25,12.822-63.385,33.718h-4.124c-11.832,0-21.458,9.626-21.458,21.459
	v1.31c0,8.646,5.15,16.094,12.534,19.49c-0.001,0.156-0.01,0.309-0.01,0.466c0,24.171,11.289,45.742,28.858,59.76
	c-19.035,4.723-36.226,15.897-48.173,31.839l-52.453,70.044l-11.687-78.617c-6.961-46.829,6.779-94.248,37.697-130.102
	S208.659,14.725,256,14.725c47.351,0,92.24,20.568,123.157,56.43C410.078,107.018,423.812,154.447,416.838,201.282z"/>
<g>
</g>
<g>
</g>
<g>
</g>
<g>
</g>
<g>
</g>
<g>
</g>
<g>
</g>
<g>
</g>
<g>
</g>
<g>
</g>
<g>
</g>
<g>
</g>
<g>
</g>
<g>
</g>
<g>
</g>
</svg>
