<?xml version="1.0" encoding="iso-8859-1"?>
<!-- Generator: Adobe Illustrator 19.0.0, SVG Export Plug-In . SVG Version: 6.00 Build 0)  -->
<svg version="1.1" id="Layer_1" xmlns="http://www.w3.org/2000/svg" xmlns:xlink="http://www.w3.org/1999/xlink" x="0px" y="0px"
	 viewBox="0 0 511.999 511.999" style="enable-background:new 0 0 511.999 511.999;" xml:space="preserve">
<g>
	<path style="fill:#FEC274;" d="M195.155,421.983c2.119,2.119,2.119,5.554,0,7.674l-60.861,60.861
		c-18.463,18.463-48.384,18.463-66.847,0l-46.547-46.536c-18.452-18.463-18.452-48.384,0-66.847l60.863-60.863
		c2.118-2.118,5.553-2.119,7.672-0.001l9.559,9.551l28.864,28.875l28.875,28.875l28.875,28.864L195.155,421.983z M113.939,457.333
		l20.79-20.79L74.886,376.7l-20.79,20.79c-7.216,7.216-7.216,18.919,0,26.135l33.708,33.707
		C95.019,464.549,106.723,464.549,113.939,457.333z"/>
	<path style="fill:#FEC274;" d="M490.768,67.197c18.463,18.463,18.463,48.395,0,66.847l-60.861,60.861
		c-2.119,2.119-5.554,2.119-7.674,0l-9.548-9.548l-28.875-28.875l-28.875-28.864l-28.864-28.875l-9.548-9.548
		c-2.119-2.119-2.119-5.554,0-7.674l60.859-60.862c18.452-18.463,48.384-18.463,66.836,0L490.768,67.197z M457.573,113.688
		c7.216-7.216,7.216-18.919,0-26.135l-33.696-33.708c-7.227-7.216-18.931-7.216-26.146,0l-20.79,20.79l59.843,59.843
		L457.573,113.688z"/>
</g>
<path d="M126.582,418.418c-2.826-2.826-7.41-2.826-10.236,0c-2.827,2.827-2.827,7.41,0,10.236l8.308,8.308l-15.671,15.672
	c-2.124,2.124-4.948,3.294-7.951,3.294c-3.003,0-5.827-1.169-7.951-3.294L59.376,418.93c-2.124-2.124-3.294-4.948-3.294-7.951
	s1.169-5.827,3.294-7.951l15.671-15.671l22.089,22.09c2.827,2.827,7.41,2.827,10.236,0c2.826-2.827,2.827-7.41,0-10.236
	l-27.208-27.208c-1.357-1.357-3.198-2.12-5.118-2.12c-1.92,0-3.76,0.763-5.118,2.12l-20.788,20.788
	c-10.029,10.029-10.029,26.346,0,36.375l33.705,33.705c4.857,4.858,11.317,7.533,18.188,7.533c6.87,0,13.329-2.675,18.188-7.533
	l20.789-20.789c2.827-2.827,2.827-7.41,0-10.236L126.582,418.418z"/>
<path d="M496.047,62.506l-46.541-46.541C439.211,5.669,425.523,0,410.965,0s-28.245,5.669-38.54,15.964l-64.698,64.697
	c-1.357,1.357-2.12,3.198-2.12,5.118s0.763,3.76,2.12,5.118l8.268,8.268L99.152,316.009l-8.268-8.268
	c-2.826-2.826-7.41-2.826-10.236,0l-64.697,64.697c-21.25,21.251-21.25,55.83,0,77.082l46.541,46.541
	c10.626,10.626,24.583,15.938,38.54,15.938s27.915-5.313,38.54-15.938l64.698-64.698c1.357-1.357,2.12-3.198,2.12-5.118
	s-0.763-3.761-2.12-5.118l-8.268-8.268l216.843-216.843l8.268,8.268c1.413,1.413,3.266,2.12,5.118,2.12
	c1.852,0,3.705-0.707,5.118-2.12l12.906-12.906c2.827-2.827,2.827-7.41,0-10.236c-2.826-2.826-7.41-2.826-10.236,0l-7.788,7.788
	L323.081,85.78l59.579-59.579c7.561-7.561,17.613-11.725,28.304-11.725c10.692,0,20.743,4.164,28.305,11.725l46.541,46.541
	c7.56,7.56,11.724,17.612,11.724,28.303c0,10.692-4.164,20.745-11.724,28.305l-27.572,27.572c-2.827,2.827-2.827,7.41,0,10.236
	c2.826,2.826,7.41,2.826,10.236,0l27.572-27.572C517.299,118.336,517.299,83.758,496.047,62.506z M326.231,109.402l18.635,18.635
	L128.023,344.88l-18.635-18.635L326.231,109.402z M373.738,156.909L156.894,373.752l-18.635-18.635l216.844-216.844L373.738,156.909
	z M129.337,485.825c-7.56,7.56-17.612,11.724-28.303,11.724c-10.692,0-20.745-4.164-28.305-11.724l-46.541-46.541
	c-15.607-15.608-15.607-41.001,0-56.609l59.579-59.579l103.15,103.15L129.337,485.825z M185.767,402.624l-18.635-18.635
	l216.843-216.843l18.635,18.635L185.767,402.624z"/>
<path d="M470.39,101.047c0-6.87-2.675-13.329-7.533-18.188l-33.705-33.704c-4.857-4.858-11.317-7.533-18.188-7.533
	c-6.87,0-13.329,2.675-18.188,7.533l-20.789,20.789c-2.827,2.827-2.827,7.41,0,10.236l59.843,59.843
	c1.357,1.357,3.198,2.12,5.118,2.12c1.92,0,3.76-0.763,5.118-2.12l20.789-20.789C467.715,114.376,470.39,107.917,470.39,101.047z
	 M452.621,108.998l-15.671,15.671l-49.606-49.607l15.671-15.671c2.124-2.124,4.948-3.294,7.951-3.294s5.827,1.169,7.951,3.294
	l33.705,33.704c2.124,2.124,3.294,4.948,3.294,7.951S454.744,106.874,452.621,108.998z"/>
<g>
</g>
<g>
</g>
<g>
</g>
<g>
</g>
<g>
</g>
<g>
</g>
<g>
</g>
<g>
</g>
<g>
</g>
<g>
</g>
<g>
</g>
<g>
</g>
<g>
</g>
<g>
</g>
<g>
</g>
</svg>
