<?xml version="1.0" encoding="iso-8859-1"?>
<!-- Generator: Adobe Illustrator 19.0.0, SVG Export Plug-In . SVG Version: 6.00 Build 0)  -->
<svg version="1.1" id="Layer_1" xmlns="http://www.w3.org/2000/svg" xmlns:xlink="http://www.w3.org/1999/xlink" x="0px" y="0px"
	 viewBox="0 0 511.999 511.999" style="enable-background:new 0 0 511.999 511.999;" xml:space="preserve">
<path style="fill:#C79175;" d="M427.707,24.954h-27.131h-16.568H83.938c-12.19,0-22.083,9.893-22.083,22.083v434.65
	c0,12.202,9.893,22.083,22.083,22.083h343.77c12.202,0,22.083-9.881,22.083-22.083V47.037
	C449.79,34.847,439.908,24.954,427.707,24.954z"/>
<path style="fill:#B57F68;" d="M421.12,84.624V431.21c0,4.113-3.334,7.447-7.447,7.447H97.985c-4.113,0-7.447-3.334-7.447-7.447
	V84.624h30.637h269.306H421.12z"/>
<polygon style="fill:#F2F2F2;" points="413.172,64.287 413.172,418.321 98.483,418.321 98.483,64.287 127.648,64.287 
	384.007,64.287 "/>
<path style="fill:#CCCCCC;" d="M391.956,88.132v17.245c0,4.713-3.821,8.534-8.534,8.534H128.236c-4.713,0-8.534-3.821-8.534-8.534
	V88.132V48.799V39.7c0-4.713,3.821-8.534,8.534-8.534h255.187c4.713,0,8.534,3.821,8.534,8.534v9.099V88.132z"/>
<path style="fill:#FEE572;" d="M384.007,64.287v10.637c0,8.363-6.779,15.142-15.142,15.142H142.791
	c-8.363,0-15.142-6.779-15.142-15.142V64.287V24.954v-2.491c0-8.363,6.779-15.142,15.142-15.142h226.076
	c8.363,0,15.142,6.779,15.142,15.142v2.491v39.333H384.007z"/>
<path d="M449.967,410.043c4.295,0,7.776-3.481,7.776-7.776V47.492c0-16.464-13.395-29.857-29.859-29.857h-35.927V7.776
	c0-4.295-3.481-7.776-7.776-7.776H127.817c-4.295,0-7.776,3.481-7.776,7.776v9.858H84.114c-16.464,0-29.857,13.395-29.857,29.857
	v434.65c0,16.464,13.395,29.858,29.857,29.858h343.77c16.464,0,29.859-13.395,29.859-29.857v-48.773
	c0-4.295-3.481-7.776-7.776-7.776s-7.776,3.481-7.776,7.776v48.773c0,7.888-6.418,14.306-14.307,14.306H84.114
	c-7.888,0-14.306-6.418-14.306-14.306V47.492c0-7.888,6.418-14.306,14.306-14.306h35.929V56.97H98.655
	c-4.295,0-7.776,3.481-7.776,7.776v354.024c0,4.295,3.481,7.776,7.776,7.776h314.69c4.295,0,7.776-3.481,7.776-7.776V64.745
	c0-4.295-3.481-7.776-7.776-7.776h-21.388V33.185h35.927c7.889,0,14.307,6.418,14.307,14.306v354.775
	C442.191,406.56,445.672,410.043,449.967,410.043z M405.569,72.521v338.473H106.43V72.521h13.611v17.995
	c0,4.295,3.481,7.776,7.776,7.776H160.9c4.295,0,7.776-3.481,7.776-7.776c0-4.295-3.481-7.776-7.776-7.776h-25.307V15.551h240.811
	v67.19H186.619c-4.295,0-7.776,3.481-7.776,7.776c0,4.295,3.481,7.776,7.776,7.776h197.56c4.295,0,7.776-3.481,7.776-7.776V72.521
	H405.569z"/>
<path d="M256.896,146.493H146.808c-4.295,0-7.776,3.481-7.776,7.776s3.481,7.776,7.776,7.776h110.088
	c4.295,0,7.776-3.481,7.776-7.776S261.191,146.493,256.896,146.493z"/>
<path d="M256.896,350.505H146.808c-4.295,0-7.776,3.481-7.776,7.776s3.481,7.776,7.776,7.776h110.088
	c4.295,0,7.776-3.481,7.776-7.776S261.191,350.505,256.896,350.505z"/>
<path d="M256.896,214.497H146.808c-4.295,0-7.776,3.481-7.776,7.776c0,4.295,3.481,7.776,7.776,7.776h110.088
	c4.295,0,7.776-3.481,7.776-7.776C264.672,217.978,261.191,214.497,256.896,214.497z"/>
<path d="M256.896,282.501H146.808c-4.295,0-7.776,3.481-7.776,7.776c0,4.295,3.481,7.776,7.776,7.776h110.088
	c4.295,0,7.776-3.481,7.776-7.776C264.672,285.982,261.191,282.501,256.896,282.501z"/>
<path d="M337.007,175.839c1.519,1.518,3.51,2.278,5.499,2.278s3.98-0.76,5.499-2.278l32.142-32.144c3.037-3.037,3.037-7.96,0-10.996
	c-3.035-3.036-7.959-3.036-10.996,0l-26.644,26.646l-14.803-14.804c-3.037-3.036-7.961-3.036-10.996,0
	c-3.037,3.037-3.037,7.96,0,10.996L337.007,175.839z"/>
<path d="M369.152,268.707l-26.646,26.644l-14.804-14.803c-3.035-3.036-7.959-3.036-10.996,0c-3.036,3.037-3.036,7.96,0.001,10.996
	l20.302,20.301c1.518,1.518,3.509,2.278,5.498,2.278s3.98-0.76,5.498-2.278l32.144-32.144c3.037-3.037,3.037-7.96,0.001-10.996
	C377.112,265.671,372.188,265.669,369.152,268.707z"/>
<g>
</g>
<g>
</g>
<g>
</g>
<g>
</g>
<g>
</g>
<g>
</g>
<g>
</g>
<g>
</g>
<g>
</g>
<g>
</g>
<g>
</g>
<g>
</g>
<g>
</g>
<g>
</g>
<g>
</g>
</svg>
