<?xml version="1.0" encoding="iso-8859-1"?>
<!-- Generator: Adobe Illustrator 19.0.0, SVG Export Plug-In . SVG Version: 6.00 Build 0)  -->
<svg version="1.1" id="Layer_1" xmlns="http://www.w3.org/2000/svg" xmlns:xlink="http://www.w3.org/1999/xlink" x="0px" y="0px"
	 viewBox="0 0 511.999 511.999" style="enable-background:new 0 0 511.999 511.999;" xml:space="preserve">
<g>
	<path style="fill:#666363;" d="M365.458,192.903c-2.734,5.553-5.933,11.364-9.574,17.396
		c-14.956,24.751-37.305,52.96-64.839,80.494c-34.215,34.228-69.497,60.425-97.877,74.413
		c-4.671-10.003-93.378,46.033-101.641,37.77s64.606-80.138,54.602-84.809c13.975-28.368,40.186-63.662,74.413-97.889
		c27.301-27.301,55.277-49.502,79.868-64.446c6.24-3.8,12.271-7.123,18.009-9.954c4.671,10.003,62.583-32.058,70.846-23.795
		C397.528,130.344,355.455,188.244,365.458,192.903z"/>
	<path style="fill:#666363;" d="M193.168,365.205c16.783,36.005,10.322,80.163-19.394,109.879
		c-37.979,37.979-99.544,37.979-137.523,0s-37.979-99.557,0-137.523c29.716-29.716,73.874-36.177,109.879-19.394
		c10.003,4.671,19.382,11.131,27.644,19.394C182.037,345.823,188.497,355.202,193.168,365.205z"/>
	<path style="fill:#666363;" d="M475.349,173.521c-15.447,15.447-34.804,24.616-54.884,27.485
		c-18.548,2.66-37.721-0.037-55.007-8.103c-10.003-4.658-19.382-11.119-27.644-19.382c-8.263-8.263-14.723-17.641-19.394-27.644
		c-16.783-36.005-10.322-80.175,19.394-109.891c22.532-22.532,53.364-31.69,82.651-27.497c20.081,2.881,39.438,12.051,54.884,27.497
		C513.328,73.964,513.328,135.542,475.349,173.521z"/>
</g>
<g>
	<path style="fill:#7D7878;" d="M475.349,173.521c-15.447,15.447-34.804,24.616-54.884,27.485
		c-9.341-1.336-18.524-4.033-27.24-8.103c-10.003-4.658-19.382-11.119-27.644-19.382c-8.263-8.263-14.723-17.641-19.394-27.644
		c-16.783-36.005-10.322-80.175,19.394-109.891c15.447-15.447,34.804-24.616,54.884-27.497
		c20.081,2.881,39.438,12.051,54.884,27.497C513.328,73.964,513.328,135.542,475.349,173.521z"/>
	<path style="fill:#7D7878;" d="M173.774,475.096c-15.447,15.447-34.804,24.616-54.884,27.485
		c-9.341-1.336-18.524-4.033-27.24-8.103c-10.003-4.658-19.382-11.119-27.644-19.382s-14.723-17.641-19.394-27.644
		c-16.783-36.005-10.322-80.175,19.394-109.891c15.447-15.447,34.804-24.616,54.884-27.497c20.08,2.881,39.438,12.051,54.884,27.497
		C211.753,375.54,211.753,437.117,173.774,475.096z"/>
</g>
<g>
	<circle style="fill:#999999;" cx="426.508" cy="57.574" r="22.373"/>
	<circle style="fill:#999999;" cx="116.045" cy="353.934" r="22.373"/>
</g>
<path d="M481.158,30.817C461.285,10.945,434.864,0,406.758,0c-28.104,0-54.526,10.945-74.398,30.817s-30.817,46.295-30.817,74.398
	c0,12.997,2.368,25.623,6.85,37.419c-6.714,3.607-13.729,7.804-20.937,12.534c-3.679,2.414-4.705,7.354-2.291,11.033
	c1.53,2.332,4.075,3.599,6.669,3.599c1.501,0,3.016-0.423,4.364-1.307c6.559-4.303,12.919-8.119,18.998-11.415
	c4.63,8.145,10.36,15.732,17.164,22.536s14.391,12.535,22.536,17.164c-14.758,27.225-39.625,59.164-69.302,88.842
	c-29.679,29.679-61.63,54.552-88.869,69.313c-4.569-8.074-10.262-15.678-17.135-22.549c-6.804-6.804-14.39-12.534-22.534-17.163
	c14.764-27.234,39.63-59.173,69.297-88.841c11.622-11.622,23.615-22.552,35.643-32.483c3.393-2.802,3.873-7.824,1.071-11.218
	c-2.801-3.393-7.824-3.874-11.218-1.071c-12.416,10.252-24.787,21.525-36.765,33.503c-30.973,30.972-57.008,64.555-72.466,93.309
	c-11.798-4.484-24.428-6.854-37.427-6.854c-28.104,0-54.526,10.945-74.398,30.817c-41.024,41.024-41.024,107.774,0,148.798
	c10.041,10.041,21.753,17.817,34.81,23.112c4.081,1.657,8.726-0.311,10.379-4.39c1.654-4.079-0.311-8.725-4.39-10.379
	c-11.07-4.489-21.005-11.088-29.53-19.613c-34.81-34.81-34.81-91.45,0-126.26c16.862-16.862,39.282-26.15,63.13-26.15
	s46.267,9.286,63.13,26.15c34.81,34.81,34.81,91.45,0,126.26c-16.864,16.862-39.283,26.15-63.13,26.15
	c-4.401,0-7.968,3.567-7.968,7.968c0,4.401,3.567,7.968,7.968,7.968c28.103,0,54.526-10.945,74.398-30.817
	c30.175-30.175,38.125-74.26,23.909-111.797c28.764-15.455,62.37-41.502,93.363-72.496c30.983-30.983,57.019-64.565,72.471-93.311
	c11.798,4.483,24.425,6.853,37.425,6.853c28.104,0,54.526-10.945,74.398-30.817c19.872-19.872,30.817-46.294,30.817-74.398
	C511.975,77.113,501.03,50.69,481.158,30.817z M469.889,168.346c-16.862,16.862-39.282,26.15-63.13,26.15s-46.267-9.286-63.13-26.15
	c-16.862-16.862-26.15-39.282-26.15-63.13s9.286-46.267,26.15-63.13s39.282-26.15,63.129-26.15c23.848,0,46.267,9.286,63.13,26.15
	c16.862,16.862,26.15,39.282,26.15,63.13C496.038,129.064,486.752,151.484,469.889,168.346z"/>
<g>
</g>
<g>
</g>
<g>
</g>
<g>
</g>
<g>
</g>
<g>
</g>
<g>
</g>
<g>
</g>
<g>
</g>
<g>
</g>
<g>
</g>
<g>
</g>
<g>
</g>
<g>
</g>
<g>
</g>
</svg>
