<?xml version="1.0" encoding="iso-8859-1"?>
<!-- Generator: Adobe Illustrator 19.0.0, SVG Export Plug-In . SVG Version: 6.00 Build 0)  -->
<svg version="1.1" id="Layer_1" xmlns="http://www.w3.org/2000/svg" xmlns:xlink="http://www.w3.org/1999/xlink" x="0px" y="0px"
	 viewBox="0 0 512 512" style="enable-background:new 0 0 512 512;" xml:space="preserve">
<g>
	<path style="fill:#EFBF8B;" d="M211.579,375.748v99.054c0,16.362-13.545,29.561-30.038,28.964
		c-15.705-0.549-27.926-13.939-27.926-29.656V411.55l-0.024-35.803h0.024l33.595-11.875L211.579,375.748z"/>
	<path style="fill:#EFBF8B;" d="M306.098,375.748v99.054c0,8.008-3.246,15.252-8.485,20.503c-5.358,5.347-12.793,8.616-21.004,8.485
		c-15.908-0.275-28.475-13.712-28.475-29.633v-98.409l26.196-13.068L306.098,375.748z"/>
</g>
<g>
	<path style="fill:#E5AE7B;" d="M170.323,474.121v-98.361l19.082-18.613l-8.978-7.54l-26.811,26.153v98.361
		c0,15.717,12.221,29.107,27.926,29.656c3.296,0.119,6.472-0.321,9.448-1.218C178.934,498.863,170.323,487.314,170.323,474.121z"/>
	<path style="fill:#E5AE7B;" d="M264.841,474.121v-98.361l19.082-18.613l-8.978-7.54l-26.811,26.153v98.361
		c0,15.717,12.221,29.107,27.926,29.656c3.296,0.119,6.472-0.321,9.448-1.218C273.453,498.863,264.841,487.314,264.841,474.121z"/>
</g>
<path style="fill:#FEE572;" d="M306.098,301.756v73.992h-57.964v-24.525c0-5.048-2.053-9.607-5.358-12.913
	c-3.031-3.031-7.125-5.012-11.66-5.311c-0.835-0.06-1.683-0.06-2.542,0c-9.655,0.656-16.994,9.034-16.994,18.713v24.035h-57.988
	l-0.024-29.561v-44.431h0.048l16.708-2.673l68.801-10.991L306.098,301.756z"/>
<polygon style="fill:#EAD26C;" points="170.323,299.082 170.323,375.748 153.591,375.748 153.567,346.187 153.567,301.756 
	153.615,301.756 "/>
<path style="fill:#FD6568;" d="M306.098,204.779v37.64v15.514v43.822H153.567v-33.607v-15.837v-47.534
	c0-7.578-2.267-14.977-6.492-21.255l-21.255-31.566l-0.107-0.155l0.8-0.537l0.024-0.024l14.488-75.579
	c10.598,30.623,159.739,46.09,169.501,13.999l23.797,61.592l-21.732,32.27C308.365,189.801,306.098,197.2,306.098,204.779z"/>
<path style="fill:#EFBF8B;" d="M394.232,13.092c-5.215-3.902-11.314-5.788-17.352-5.788c-8.819,0-17.531,4.01-23.224,11.612
	l-35.54,45.911c1.802,2.661-180.421,1.289-177.843-1.647l-34.263-44.264c-5.693-7.602-14.405-11.612-23.224-11.612
	c-6.039,0-12.137,1.886-17.352,5.788c-12.805,9.595-15.419,27.759-5.824,40.564l66.103,98.147l0.823-0.549l28.081-28.093
	c10.598,30.623,39.693,52.606,73.932,52.606c35.277,0,65.101-23.343,74.863-55.434l30.909,30.921l65.733-97.598
	C409.651,40.851,407.037,22.687,394.232,13.092z"/>
<path style="fill:#E5AE7B;" d="M83.478,53.656c-9.595-12.805-6.981-30.969,5.824-40.564c1.73-1.295,3.565-2.346,5.455-3.202
	c-3.772-1.703-7.857-2.586-11.971-2.586c-6.039,0-12.137,1.886-17.352,5.788c-12.805,9.595-15.419,27.759-5.824,40.564
	l66.103,98.147l0.823-0.549l13.548-13.552L83.478,53.656z"/>
<path style="fill:#666666;" d="M295.775,57.475l-70.722,13.044l-63.729-13.044c7.745-12.961,19.13-23.498,32.735-30.193
	c10.407-5.12,22.102-7.996,34.49-7.996s24.083,2.876,34.49,7.996C276.644,33.977,288.029,44.514,295.775,57.475z"/>
<path style="fill:#E5AE7B;" d="M200.802,170.695c-29.513-11.194-50.493-39.729-50.493-73.168c0-2.291,0.095-4.559,0.298-6.791
	c0.728,0.107,1.468,0.155,2.22,0.155l71.465-12.229l79.967,12.229c0.764,0,1.504-0.048,2.232-0.155
	c0.203,2.232,0.298,4.499,0.298,6.791c0,33.44-20.98,61.974-50.493,73.168c-8.616,3.282-17.973,5.072-27.747,5.072
	S209.419,173.976,200.802,170.695z"/>
<path style="fill:#E0555C;" d="M170.323,177.7v124.056h-16.756v-33.607l3.608-7.507l-3.608-8.33v-47.534
	c0-7.578-2.267-14.977-6.492-21.255l-21.255-31.566l0.692-0.692l0.024-0.024l13.545-13.545L170.323,177.7z"/>
<path style="fill:#EFBF8B;" d="M306.885,97.526c0,33.44-20.968,61.974-50.482,73.168c-4.487,1.707-9.177,3.007-14.023,3.867
	c-4.845-0.847-9.535-2.16-14.023-3.867h-0.012c-29.513-11.194-50.493-39.729-50.493-73.168c0-2.291,0.095-4.559,0.298-6.791
	c0.728,0.107,1.48,0.155,2.232,0.155l59.599-15.753l64.385,15.753c0.752,0,1.492-0.048,2.22-0.155
	C306.79,92.967,306.885,95.235,306.885,97.526z"/>
<path style="fill:#7D7878;" d="M295.87,57.475l-55.816,11.278l-51.186-11.278c11.421-19.119,30.766-32.962,53.501-36.972
	C265.104,24.513,284.449,38.356,295.87,57.475z"/>
<path style="fill:#EAD26C;" d="M140.26,63.191c3.043-3.509,7.554-5.716,12.567-5.716h8.497h134.45h8.485
	c4.607,0,8.784,1.874,11.815,4.893c0.752,0.752,1.432,1.575,2.041,2.47c1.79,2.661,2.852,5.884,2.852,9.344
	c0,8.473-6.301,15.467-14.476,16.553c-0.728,0.107-1.48,0.155-2.232,0.155H152.827c-0.752,0-1.492-0.048-2.22-0.155
	c-3.735-0.489-7.065-2.208-9.595-4.738c-3.019-3.031-4.893-7.208-4.893-11.815C136.119,69.982,137.683,66.139,140.26,63.191z"/>
<path style="fill:#FEE572;" d="M320.968,74.183c0,8.473-6.289,15.467-14.476,16.553c-0.728,0.107-1.468,0.155-2.232,0.155H177.495
	c-0.752,0-1.492-0.048-2.22-0.155c-3.735-0.489-7.065-2.208-9.595-4.738c-3.019-3.019-4.893-7.196-4.893-11.815
	c0-9.225,7.483-16.708,16.708-16.708H304.26c4.619,0,8.796,1.874,11.815,4.893C319.106,65.399,320.968,69.576,320.968,74.183z"/>
<path style="fill:#EAD26C;" d="M264.841,366.725v9.022h-16.708v-24.525c0-5.048-2.053-9.607-5.358-12.913
	c-3.031-3.031-7.125-5.012-11.66-5.311l0,0C249.741,332.999,264.841,348.098,264.841,366.725z"/>
<path d="M415.613,225.454c-26.66-4.808-62.493-8.004-101.579-9.085v-11.141c0-6.052,1.788-11.904,5.169-16.924l87.364-129.709
	c11.997-16.198,8.653-39.15-7.508-51.261C392.644,2.536,385.038,0,377.058,0c-11.508,0-22.49,5.481-29.394,14.667l-30.345,39.199
	c-3.745-2.331-8.147-3.701-12.875-3.701h-4.239c-15.878-23.66-42.858-38.189-71.479-38.189c-28.619,0-55.6,14.53-71.477,38.189
	h-4.239c-3.998,0-7.764,0.983-11.1,2.691l-29.566-38.193C105.441,5.48,94.459,0,82.954,0c-7.979,0-15.587,2.536-22.003,7.337
	c-7.851,5.882-12.944,14.471-14.339,24.182c-1.386,9.646,1.041,19.253,6.836,27.075l87.364,129.709
	c3.381,5.02,5.169,10.872,5.169,16.924v21.483c-30.457,6.117-43.574,13.662-43.574,24.836c0,11.17,13.117,18.716,43.574,24.843
	l0.057,198.172c0,19.944,15.887,36.726,35.404,37.409c10.084,0.365,19.6-3.279,26.838-10.261
	c7.248-6.99,11.238-16.384,11.238-26.456V352.164c0-5.78,4.287-10.601,9.761-10.977c3.091-0.212,6.006,0.875,8.193,3.061
	c1.991,1.989,3.086,4.628,3.086,7.427v122.938c0,20.274,16.193,37.042,36.097,37.381c0.216,0.004,0.431,0.006,0.646,0.006
	c9.808,0,19.009-3.803,25.985-10.763c6.933-6.948,10.75-16.176,10.75-25.982V231.892c35.084,0.988,67.808,3.729,92.855,7.807
	c28.703,4.673,38.845,9.639,42.177,11.907c-7.606,5.28-40.27,14.92-111.112,18.642c-4.278,0.224-7.565,3.875-7.34,8.153
	c0.218,4.14,3.642,7.35,7.739,7.35c0.137,0,0.274-0.004,0.414-0.011c34.938-1.835,65.064-5.339,87.119-10.133
	c27.58-5.995,39.879-13.415,39.879-24.061C465.765,239.599,450.766,231.795,415.613,225.454z M359.969,24.118
	c0.025-0.033,0.051-0.066,0.075-0.099c4.047-5.405,10.248-8.504,17.015-8.504c4.603,0,8.996,1.467,12.702,4.239
	c9.367,7.018,11.281,20.344,4.266,29.705c-0.078,0.104-0.153,0.21-0.226,0.319l-60.472,89.782l-21.09-21.09
	c1.613-6.572,2.487-13.432,2.487-20.495c0-0.391-0.02-0.772-0.025-1.161c8.375-3.888,14.21-12.357,14.21-22.182
	c0-2.963-0.556-5.792-1.525-8.422L359.969,24.118z M228.727,27.49c19.743,0,38.534,8.44,51.753,22.675H176.975
	C190.194,35.93,208.986,27.49,228.727,27.49z M304.445,65.68c4.936,0,8.951,4.016,8.951,8.951c0,4.935-4.015,8.951-8.951,8.951
	h-16.219c-4.284,0-7.757,3.473-7.757,7.757c0,4.284,3.473,7.757,7.757,7.757h10.956c-0.604,38.347-31.966,69.361-70.455,69.361
	s-69.851-31.015-70.455-69.361h103.698c4.284,0,7.757-3.473,7.757-7.757c0-4.284-3.473-7.757-7.757-7.757h-108.96
	c-4.936,0-8.951-4.016-8.951-8.951s4.015-8.951,8.951-8.951C153.011,65.68,304.445,65.68,304.445,65.68z M65.986,49.458
	c-3.396-4.534-4.824-10.12-4.018-15.732c0.807-5.611,3.749-10.574,8.281-13.97c3.709-2.775,8.103-4.241,12.705-4.241
	c6.765,0,12.968,3.099,17.015,8.504c0.025,0.033,0.05,0.066,0.075,0.099l30.931,39.957c-1.541,3.201-2.429,6.773-2.429,10.557
	c0,9.825,5.835,18.293,14.209,22.182c-0.005,0.389-0.025,0.771-0.025,1.162c0,8.132,1.159,15.993,3.278,23.454l-18.844,18.843
	L66.212,49.776C66.14,49.669,66.064,49.563,65.986,49.458z M135.995,153.383l16.222-16.221
	c14.278,27.764,43.203,46.811,76.511,46.811c34.302,0,63.967-20.194,77.76-49.312l18.009,18.01l-18.164,26.968
	c-5.111,7.591-7.815,16.441-7.815,25.59v10.839c-4.824-0.062-9.651-0.105-14.44-0.105c-45.849,0-89.823,2.893-122.585,8.001v-18.734
	c0-9.151-2.702-18-7.814-25.592L135.995,153.383z M119.193,251.547c2.717-1.821,9.734-5.301,26.786-8.979v17.966
	C128.927,256.85,121.91,253.368,119.193,251.547z M228.215,325.71c-13.578,0.931-24.214,12.551-24.214,26.454v16.279h-22.584
	c-4.284,0-7.757,3.473-7.757,7.757s3.473,7.757,7.757,7.757h22.584v91.296c0,5.82-2.307,11.25-6.493,15.289
	c-4.179,4.03-9.7,6.129-15.516,5.923c-11.271-0.394-20.44-10.22-20.44-21.904l-0.057-164.596h98.688
	c4.284,0,7.757-3.473,7.757-7.757s-3.473-7.757-7.757-7.757h-98.688v-54.783c32.185-5.225,76.346-8.193,122.585-8.193
	c4.789,0,9.618,0.043,14.44,0.106v62.869h-9.099c-4.284,0-7.757,3.473-7.757,7.757s3.473,7.757,7.757,7.757h9.099v58.477h-42.45
	v-16.768c0-6.943-2.71-13.477-7.631-18.398C243.114,327.954,235.741,325.196,228.215,325.71z M292.313,490.266
	c-4.117,4.108-9.603,6.304-15.397,6.217c-11.495-0.196-20.847-10.006-20.847-21.869v-90.654h42.45v91.296
	C298.518,480.923,296.311,486.259,292.313,490.266z"/>
<g>
</g>
<g>
</g>
<g>
</g>
<g>
</g>
<g>
</g>
<g>
</g>
<g>
</g>
<g>
</g>
<g>
</g>
<g>
</g>
<g>
</g>
<g>
</g>
<g>
</g>
<g>
</g>
<g>
</g>
</svg>
