<?xml version="1.0" encoding="iso-8859-1"?>
<!-- Generator: Adobe Illustrator 19.0.0, SVG Export Plug-In . SVG Version: 6.00 Build 0)  -->
<svg version="1.1" id="Layer_1" xmlns="http://www.w3.org/2000/svg" xmlns:xlink="http://www.w3.org/1999/xlink" x="0px" y="0px"
	 viewBox="0 0 512 512" style="enable-background:new 0 0 512 512;" xml:space="preserve">
<path style="fill:#C79175;" d="M382.061,215.781l31.878-31.865l89.382,33.092l-102.54,214.023
	c-11.435,23.889-35.56,39.084-62.046,39.084H56.804c-26.787,0-48.509-21.722-48.509-48.509V71.885h93.442V40.907H288.62v30.978
	h93.442V215.781z M311.008,408.434v-3.433c0-44.345-35.938-80.283-80.27-80.283h-51.799c-44.332,0-80.283,35.938-80.283,80.283
	v3.433H311.008z"/>
<path style="fill:#BC846C;" d="M489.51,211.89L400.781,397.09c-11.435,23.889-35.56,39.084-62.046,39.084H56.804
	c-26.787,0-48.509-21.722-48.509-48.509v33.941c0,26.788,21.722,48.509,48.509,48.509h281.931c26.487,0,50.611-15.195,62.046-39.084
	l102.54-214.023L489.51,211.89z"/>
<path d="M511.379,214.315c-0.896-2.211-2.681-3.944-4.919-4.773l-89.392-33.095c-3.109-1.15-6.604-0.386-8.947,1.958l-17.382,17.383
	V72.385c0-4.686-3.799-8.485-8.485-8.485h-84.957V41.395c0-4.686-3.799-8.485-8.485-8.485H101.928c-4.686,0-8.485,3.799-8.485,8.485
	v22.503H8.485C3.799,63.898,0,67.697,0,72.383v215.95c0,4.686,3.799,8.485,8.485,8.485s8.485-3.799,8.485-8.485V80.87h76.473v68.186
	c0,4.686,3.799,8.485,8.485,8.485s8.485-3.799,8.485-8.485V49.88h76.471v99.174c0,4.686,3.799,8.485,8.485,8.485
	c4.686,0,8.485-3.799,8.485-8.485V49.88h76.473v99.174c0,4.686,3.799,8.485,8.485,8.485s8.485-3.799,8.485-8.485V80.87h76.471
	v195.172c0,4.686,3.799,8.485,8.485,8.485c4.686,0,8.485-3.799,8.485-8.485v-56.253l25.538-25.538l75.564,27.975l-98.519,205.638
	c-9.969,20.81-31.321,34.255-54.395,34.255H56.994c-22.069,0-40.024-17.955-40.024-40.024v-96.556c0-4.686-3.799-8.485-8.485-8.485
	S0,320.852,0,325.539v96.556c0,31.427,25.568,56.994,56.994,56.994h281.933c29.566,0,56.925-17.23,69.701-43.895l102.539-214.031
	C512.197,219.013,512.275,216.526,511.379,214.315z"/>
<path d="M90.364,405.493v3.437c0,4.686,3.799,8.485,8.485,8.485h19.435c4.686,0,8.485-3.799,8.485-8.485s-3.799-8.485-8.485-8.485
	H107.51c2.598-37.242,33.727-66.746,71.618-66.746h51.795c37.891,0,69.02,29.505,71.618,66.746H148.96
	c-4.686,0-8.485,3.799-8.485,8.485s3.799,8.485,8.485,8.485h162.241c4.686,0,8.485-3.799,8.485-8.485v-3.437
	c0-48.945-39.819-88.764-88.764-88.764h-51.795C130.183,316.728,90.364,356.549,90.364,405.493z"/>
<path d="M46.036,194.344h26.108c4.686,0,8.485-3.799,8.485-8.485c0-4.686-3.799-8.485-8.485-8.485H46.036
	c-4.686,0-8.485,3.799-8.485,8.485C37.55,190.546,41.349,194.344,46.036,194.344z"/>
<path d="M46.036,224.369h26.108c4.686,0,8.485-3.799,8.485-8.485c0-4.686-3.799-8.485-8.485-8.485H46.036
	c-4.686,0-8.485,3.799-8.485,8.485C37.55,220.57,41.349,224.369,46.036,224.369z"/>
<path d="M138.284,194.344h26.108c4.686,0,8.485-3.799,8.485-8.485c0-4.686-3.799-8.485-8.485-8.485h-26.108
	c-4.686,0-8.485,3.799-8.485,8.485C129.799,190.546,133.598,194.344,138.284,194.344z"/>
<path d="M138.284,224.369h26.108c4.686,0,8.485-3.799,8.485-8.485c0-4.686-3.799-8.485-8.485-8.485h-26.108
	c-4.686,0-8.485,3.799-8.485,8.485C129.799,220.57,133.598,224.369,138.284,224.369z"/>
<path d="M322.781,194.344h26.108c4.686,0,8.485-3.799,8.485-8.485c0-4.686-3.799-8.485-8.485-8.485h-26.108
	c-4.686,0-8.485,3.799-8.485,8.485C314.296,190.546,318.095,194.344,322.781,194.344z"/>
<path d="M322.781,224.369h26.108c4.686,0,8.485-3.799,8.485-8.485c0-4.686-3.799-8.485-8.485-8.485h-26.108
	c-4.686,0-8.485,3.799-8.485,8.485C314.296,220.57,318.095,224.369,322.781,224.369z"/>
<path d="M230.533,194.344h26.108c4.686,0,8.485-3.799,8.485-8.485c0-4.686-3.799-8.485-8.485-8.485h-26.108
	c-4.686,0-8.485,3.799-8.485,8.485C222.047,190.546,225.846,194.344,230.533,194.344z"/>
<path d="M230.533,224.369h26.108c4.686,0,8.485-3.799,8.485-8.485c0-4.686-3.799-8.485-8.485-8.485h-26.108
	c-4.686,0-8.485,3.799-8.485,8.485C222.047,220.57,225.846,224.369,230.533,224.369z"/>
<g>
</g>
<g>
</g>
<g>
</g>
<g>
</g>
<g>
</g>
<g>
</g>
<g>
</g>
<g>
</g>
<g>
</g>
<g>
</g>
<g>
</g>
<g>
</g>
<g>
</g>
<g>
</g>
<g>
</g>
</svg>
