<?xml version="1.0" encoding="iso-8859-1"?>
<!-- Generator: Adobe Illustrator 19.0.0, SVG Export Plug-In . SVG Version: 6.00 Build 0)  -->
<svg version="1.1" id="Layer_1" xmlns="http://www.w3.org/2000/svg" xmlns:xlink="http://www.w3.org/1999/xlink" x="0px" y="0px"
	 viewBox="0 0 512 512" style="enable-background:new 0 0 512 512;" xml:space="preserve">
<g>
	<rect x="72.667" y="425.703" style="fill:#EAAC60;" width="366.321" height="33.206"/>
	<rect x="72.667" y="301.194" style="fill:#EAAC60;" width="366.321" height="33.206"/>
	<rect x="72.667" y="176.697" style="fill:#EAAC60;" width="366.321" height="33.206"/>
	<rect x="72.667" y="52.187" style="fill:#EAAC60;" width="366.321" height="33.206"/>
</g>
<g>
	<rect x="104.779" y="425.703" style="fill:#FEC274;" width="302.098" height="33.206"/>
	<rect x="104.779" y="301.194" style="fill:#FEC274;" width="302.098" height="33.206"/>
	<rect x="104.779" y="176.697" style="fill:#FEC274;" width="302.098" height="33.206"/>
	<rect x="104.779" y="52.187" style="fill:#FEC274;" width="302.098" height="33.206"/>
</g>
<g>
	<polygon style="fill:#FEE572;" points="482.882,7.279 482.882,503.818 426.746,503.818 426.746,458.909 426.746,425.703 
		426.746,334.4 426.746,301.194 426.746,209.902 426.746,176.697 426.746,85.393 426.746,52.187 426.746,7.279 	"/>
	<polygon style="fill:#FEE572;" points="84.902,458.909 84.902,503.818 28.766,503.818 28.766,7.279 84.902,7.279 84.902,52.187 
		84.902,85.393 84.902,176.697 84.902,209.902 84.902,301.194 84.902,334.4 84.902,425.703 	"/>
</g>
<path d="M483.06,123.711c4.27,0,7.731-3.461,7.731-7.731V7.731c0-4.27-3.461-7.731-7.731-7.731h-56.142
	c-4.27,0-7.731,3.461-7.731,7.731v37.183H92.812V7.731c0-4.27-3.461-7.731-7.731-7.731H28.94c-4.27,0-7.731,3.461-7.731,7.731
	v496.539c0,4.27,3.461,7.731,7.731,7.731h56.142c4.27,0,7.731-3.461,7.731-7.731v-37.183h326.377v37.183
	c0,4.27,3.461,7.731,7.731,7.731h56.142c4.27,0,7.731-3.461,7.731-7.731V144.526c0-4.27-3.461-7.731-7.731-7.731
	c-4.27,0-7.731,3.461-7.731,7.731v352.013h-40.681V15.461h40.681v100.52C475.33,120.25,478.791,123.711,483.06,123.711z
	 M92.812,218.08h326.377v75.84H92.812V218.08z M419.188,202.619H92.812v-17.741h326.377V202.619z M92.812,342.583h51.396
	c4.27,0,7.731-3.461,7.731-7.731c0-4.27-3.461-7.731-7.731-7.731H92.812v-17.741h326.377v17.741H177.51
	c-4.27,0-7.731,3.461-7.731,7.731c0,4.27,3.461,7.731,7.731,7.731h241.678v75.84H92.812V342.583z M419.188,60.374v17.741h-56.741
	c-4.27,0-7.731,3.461-7.731,7.731c0,4.27,3.461,7.731,7.731,7.731h56.741v75.84H92.812v-75.84h242.876
	c4.27,0,7.731-3.461,7.731-7.731c0-4.27-3.461-7.731-7.731-7.731H92.812V60.374H419.188z M77.351,496.539H36.67V15.461h40.681
	V496.539z M92.812,451.626v-17.741h326.377v17.741H92.812z"/>
<g>
</g>
<g>
</g>
<g>
</g>
<g>
</g>
<g>
</g>
<g>
</g>
<g>
</g>
<g>
</g>
<g>
</g>
<g>
</g>
<g>
</g>
<g>
</g>
<g>
</g>
<g>
</g>
<g>
</g>
</svg>
