<?xml version="1.0" encoding="iso-8859-1"?>
<!-- Generator: Adobe Illustrator 19.0.0, SVG Export Plug-In . SVG Version: 6.00 Build 0)  -->
<svg version="1.1" id="Layer_1" xmlns="http://www.w3.org/2000/svg" xmlns:xlink="http://www.w3.org/1999/xlink" x="0px" y="0px"
	 viewBox="0 0 512 512" style="enable-background:new 0 0 512 512;" xml:space="preserve">
<path style="fill:#FEE572;" d="M432.812,196.889v306.623H78.836V196.889c33.535-17.36,56.459-52.362,56.459-92.72V7.551h44.75
	v77.162c0,20.925,8.489,39.876,22.196,53.584s32.659,22.196,53.584,22.196c41.85,0,75.78-33.929,75.78-75.78V7.551h44.738v96.619
	c0,32.19,14.596,60.974,37.507,80.11C419.672,189.141,426.027,193.373,432.812,196.889z"/>
<g>
	<rect x="135.298" y="7.551" style="fill:#F2D766;" width="44.75" height="29.735"/>
	<rect x="331.608" y="7.551" style="fill:#F2D766;" width="44.738" height="29.735"/>
	<path style="fill:#F2D766;" d="M413.849,184.28v263.369c0,14.431-11.699,26.129-26.129,26.129H123.929
		c-14.43,0-26.129-11.699-26.129-26.129V184.28c-5.824,4.861-12.178,9.093-18.963,12.609v276.889v29.735h18.963h316.05h18.963
		v-29.735V196.889C426.027,193.373,419.672,189.141,413.849,184.28z"/>
</g>
<path d="M192.083,414.426c1.567,1.567,3.619,2.349,5.671,2.349c2.052,0,4.105-0.783,5.671-2.349l79.981-79.98
	c1.864-1.866,2.693-4.528,2.216-7.121c-0.477-2.593-2.2-4.787-4.606-5.867l-39.804-17.843l78.706-78.706
	c3.131-3.133,3.131-8.21,0-11.341c-3.133-3.131-8.21-3.131-11.342,0l-86.935,86.935c-1.865,1.865-2.695,4.528-2.216,7.121
	c0.477,2.595,2.2,4.787,4.607,5.867l39.804,17.843l-71.751,71.751C188.951,406.217,188.951,411.294,192.083,414.426z"/>
<path d="M436.674,190.234c-32.154-16.649-52.128-49.451-52.128-85.602V8.02c0-4.429-3.59-8.02-8.02-8.02H331.78
	c-4.429,0-8.02,3.59-8.02,8.02v77.16c0,37.363-30.397,67.759-67.76,67.759s-67.76-30.397-67.76-67.759V8.02
	c0-4.429-3.59-8.02-8.02-8.02h-44.747c-4.429,0-8.02,3.59-8.02,8.02v96.611c0,36.153-19.974,68.953-52.127,85.602
	c-2.661,1.378-4.332,4.125-4.332,7.121v36.768c0,4.429,3.59,8.02,8.02,8.02c4.429,0,8.02-3.59,8.02-8.02v-32.01
	c34.949-20.05,56.459-56.961,56.459-97.482V16.039h28.708V85.18c0,46.207,37.593,83.798,83.799,83.798
	c46.208,0,83.8-37.593,83.8-83.798V16.039h28.708v88.592c0,40.52,21.511,77.432,56.46,97.482v261.154h-40.395
	c-4.429,0-8.02,3.59-8.02,8.02c0,4.429,3.59,8.02,8.02,8.02h40.395v16.655H87.033v-16.655h266.694c4.429,0,8.02-3.59,8.02-8.02
	c0-4.429-3.59-8.02-8.02-8.02H87.033V266.819c0-4.429-3.59-8.02-8.02-8.02s-8.02,3.59-8.02,8.02V503.98c0,4.429,3.59,8.02,8.02,8.02
	h353.973c4.429,0,8.02-3.59,8.02-8.02V197.356C441.006,194.359,439.336,191.611,436.674,190.234z"/>
<g>
</g>
<g>
</g>
<g>
</g>
<g>
</g>
<g>
</g>
<g>
</g>
<g>
</g>
<g>
</g>
<g>
</g>
<g>
</g>
<g>
</g>
<g>
</g>
<g>
</g>
<g>
</g>
<g>
</g>
</svg>
