<?xml version="1.0" encoding="iso-8859-1"?>
<!-- Generator: Adobe Illustrator 19.0.0, SVG Export Plug-In . SVG Version: 6.00 Build 0)  -->
<svg version="1.1" id="Layer_1" xmlns="http://www.w3.org/2000/svg" xmlns:xlink="http://www.w3.org/1999/xlink" x="0px" y="0px"
	 viewBox="0 0 512 512" style="enable-background:new 0 0 512 512;" xml:space="preserve">
<g>
	<rect x="131.94" y="232.039" style="fill:#666363;" width="247.795" height="47.09"/>
	<path style="fill:#666363;" d="M477.961,231.496c14.165,0,25.656,11.49,25.656,25.667c0,14.176-11.49,25.656-25.656,25.656V231.496
		z"/>
	<path style="fill:#666363;" d="M33.726,231.496v51.322c-14.176,0-25.666-11.479-25.666-25.656
		C8.06,242.986,19.55,231.496,33.726,231.496z"/>
</g>
<path style="fill:#808080;" d="M479.058,282.818v25.765c0,16.457-13.343,29.8-29.8,29.8c-8.234,0-15.678-3.333-21.062-8.727
	c-5.394-5.394-8.727-12.839-8.727-21.073l-34.251-60.378l34.251-45.621c0-16.457,13.332-29.8,29.789-29.8
	c16.457,0,29.8,13.343,29.8,29.8v28.912L479.058,282.818L479.058,282.818z"/>
<path style="fill:#999999;" d="M419.469,308.583v20.7c0,16.457-13.343,29.789-29.789,29.789c-8.234,0-15.678-3.333-21.073-8.727
	c-5.394-5.383-8.727-12.828-8.727-21.062v-50.149v-47.09v-50.16c0-16.457,13.343-29.789,29.8-29.789
	c16.446,0,29.789,13.332,29.789,29.789v20.7V308.583z"/>
<path style="fill:#808080;" d="M92.218,202.584l14.516,54.392l-14.516,51.607c0,16.457-13.343,29.8-29.8,29.8
	s-29.789-13.343-29.789-29.8v-25.765v-51.322v-28.912c0-16.457,13.332-29.8,29.789-29.8c8.223,0,15.678,3.333,21.073,8.727
	C88.885,186.906,92.218,194.35,92.218,202.584z"/>
<g>
	<path style="fill:#999999;" d="M479.058,276.807v20.079c0,12.824-13.343,23.224-29.8,23.224c-8.234,0-15.678-2.597-21.062-6.801
		c-5.394-4.204-8.727-10.006-8.727-16.422l-34.251-47.053l34.251-35.553c0-12.824,13.332-23.224,29.789-23.224
		c16.457,0,29.8,10.398,29.8,23.224v22.531L479.058,276.807L479.058,276.807z"/>
	<path style="fill:#999999;" d="M92.218,214.28l14.516,42.388l-14.516,40.218c0,12.824-13.343,23.224-29.8,23.224
		S32.63,309.711,32.63,296.885v-20.079v-39.995V214.28c0-12.824,13.332-23.224,29.789-23.224c8.223,0,15.678,2.597,21.073,6.801
		C88.885,202.061,92.218,207.863,92.218,214.28z"/>
	<path style="fill:#999999;" d="M151.796,279.134v50.149c0,16.457-13.332,29.789-29.789,29.789s-29.789-13.332-29.789-29.789v-20.7
		V202.584v-20.7c0-16.457,13.332-29.789,29.789-29.789c8.234,0,15.678,3.333,21.062,8.727c5.394,5.383,8.727,12.828,8.727,21.062
		v50.16V279.134z"/>
</g>
<path style="fill:#B3B3B3;" d="M419.469,297.353v16.314c0,12.97-13.343,23.477-29.789,23.477c-8.234,0-15.678-2.627-21.073-6.878
	c-5.394-4.243-8.727-10.11-8.727-16.599v-39.523v-37.112v-39.531c0-12.97,13.343-23.477,29.8-23.477
	c16.446,0,29.789,10.507,29.789,23.477v16.314V297.353z"/>
<path style="fill:#CCCCCC;" d="M419.469,233.377v2.91c0,2.313-13.343,4.188-29.789,4.188c-8.234,0-15.678-0.468-21.073-1.227
	c-5.394-0.757-8.727-1.804-8.727-2.961v-7.05v-6.62v-7.052c0-2.313,13.343-4.188,29.8-4.188c16.446,0,29.789,1.875,29.789,4.188
	v2.91V233.377z"/>
<path style="fill:#B3B3B3;" d="M151.796,274.143v39.523c0,12.97-13.332,23.477-29.789,23.477s-29.789-10.507-29.789-23.477v-16.314
	v-83.539v-16.314c0-12.97,13.332-23.477,29.789-23.477c8.234,0,15.678,2.627,21.062,6.878c5.394,4.243,8.727,10.11,8.727,16.599
	v39.531V274.143z"/>
<path style="fill:#CCCCCC;" d="M151.807,233.377v2.91c0,2.313-13.343,4.188-29.789,4.188c-8.234,0-15.678-0.468-21.073-1.227
	c-5.394-0.757-8.727-1.804-8.727-2.961v-7.05v-6.62v-7.052c0-2.313,13.343-4.188,29.8-4.188c16.446,0,29.789,1.875,29.789,4.188
	v2.91V233.377z"/>
<g>
	<path style="fill:#B3B3B3;" d="M92.218,245.492v2.91c0,2.313-13.343,4.188-29.789,4.188c-8.234,0-15.678-0.468-21.073-1.227
		c-5.394-0.757-8.727-1.804-8.727-2.961v-7.05v-6.62v-7.052c0-2.313,13.343-4.188,29.8-4.188c16.446,0,29.789,1.875,29.789,4.188
		v2.91V245.492z"/>
	<path style="fill:#B3B3B3;" d="M479.058,245.492v2.91c0,2.313-13.343,4.188-29.789,4.188c-8.234,0-15.678-0.468-21.073-1.227
		c-5.394-0.757-8.727-1.804-8.727-2.961v-7.05v-6.62v-7.052c0-2.313,13.343-4.188,29.8-4.188c16.446,0,29.789,1.875,29.789,4.188
		v2.91V245.492z"/>
</g>
<path d="M512,257.577c0-15.631-10.998-28.734-25.66-31.998v-22.581c0-20.357-16.562-36.919-36.92-36.919
	c-8.918,0-17.107,3.178-23.495,8.462c-3.575-16.642-18.396-29.157-36.091-29.157c-20.357,0-36.92,16.562-36.92,36.92v43.026h-34.379
	c-3.936,0-7.127,3.191-7.127,7.127s3.191,7.127,7.127,7.127h34.379v32.838H159.086v-32.838H290.58c3.936,0,7.127-3.191,7.127-7.127
	s-3.19-7.127-7.127-7.127H159.086v-43.026c0-20.358-16.562-36.92-36.92-36.92c-17.695,0-32.516,12.515-36.091,29.157
	c-6.388-5.282-14.577-8.462-23.493-8.462c-20.357,0-36.92,16.562-36.92,36.919v22.581C10.998,228.841,0,241.944,0,257.577
	s10.998,28.734,25.661,31.998v19.428c0,20.357,16.562,36.919,36.92,36.919c8.917,0,17.106-3.178,23.493-8.462
	c3.576,16.642,18.397,29.157,36.091,29.157c20.357,0,36.92-16.562,36.92-36.92v-43.026h193.83v43.026
	c0,20.358,16.562,36.92,36.92,36.92c17.695,0,32.515-12.515,36.091-29.157c6.388,5.282,14.577,8.462,23.495,8.462
	c20.357,0,36.92-16.562,36.92-36.919v-19.428C501.002,286.311,512,273.208,512,257.577z M14.253,257.577
	c0-7.696,4.717-14.307,11.408-17.105v34.211C18.97,271.882,14.253,265.271,14.253,257.577z M122.166,352.364
	c-12.498,0-22.667-10.168-22.667-22.667v-81.916c0-3.936-3.19-7.127-7.127-7.127s-7.127,3.19-7.127,7.127v61.22
	c0,12.498-10.167,22.666-22.666,22.666s-22.667-10.168-22.667-22.666V202.996c0-12.498,10.168-22.666,22.667-22.666
	s22.666,10.168,22.666,22.666v13.54c0,3.936,3.19,7.127,7.127,7.127s7.127-3.191,7.127-7.127v-34.236
	c0-12.498,10.168-22.667,22.667-22.667s22.667,10.168,22.667,22.667v147.397C144.833,342.196,134.664,352.364,122.166,352.364z
	 M472.087,309.002c0,12.498-10.168,22.666-22.667,22.666s-22.667-10.168-22.667-22.666v-61.22c0-3.936-3.191-7.127-7.127-7.127
	s-7.127,3.191-7.127,7.127v81.916c0,12.498-10.167,22.667-22.666,22.667s-22.667-10.168-22.667-22.667V182.302
	c0-12.498,10.168-22.667,22.667-22.667s22.666,10.168,22.666,22.667v34.235c0,3.936,3.19,7.127,7.127,7.127s7.127-3.191,7.127-7.127
	v-13.54c0-12.498,10.168-22.666,22.667-22.666s22.667,10.168,22.667,22.666V309.002z M486.34,274.681v-34.211
	c6.692,2.798,11.407,9.41,11.407,17.105C497.747,265.27,493.032,271.882,486.34,274.681z"/>
<g>
</g>
<g>
</g>
<g>
</g>
<g>
</g>
<g>
</g>
<g>
</g>
<g>
</g>
<g>
</g>
<g>
</g>
<g>
</g>
<g>
</g>
<g>
</g>
<g>
</g>
<g>
</g>
<g>
</g>
</svg>
