<?xml version="1.0" encoding="iso-8859-1"?>
<!-- Generator: Adobe Illustrator 19.0.0, SVG Export Plug-In . SVG Version: 6.00 Build 0)  -->
<svg version="1.1" id="Layer_1" xmlns="http://www.w3.org/2000/svg" xmlns:xlink="http://www.w3.org/1999/xlink" x="0px" y="0px"
	 viewBox="0 0 511.999 511.999" style="enable-background:new 0 0 511.999 511.999;" xml:space="preserve">
<g>
	<polygon style="fill:#FEE572;" points="171.115,6.899 171.115,47.237 171.115,94.645 171.115,190.486 340.553,190.486 
		340.553,94.645 340.553,6.899 	"/>
	<rect x="171.119" y="354.942" style="fill:#FEE572;" width="169.438" height="149.303"/>
</g>
<path style="fill:#F2D766;" d="M171.115,354.941v48.794h169.438v-48.794H171.115z"/>
<path style="fill:#FD6568;" d="M376.416,159.64v191.862c0,13.619-11.037,24.656-24.656,24.656h-11.206H171.115h-11.206
	c-13.619,0-24.656-11.037-24.656-24.656V159.64c0-13.608,11.037-24.645,24.656-24.645h11.206h169.438h11.206
	C365.379,134.995,376.416,146.032,376.416,159.64z"/>
<path style="fill:#9ED6E5;" d="M339.129,177.388v156.369c0,2.82-2.286,5.106-5.106,5.106H177.644c-2.82,0-5.106-2.286-5.106-5.106
	V177.388c0-2.82,2.286-5.106,5.106-5.106h156.379C336.844,172.281,339.129,174.567,339.129,177.388z"/>
<path d="M351.929,128.089h-3.884V7.328c0-4.047-3.281-7.328-7.328-7.328H171.283c-4.047,0-7.328,3.281-7.328,7.328v120.761h-3.883
	c-17.635,0-31.981,14.347-31.981,31.981v136.819c0,4.047,3.281,7.328,7.328,7.328s7.328-3.281,7.328-7.328V160.071
	c0-9.554,7.772-17.325,17.325-17.325H351.93c9.554,0,17.325,7.772,17.325,17.325v191.858c0,9.554-7.772,17.325-17.325,17.325
	H160.071c-9.554,0-17.325-7.772-17.325-17.325v-25.726c0-4.047-3.281-7.328-7.328-7.328s-7.328,3.281-7.328,7.328v25.726
	c0,17.635,14.347,31.981,31.981,31.981h3.883v120.761c0,4.047,3.281,7.328,7.328,7.328h169.434c4.047,0,7.328-3.281,7.328-7.328
	V383.91h3.884c17.635,0,31.981-14.347,31.981-31.981V160.071C383.91,142.437,369.564,128.089,351.929,128.089z M333.389,14.656
	V87.75H178.611V54.997h132.635c4.047,0,7.328-3.281,7.328-7.328s-3.281-7.328-7.328-7.328H178.611V14.656H333.389z M178.611,128.089
	v-25.683h154.777v25.685H178.611V128.089z M178.611,497.344v-25.685h154.777v25.685H178.611z M333.389,409.594h-30.315
	c-4.047,0-7.328,3.281-7.328,7.328s3.281,7.328,7.328,7.328h30.315v32.752H178.611V424.25h99.94c4.047,0,7.328-3.281,7.328-7.328
	s-3.281-7.328-7.328-7.328h-99.94V383.91h154.777L333.389,409.594L333.389,409.594z"/>
<path d="M340.717,198.242c4.047,0,7.328-3.281,7.328-7.328v-19.63c0-4.047-3.281-7.328-7.328-7.328H171.283
	c-4.047,0-7.328,3.281-7.328,7.328v169.434c0,4.047,3.281,7.328,7.328,7.328h169.434c4.047,0,7.328-3.281,7.328-7.328V217.408
	c0-4.047-3.281-7.328-7.328-7.328s-7.328,3.281-7.328,7.328v115.981H178.611V178.612h154.777v12.302
	C333.389,194.962,336.669,198.242,340.717,198.242z"/>
<path d="M290.478,203.158c-2.861-2.862-7.502-2.862-10.363,0l-43.725,43.725c-1.705,1.705-2.462,4.138-2.026,6.507
	c0.436,2.37,2.01,4.374,4.209,5.361l15.657,7.019l-32.708,32.708c-2.861,2.862-2.861,7.502,0.001,10.363
	c1.431,1.431,3.307,2.147,5.182,2.147c1.875,0,3.751-0.716,5.183-2.147l40.227-40.227c1.704-1.705,2.461-4.138,2.025-6.507
	c-0.436-2.37-2.01-4.374-4.209-5.361l-15.657-7.019l36.206-36.206C293.34,210.66,293.34,206.019,290.478,203.158z"/>
<g>
</g>
<g>
</g>
<g>
</g>
<g>
</g>
<g>
</g>
<g>
</g>
<g>
</g>
<g>
</g>
<g>
</g>
<g>
</g>
<g>
</g>
<g>
</g>
<g>
</g>
<g>
</g>
<g>
</g>
</svg>
