<?xml version="1.0" encoding="iso-8859-1"?>
<!-- Generator: Adobe Illustrator 19.0.0, SVG Export Plug-In . SVG Version: 6.00 Build 0)  -->
<svg version="1.1" id="Layer_1" xmlns="http://www.w3.org/2000/svg" xmlns:xlink="http://www.w3.org/1999/xlink" x="0px" y="0px"
	 viewBox="0 0 512.001 512.001" style="enable-background:new 0 0 512.001 512.001;" xml:space="preserve">
<path style="fill:#EAAC60;" d="M471.274,133.62v101.805c0,16.572-13.436,30.008-30.008,30.008H138.348
	c15.544,0-33.069-12.608-33.069-28.152l0.263-1.857l14.791-103.661c0-15.556,33.559-28.152,18.015-28.152h302.917
	C457.838,103.612,471.274,117.048,471.274,133.62z"/>
<path style="fill:#D39653;" d="M471.274,235.425c0,16.572-13.436,30.008-30.008,30.008H138.348
	c15.544,0-33.069-12.608-33.069-28.152l0.263-1.857H471.274z"/>
<path style="fill:#FEC274;" d="M166.5,131.764v105.518c0,15.544-12.608,28.152-28.152,28.152h-7.665h-15.732H95.28H70.378
	c-16.572,0-30.008-13.436-30.008-30.008V133.62c0-16.572,13.436-30.008,30.008-30.008h56.541h3.964h7.464
	C153.892,103.612,166.5,116.208,166.5,131.764z"/>
<path d="M511.249,451.738l-81.954-177.676h12.15c21.043,0,38.165-17.12,38.165-38.164V134.092c0-21.043-17.121-38.164-38.165-38.164
	h-33.143V81.664c0-18.182-14.792-32.973-32.973-32.973h-59.502c-18.181,0-32.973,14.792-32.973,32.973v14.264h-34.497V81.664
	c0-18.182-14.792-32.973-32.973-32.973h-59.501c-18.182,0-32.973,14.792-32.973,32.973v14.264H70.557
	c-21.043,0-38.164,17.12-38.164,38.164v101.806c0,21.043,17.12,38.164,38.164,38.164h12.16L0.752,451.738
	c-1.887,4.09-0.1,8.933,3.989,10.82c1.106,0.511,2.267,0.751,3.411,0.751c3.082,0,6.033-1.758,7.409-4.741l85.117-184.508h9.232
	l85.104,184.508c1.376,2.983,4.327,4.741,7.409,4.741c1.143,0,2.305-0.241,3.411-0.751c4.09-1.886,5.875-6.73,3.989-10.82
	l-81.953-177.676h256.272l-81.966,177.676c-1.887,4.09-0.1,8.933,3.989,10.82c1.106,0.511,2.268,0.751,3.411,0.751
	c3.082,0,6.034-1.758,7.409-4.741l85.117-184.508h9.232l85.104,184.508c1.376,2.983,4.327,4.741,7.409,4.741
	c1.143,0,2.305-0.241,3.411-0.751C511.349,460.672,513.136,455.827,511.249,451.738z M299.163,81.663
	c0-9.188,7.476-16.664,16.664-16.664h59.502c9.188,0,16.664,7.476,16.664,16.664v14.264h-92.83L299.163,81.663L299.163,81.663z
	 M139.22,81.663c0-9.188,7.476-16.664,16.664-16.664h59.501c9.188,0,16.664,7.476,16.664,16.664v14.264h-92.83V81.663H139.22z
	 M48.702,235.897V134.091c0-12.051,9.804-21.855,21.855-21.855h67.969c11.027,0,19.998,8.971,19.998,20v98.716
	c0,4.504,3.651,8.154,8.154,8.154s8.154-3.651,8.154-8.154v-98.716c0-7.385-2.222-14.26-6.025-20h272.636
	c12.051,0,21.856,9.804,21.856,21.855v101.806c0,12.051-9.804,21.855-21.856,21.855H70.557
	C58.506,257.753,48.702,247.948,48.702,235.897z"/>
<path d="M134.632,150.302H72.537c-4.504,0-8.154,3.651-8.154,8.154s3.651,8.154,8.154,8.154h62.096c4.504,0,8.154-3.651,8.154-8.154
	C142.787,153.953,139.136,150.302,134.632,150.302z"/>
<path d="M134.632,204.028H72.537c-4.504,0-8.154,3.651-8.154,8.154s3.651,8.154,8.154,8.154h62.096c4.504,0,8.154-3.651,8.154-8.154
	S139.136,204.028,134.632,204.028z"/>
<g>
</g>
<g>
</g>
<g>
</g>
<g>
</g>
<g>
</g>
<g>
</g>
<g>
</g>
<g>
</g>
<g>
</g>
<g>
</g>
<g>
</g>
<g>
</g>
<g>
</g>
<g>
</g>
<g>
</g>
</svg>
