<?xml version="1.0" encoding="iso-8859-1"?>
<!-- Generator: Adobe Illustrator 19.0.0, SVG Export Plug-In . SVG Version: 6.00 Build 0)  -->
<svg version="1.1" id="Layer_1" xmlns="http://www.w3.org/2000/svg" xmlns:xlink="http://www.w3.org/1999/xlink" x="0px" y="0px"
	 viewBox="0 0 511.999 511.999" style="enable-background:new 0 0 511.999 511.999;" xml:space="preserve">
<path style="fill:#EAAC60;" d="M160.89,215.445h189.846h128.498c13.291,0,24.068,10.764,24.068,24.055v195.437
	c0,13.291-10.777,24.068-24.068,24.068H32.379c-13.291,0-24.055-10.777-24.055-24.068V239.499c0-13.291,10.764-24.055,24.055-24.055
	H160.89z"/>
<rect x="35.823" y="242.943" style="fill:#FEC274;" width="439.98" height="188.563"/>
<path style="fill:#FD6568;" d="M255.813,58.558c14.273,0,25.862,11.576,25.862,25.862c0,8.826-4.426,16.617-11.183,21.279
	c-4.164,2.894-9.232,4.583-14.679,4.583c-5.46,0-10.515-1.689-14.692-4.583c-6.744-4.662-11.17-12.453-11.17-21.279
	C229.951,70.134,241.527,58.558,255.813,58.558z"/>
<path d="M479.426,207.425H355.39l-73.484-106.506c5.267-6.042,8.468-13.929,8.468-22.555c0-18.953-15.419-34.373-34.373-34.373
	s-34.373,15.42-34.373,34.373c0,8.625,3.202,16.514,8.468,22.555L156.61,207.425H32.574C14.612,207.425,0,222.038,0,239.998v195.436
	c0,17.962,14.612,32.574,32.574,32.574h376.637c4.701,0,8.512-3.811,8.512-8.512s-3.811-8.512-8.512-8.512H32.574
	c-8.576,0-15.551-6.977-15.551-15.551V239.998c0-8.574,6.976-15.55,15.551-15.55h112.29l-4.216,6.111
	c-2.669,3.869-1.697,9.17,2.172,11.84c1.476,1.019,3.16,1.506,4.827,1.506c2.703,0,5.362-1.285,7.013-3.678l10.887-15.779h180.904
	l10.887,15.779c1.653,2.394,4.311,3.678,7.013,3.678c1.666,0,3.351-0.488,4.827-1.506c3.869-2.67,4.841-7.969,2.172-11.84
	l-4.216-6.111h112.29c8.576,0,15.551,6.975,15.551,15.55v195.436c0,8.574-6.975,15.551-15.551,15.551h-38.133
	c-4.701,0-8.512,3.811-8.512,8.512s3.811,8.512,8.512,8.512h38.133c17.962,0,32.574-14.612,32.574-32.574V239.998
	C512,222.038,497.388,207.425,479.426,207.425z M256,61.012c9.567,0,17.35,7.783,17.35,17.35s-7.783,17.35-17.35,17.35
	c-9.567,0-17.35-7.783-17.35-17.35S246.433,61.012,256,61.012z M177.293,207.425l66.8-96.818c3.712,1.375,7.723,2.129,11.907,2.129
	s8.196-0.754,11.907-2.129l66.8,96.818H177.293z"/>
<path d="M269.934,287.142h5.777c4.701,0,8.512-3.811,8.512-8.512s-3.811-8.512-8.512-8.512h-29.997
	c-4.701,0-8.512,3.811-8.512,8.512s3.811,8.512,8.512,8.512h5.665l-23.39,53.913l-23.39-53.913h5.663
	c4.701,0,8.512-3.811,8.512-8.512c0-4.701-3.811-8.512-8.512-8.512h-29.996c-4.701,0-8.512,3.811-8.512,8.512
	c0,4.701,3.811,8.512,8.512,8.512h5.777l33.435,77.066v24.084h-6.487c-4.701,0-8.512,3.811-8.512,8.512
	c0,4.701,3.811,8.512,8.512,8.512h29.997c4.701,0,8.512-3.811,8.512-8.512c0-4.701-3.811-8.512-8.512-8.512h-6.487v-24.084
	L269.934,287.142z"/>
<path d="M404.823,396.803c0,4.701,3.811,8.512,8.512,8.512h25.912c4.701,0,8.512-3.811,8.512-8.512c0-4.701-3.811-8.512-8.512-8.512
	h-5.382l-29.726-111.846c-0.991-3.729-4.367-6.326-8.226-6.326s-7.235,2.595-8.226,6.326l-23.181,87.221l-23.181-87.221
	c-0.991-3.729-4.367-6.326-8.226-6.326c-3.859,0-7.235,2.595-8.226,6.325L295.142,388.29h-5.381c-4.701,0-8.512,3.811-8.512,8.512
	c0,4.701,3.811,8.512,8.512,8.512h25.912c4.701,0,8.512-3.811,8.512-8.512c0-4.701-3.811-8.512-8.512-8.512h-2.916l20.34-76.524
	l23.181,87.222c0.991,3.729,4.367,6.326,8.226,6.326c3.859,0,7.235-2.595,8.226-6.326l23.181-87.221l20.339,76.524h-2.915
	C408.635,388.291,404.823,392.102,404.823,396.803z"/>
<path d="M109.373,288.598c12.346,0,23.882,6.634,30.108,17.314c2.369,4.062,7.58,5.432,11.64,3.065
	c4.062-2.367,5.434-7.579,3.067-11.64c-9.264-15.892-26.435-25.762-44.815-25.762c-24.886,0-45.132,20.246-45.132,45.131v43.477
	c0,24.885,20.246,45.132,45.132,45.132c28.588,0,51.847-23.259,51.847-51.847c0-4.701-3.811-8.512-8.512-8.512h-34.647
	c-4.701,0-8.512,3.811-8.512,8.512c0,4.701,3.811,8.512,8.512,8.512h25.083c-3.807,15.102-17.504,26.312-33.771,26.312
	c-15.499,0-28.109-12.609-28.109-28.109v-43.477C81.265,301.207,93.874,288.598,109.373,288.598z"/>
<g>
</g>
<g>
</g>
<g>
</g>
<g>
</g>
<g>
</g>
<g>
</g>
<g>
</g>
<g>
</g>
<g>
</g>
<g>
</g>
<g>
</g>
<g>
</g>
<g>
</g>
<g>
</g>
<g>
</g>
</svg>
