<?xml version="1.0" encoding="iso-8859-1"?>
<!-- Generator: Adobe Illustrator 19.0.0, SVG Export Plug-In . SVG Version: 6.00 Build 0)  -->
<svg version="1.1" id="Layer_1" xmlns="http://www.w3.org/2000/svg" xmlns:xlink="http://www.w3.org/1999/xlink" x="0px" y="0px"
	 viewBox="0 0 512 512" style="enable-background:new 0 0 512 512;" xml:space="preserve">
<rect x="6.852" y="236.187" style="fill:#666363;" width="58.295" height="38.806"/>
<polygon style="fill:#808080;" points="31.731,274.993 31.731,236.187 31.731,183.562 91.999,183.562 91.999,327.618 
	31.731,327.618 "/>
<polygon style="fill:#999999;" points="31.731,269.766 31.731,241.414 31.731,202.965 91.999,202.965 91.999,308.215 
	31.731,308.215 "/>
<rect x="31.731" y="225.699" style="fill:#B3B3B3;" width="82.462" height="34.494"/>
<g>
	<rect x="458.502" y="236.187" style="fill:#666363;" width="46.341" height="38.806"/>
	<rect x="145.888" y="236.187" style="fill:#666363;" width="219.911" height="38.806"/>
</g>
<polygon style="fill:#808080;" points="479.95,274.993 479.95,327.618 414.303,327.618 414.303,183.562 479.95,183.562 
	479.95,236.187 "/>
<g>
	<polygon style="fill:#999999;" points="479.95,269.766 479.95,308.215 414.303,308.215 414.303,202.965 479.95,202.965 
		479.95,241.414 	"/>
	<polygon style="fill:#999999;" points="163.046,274.993 163.046,351.796 80.584,351.796 80.584,327.618 80.584,183.562 
		80.584,159.394 163.046,159.394 163.046,236.187 	"/>
</g>
<rect x="397.49" y="225.699" style="fill:#B3B3B3;" width="82.462" height="34.494"/>
<polygon style="fill:#999999;" points="431.097,327.618 431.097,351.796 348.635,351.796 348.635,274.993 348.635,236.187 
	348.635,159.394 431.097,159.394 431.097,183.562 "/>
<g>
	<polygon style="fill:#B3B3B3;" points="163.046,268.907 163.046,321.614 80.584,321.614 80.584,305.022 80.584,206.162 
		80.584,189.577 163.046,189.577 163.046,242.276 	"/>
	<polygon style="fill:#B3B3B3;" points="431.097,305.022 431.097,321.614 348.635,321.614 348.635,268.907 348.635,242.276 
		348.635,189.577 431.097,189.577 431.097,206.162 	"/>
</g>
<g>
	<rect x="80.587" y="218.153" style="fill:#CCCCCC;" width="82.462" height="34.494"/>
	<rect x="348.638" y="218.153" style="fill:#CCCCCC;" width="82.462" height="34.494"/>
</g>
<path d="M504.993,229.591h-17.885v-45.622c0-3.87-3.137-7.007-7.007-7.007h-41.845v-17.164c0-3.87-3.137-7.007-7.007-7.007h-82.459
	c-3.87,0-7.007,3.137-7.007,7.007v69.792H170.21v-69.792c0-3.87-3.137-7.007-7.007-7.007H80.745c-3.87,0-7.007,3.137-7.007,7.007
	v17.164H31.893c-3.87,0-7.007,3.137-7.007,7.007v45.622H7.007c-3.87,0-7.007,3.137-7.007,7.007v38.806
	c0,3.87,3.137,7.007,7.007,7.007h17.88v45.621c0,3.87,3.137,7.007,7.007,7.007h41.846v17.164c0,3.87,3.137,7.007,7.007,7.007h82.458
	c3.87,0,7.007-3.137,7.007-7.007V282.41h171.575v69.791c0,3.87,3.137,7.007,7.007,7.007h82.459c3.87,0,7.007-3.137,7.007-7.007
	v-17.164h41.845c3.87,0,7.007-3.137,7.007-7.007V282.41h17.885c3.87,0,7.007-3.137,7.007-7.007v-38.806
	C512,232.728,508.863,229.591,504.993,229.591z M14.013,268.397v-24.793h10.873v24.793H14.013z M87.752,345.195v-41.731
	c0-3.87-3.137-7.007-7.007-7.007c-3.87,0-7.007,3.137-7.007,7.007v17.562H38.9v-130.05h34.839v81.767
	c0,3.87,3.137,7.007,7.007,7.007c3.87,0,7.007-3.137,7.007-7.007V166.804h68.445c0,0-0.003,108.578-0.003,108.598
	s0.003,69.791,0.003,69.791H87.752V345.195z M170.21,268.397v-24.793h171.575v24.793H170.21z M473.096,321.024h-34.838V253.34
	c0-3.87-3.137-7.007-7.007-7.007c-3.87,0-7.007,3.137-7.007,7.007v91.854h-68.446V166.805h68.446v52.582
	c0,3.87,3.137,7.007,7.007,7.007c3.87,0,7.007-3.137,7.007-7.007v-28.411h34.838V321.024z M497.987,268.397h-10.879v-24.793h10.879
	V268.397z"/>
<g>
</g>
<g>
</g>
<g>
</g>
<g>
</g>
<g>
</g>
<g>
</g>
<g>
</g>
<g>
</g>
<g>
</g>
<g>
</g>
<g>
</g>
<g>
</g>
<g>
</g>
<g>
</g>
<g>
</g>
</svg>
