<?xml version="1.0" encoding="iso-8859-1"?>
<!-- Generator: Adobe Illustrator 19.0.0, SVG Export Plug-In . SVG Version: 6.00 Build 0)  -->
<svg version="1.1" id="Layer_1" xmlns="http://www.w3.org/2000/svg" xmlns:xlink="http://www.w3.org/1999/xlink" x="0px" y="0px"
	 viewBox="0 0 512.003 512.003" style="enable-background:new 0 0 512.003 512.003;" xml:space="preserve">
<g>
	<path style="fill:#FD6568;" d="M482.592,351.496c11.996,0,21.711,9.727,21.711,21.711c0,11.996-9.715,21.711-21.711,21.711
		c-11.985,0-21.699-9.715-21.699-21.711C460.893,361.223,470.608,351.496,482.592,351.496z"/>
	<path style="fill:#FD6568;" d="M361.67,351.496c11.985,0,21.699,9.727,21.699,21.711c0,11.996-9.715,21.711-21.699,21.711
		c-11.996,0-21.711-9.715-21.711-21.711C339.959,361.223,349.674,351.496,361.67,351.496z"/>
</g>
<path style="fill:#F2D766;" d="M277.894,311.548v98.204c0,12.262-9.935,22.209-22.197,22.209H107.308
	c-12.262,0-22.197-9.947-22.197-22.209v-98.204V200.399V169.32c0-12.262,9.935-22.197,22.197-22.197h117.147h31.241
	c12.262,0,22.197,9.935,22.197,22.197v31.079L277.894,311.548L277.894,311.548z"/>
<path style="fill:#FEE572;" d="M107.308,416.908c-3.939,0-7.144-3.21-7.144-7.156V169.32c0-3.939,3.205-7.144,7.144-7.144h148.388
	c3.939,0,7.144,3.205,7.144,7.144v240.432c0,3.946-3.205,7.156-7.144,7.156H107.308z"/>
<rect x="122.427" y="186.208" style="fill:#C0E8F6;" width="118.143" height="82.19"/>
<path style="fill:#E0AA68;" d="M181.497,303.431c25.903,0,46.896,20.993,46.896,46.896s-20.993,46.896-46.896,46.896
	c-25.891,0-46.884-20.993-46.884-46.896S155.606,303.431,181.497,303.431z"/>
<polygon style="fill:#FFFFFF;" points="240.574,188.518 240.574,263.76 175.117,263.76 213.27,188.518 "/>
<path d="M247.378,267.385v-81.614c0-4.157-3.37-7.527-7.527-7.527H123.488c-4.157,0-7.527,3.37-7.527,7.527v81.614
	c0,4.157,3.37,7.527,7.527,7.527h20.197c4.157,0,7.527-3.37,7.527-7.527s-3.37-7.527-7.527-7.527h-12.67v-66.561h101.309v66.561
	h-62.007c-4.157,0-7.527,3.37-7.527,7.527s3.37,7.527,7.527,7.527h69.533C244.009,274.911,247.378,271.542,247.378,267.385z"/>
<path d="M127.25,350.765c0,30.008,24.413,54.42,54.42,54.42s54.42-24.413,54.42-54.42c0-30.008-24.413-54.42-54.42-54.42
	C151.663,296.346,127.25,320.758,127.25,350.765z M221.036,350.765c0,21.708-17.66,39.367-39.367,39.367
	s-39.367-17.66-39.367-39.367c0-21.706,17.66-39.367,39.367-39.367C203.377,311.399,221.036,329.058,221.036,350.765z"/>
<path d="M489.814,345.278c-3.25-23.033-23.082-40.813-46.998-40.813H321.885h-36.296v-96.096h52.389
	c18.324,0,35.516-7.169,48.412-20.187c12.896-13.019,19.902-30.279,19.728-48.602c-0.353-37.218-30.92-67.497-68.139-67.497h-85.485
	c-19.516,0-35.393,15.877-35.393,35.393v32.555H107.475c-16.39,0-29.725,13.335-29.725,29.725v23.559H63.107
	C28.31,193.316,0,221.62,0,256.411c0,16.869,6.565,32.717,18.485,44.622c11.92,11.92,27.767,18.485,44.622,18.485H77.75v90.677
	c0,16.39,13.335,29.725,29.725,29.725h148.388c16.39,0,29.725-13.335,29.725-29.725V386c0-4.157-3.37-7.527-7.527-7.527
	s-7.527,3.37-7.527,7.527v24.195c0,8.09-6.582,14.672-14.672,14.672H107.475c-8.09,0-14.672-6.582-14.672-14.672V169.758
	c0-8.09,6.582-14.672,14.672-14.672h148.388c8.09,0,14.672,6.582,14.672,14.672v190.19c0,4.157,3.37,7.527,7.527,7.527
	s7.527-3.37,7.527-7.527v-40.43h36.296c15.701,0,28.828,11.219,31.792,26.061c-12.163,3.541-21.079,14.78-21.079,28.069
	c0,16.121,13.116,29.236,29.236,29.236c16.121,0,29.236-13.116,29.236-29.236c0-13.69-9.46-25.208-22.186-28.371
	c-1.395-9.888-5.845-18.8-12.364-25.76h86.298c15.701,0,28.828,11.219,31.792,26.061c-12.163,3.541-21.079,14.78-21.079,28.069
	c0,16.121,13.115,29.236,29.235,29.236s29.236-13.116,29.236-29.236C512,359.96,502.54,348.442,489.814,345.278z M63.107,304.466
	c-12.833,0-24.901-4.999-33.982-14.079c-9.075-9.064-14.072-21.131-14.072-33.975c0-26.49,21.557-48.042,48.054-48.042H77.75v96.096
	H63.107z M255.863,140.033h-23.711v-32.555c0-11.216,9.124-20.34,20.34-20.34h85.485c28.997,0,52.812,23.59,53.087,52.586
	c0.135,14.276-5.323,27.723-15.37,37.865c-10.046,10.142-23.442,15.728-37.717,15.728h-52.389v-23.559
	C285.588,153.367,272.254,140.033,255.863,140.033z M376.016,373.65c0,7.821-6.363,14.183-14.183,14.183
	c-7.821,0-14.183-6.363-14.183-14.183s6.363-14.183,14.183-14.183C369.653,359.466,376.016,365.829,376.016,373.65z
	 M482.765,387.833c-7.819,0-14.182-6.363-14.182-14.183s6.363-14.183,14.182-14.183c7.821,0,14.183,6.363,14.183,14.183
	S490.585,387.833,482.765,387.833z"/>
<g>
</g>
<g>
</g>
<g>
</g>
<g>
</g>
<g>
</g>
<g>
</g>
<g>
</g>
<g>
</g>
<g>
</g>
<g>
</g>
<g>
</g>
<g>
</g>
<g>
</g>
<g>
</g>
<g>
</g>
</svg>
