<?xml version="1.0" encoding="iso-8859-1"?>
<!-- Generator: Adobe Illustrator 19.0.0, SVG Export Plug-In . SVG Version: 6.00 Build 0)  -->
<svg version="1.1" id="Layer_1" xmlns="http://www.w3.org/2000/svg" xmlns:xlink="http://www.w3.org/1999/xlink" x="0px" y="0px"
	 viewBox="0 0 511.999 511.999" style="enable-background:new 0 0 511.999 511.999;" xml:space="preserve">
<path style="fill:#666363;" d="M409.53,102.791v158.163c-13.249-22.844-99.423,40.821-121.101,25.888
	c-14.295-9.847,37.877-100.924,20.973-106.274c23.361,7.226,47.01-10.556,47.01-35.035v-40.638
	C356.425,80.368,336.527,60.47,312,60.47H200.065c-24.695,0-44.653,20.151-44.413,44.846l0.373,40.313
	c0.228,24.286,23.721,41.84,46.914,34.722c-16.64,5.182,2.26,62.669-11.891,72.227c-22.255,15.041-75.42-14.925-88.934,8.387
	V102.791c0-52.697,42.718-95.427,95.427-95.427h116.563C366.813,7.364,409.53,50.094,409.53,102.791z"/>
<path style="fill:#7D7878;" d="M409.53,260.953c15.161,26.15,23.842,56.532,23.842,88.946c0,42.982-15.281,82.406-40.71,113.125
	c-5.519,6.661-12.468,11.975-20.343,15.558c-35.504,16.147-74.951,25.152-116.491,25.152c-41.552,0-80.999-9.005-116.503-25.152
	c-7.863-3.583-14.824-8.897-20.331-15.558C93.565,432.305,78.272,392.882,78.272,349.9c0-32.402,8.681-62.784,23.842-88.922v-0.012
	c13.514-23.313,32.186-43.259,54.44-58.3c14.151-9.558,29.745-17.133,46.385-22.315c0.048-0.012,0.084-0.024,0.132-0.036
	c0.204-0.06,0.409-0.132,0.613-0.18c1.755-0.553,3.523-1.058,5.29-1.539c3.294-0.902,6.625-1.707,9.991-2.417
	c1.07-0.228,2.164-0.445,3.246-0.649c0.012-0.012,0.024-0.012,0.036-0.012c1.815-0.349,3.643-0.673,5.482-0.962
	c9.15-1.455,18.539-2.212,28.098-2.212c5.158,0,10.268,0.216,15.317,0.661c0.661,0.048,1.323,0.108,1.972,0.168
	c3.415,0.337,6.805,0.757,10.159,1.274c2.188,0.349,4.376,0.733,6.541,1.142c0.313,0.06,0.637,0.132,0.95,0.192
	c0.83,0.168,1.659,0.337,2.477,0.517c2.14,0.457,4.268,0.95,6.372,1.491c1.022,0.253,2.032,0.517,3.042,0.794
	c2.2,0.601,4.388,1.238,6.553,1.924c0.06,0.024,0.132,0.036,0.192,0.06c16.904,5.35,32.715,13.153,47.01,23
	C378.09,218.5,396.281,238.11,409.53,260.953z"/>
<path style="fill:#808080;" d="M388.207,255.489c11.136,16.921,17.512,36.581,17.512,57.557c0,27.814-11.225,53.324-29.902,73.202
	c-4.053,4.31-9.158,7.749-14.942,10.067c-26.078,10.449-55.053,16.276-85.564,16.276c-30.52,0-59.495-5.828-85.574-16.276
	c-5.776-2.318-10.889-5.758-14.934-10.067c-18.678-19.878-29.911-45.389-29.911-73.202c0-20.967,6.376-40.627,17.512-57.541v-0.007
	c9.926-15.085,23.641-27.993,39.987-37.726c10.394-6.185,21.848-11.086,34.071-14.44c0.035-0.007,0.061-0.016,0.097-0.023
	c0.15-0.038,0.301-0.085,0.451-0.117c1.289-0.358,2.587-0.684,3.886-0.995c2.42-0.583,4.866-1.105,7.339-1.564
	c0.786-0.148,1.589-0.287,2.384-0.42c0.008-0.007,0.018-0.007,0.026-0.007c1.333-0.226,2.676-0.435,4.027-0.623
	c6.721-0.941,13.617-1.432,20.639-1.432c3.788,0,7.542,0.139,11.251,0.428c0.486,0.031,0.971,0.07,1.449,0.109
	c2.508,0.218,4.998,0.491,7.463,0.825c1.607,0.226,3.215,0.475,4.804,0.739c0.23,0.038,0.468,0.085,0.697,0.125
	c0.61,0.109,1.219,0.218,1.819,0.334c1.571,0.296,3.136,0.614,4.681,0.964c0.75,0.164,1.492,0.334,2.234,0.513
	c1.616,0.39,3.223,0.802,4.813,1.244c0.044,0.016,0.097,0.023,0.142,0.038c12.416,3.463,24.029,8.511,34.53,14.883
	C365.114,228.018,378.475,240.707,388.207,255.489z"/>
<path d="M417.526,259.442V103.243C417.526,46.314,371.212,0,314.283,0H197.716C140.787,0,94.473,46.314,94.473,103.243v156.162
	c-15.405,27.354-23.837,58.564-23.837,90.943c0,43.051,15.097,84.998,42.51,118.114c6.23,7.526,14.224,13.643,23.118,17.687
	c37.71,17.152,77.996,25.849,119.735,25.849c41.74,0,82.025-8.696,119.735-25.849c8.893-4.045,16.888-10.162,23.118-17.687
	c27.414-33.115,42.511-75.063,42.511-118.114C441.362,318.033,432.932,286.811,417.526,259.442z M110.103,103.243
	c0-48.31,39.303-87.613,87.613-87.613h116.567c48.31,0,87.613,39.303,87.613,87.613v132.779
	c-11.453-14.62-25.174-27.619-40.871-38.43c-6.575-4.529-13.403-8.576-20.423-12.187c1.928-1.021,3.8-2.193,5.602-3.513
	c11.57-8.487,18.205-21.573,18.205-35.906v-40.632c0-14.404-6.036-28.311-16.558-38.154c-3.152-2.949-8.099-2.783-11.046,0.368
	c-2.949,3.152-2.783,8.098,0.368,11.046c7.484,7.001,11.606,16.498,11.606,26.74v40.632c0,9.299-4.308,17.793-11.821,23.303
	c-7.375,5.41-16.571,6.951-25.229,4.224c-0.008-0.002-0.017-0.004-0.025-0.007c-17.865-5.62-36.6-8.52-55.704-8.52
	c-18.815,0-37.291,2.821-54.932,8.285c-0.044,0.013-0.089,0.02-0.133,0.035c-8.583,2.668-17.707,1.133-25.031-4.208
	c-7.47-5.448-11.803-13.864-11.89-23.091l-0.376-40.312c-0.091-9.842,3.673-19.113,10.599-26.106
	c6.928-6.993,16.163-10.844,26.006-10.844h97.378c4.316,0,7.815-3.499,7.815-7.815s-3.499-7.815-7.815-7.815h-97.377
	c-14.045,0-27.224,5.495-37.109,15.472c-9.885,9.978-15.256,23.207-15.125,37.251l0.376,40.312
	c0.132,14.218,6.805,27.184,18.309,35.574c1.723,1.256,3.514,2.364,5.354,3.346c-6.759,3.441-13.342,7.287-19.691,11.577
	c-16.282,11-30.466,24.325-42.252,39.357V103.243H110.103z M386.812,458.498c-4.729,5.712-10.797,10.355-17.548,13.426
	c-35.665,16.221-73.772,24.446-113.265,24.446c-39.492,0-77.599-8.225-113.264-24.446c-6.751-3.071-12.819-7.713-17.549-13.426
	c-25.098-30.318-38.92-68.727-38.92-108.147c0-56.474,27.978-109.091,74.84-140.75c28.067-18.961,60.88-28.984,94.894-28.984
	c34.56,0,67.812,10.321,96.16,29.847c46.069,31.732,73.574,84.025,73.574,139.887C425.732,389.77,411.911,428.178,386.812,458.498z"
	/>
<path d="M402.546,311.679c-9.253-35.036-30.808-65.669-60.693-86.253c-3.554-2.449-8.42-1.552-10.869,2.003
	c-2.448,3.554-1.552,8.421,2.003,10.869c26.81,18.467,46.147,45.945,54.447,77.373c0.926,3.505,4.089,5.822,7.55,5.822
	c0.66,0,1.332-0.084,2.001-0.261C401.159,320.127,403.649,315.852,402.546,311.679z"/>
<path d="M302.243,222.468c1.894,0.684,3.799,1.422,5.663,2.193c0.976,0.404,1.987,0.595,2.983,0.595c3.068,0,5.98-1.819,7.225-4.831
	c1.65-3.988-0.248-8.559-4.236-10.208c-2.08-0.86-4.208-1.683-6.32-2.448c-4.06-1.467-8.539,0.635-10.007,4.693
	C296.084,216.52,298.184,221,302.243,222.468z"/>
<path d="M190.352,312.185h131.295c4.316,0,7.815-3.499,7.815-7.815s-3.499-7.815-7.815-7.815H190.352
	c-4.316,0-7.815,3.499-7.815,7.815S186.037,312.185,190.352,312.185z"/>
<path d="M314.497,364.801H197.502c-4.316,0-7.815,3.499-7.815,7.815c0,4.316,3.499,7.815,7.815,7.815h116.995
	c4.316,0,7.815-3.499,7.815-7.815C322.312,368.3,318.813,364.801,314.497,364.801z"/>
<path d="M329.446,330.679H182.553c-4.316,0-7.815,3.499-7.815,7.815c0,4.316,3.499,7.815,7.815,7.815h146.894
	c4.316,0,7.815-3.499,7.815-7.815C337.261,334.177,333.762,330.679,329.446,330.679z"/>
<g>
</g>
<g>
</g>
<g>
</g>
<g>
</g>
<g>
</g>
<g>
</g>
<g>
</g>
<g>
</g>
<g>
</g>
<g>
</g>
<g>
</g>
<g>
</g>
<g>
</g>
<g>
</g>
<g>
</g>
</svg>
