<?xml version="1.0" encoding="iso-8859-1"?>
<!-- Generator: Adobe Illustrator 19.0.0, SVG Export Plug-In . SVG Version: 6.00 Build 0)  -->
<svg version="1.1" id="Layer_1" xmlns="http://www.w3.org/2000/svg" xmlns:xlink="http://www.w3.org/1999/xlink" x="0px" y="0px"
	 viewBox="0 0 512 512" style="enable-background:new 0 0 512 512;" xml:space="preserve">
<path style="fill:#FEE572;" d="M484.476,303.373H17.898V181.549c4.886,15.555,18.155,26.713,33.884,29.174
	c2.145,0.338,4.338,0.513,6.565,0.513h105.582c22.259,0,43.294-10.214,57.041-27.716l27.261-34.689l39.388,39.388
	c0.058,0.058,0.117,0.117,0.175,0.175c7.334,7.288,15.951,12.989,25.326,16.86c2.285,0.944,4.606,1.784,6.973,2.495
	c7.416,2.297,15.205,3.486,23.11,3.486c5.539,0,11.03,0.303,16.464,0.886c49.462,5.34,93.7,34.502,117.942,78.729L484.476,303.373z"
	/>
<path style="fill:#EAD475;" d="M477.609,290.85c-24.241-44.227-68.48-73.389-117.942-78.729c-5.434-0.583-10.925-0.886-16.464-0.886
	c-7.906,0-15.694-1.189-23.11-3.486c-2.367-0.711-4.687-1.551-6.973-2.495c-9.375-3.871-17.991-9.573-25.326-16.86
	c-0.058-0.058-0.117-0.117-0.175-0.175l-39.388-39.388l-15.907,20.24l19.148,19.148c0.058,0.058,0.117,0.117,0.175,0.175
	c7.334,7.288,15.951,12.989,25.326,16.86c2.285,0.944,4.606,1.784,6.973,2.495c7.416,2.297,15.205,3.486,23.11,3.486
	c5.539,0,11.03,0.303,16.464,0.886c49.462,5.34,93.7,34.502,117.942,78.729l6.868,12.523h36.146L477.609,290.85z"/>
<polygon style="fill:#FD6568;" points="163.929,211.235 192.694,258.622 154.321,303.373 108.754,303.373 147.127,258.622 
	118.361,211.235 "/>
<path style="fill:#C0E8F6;" d="M504.252,319.732v27.955c0,7.094-5.751,12.844-12.844,12.844H20.248
	c-7.094,0-12.844-5.751-12.844-12.844v-46.063h478.74C496.145,301.624,504.252,309.732,504.252,319.732z"/>
<path style="fill:#EAD475;" d="M51.782,210.722v92.651H17.898V181.549C22.784,197.103,36.053,208.262,51.782,210.722z"/>
<path style="fill:#9CCBD8;" d="M486.144,301.624h-8.71v37.446c0,5.4-4.377,9.777-9.777,9.777H44.466c-5.4,0-9.777-4.377-9.777-9.777
	v-37.446H7.404v37.312v8.751c0,7.094,5.751,12.844,12.844,12.844h14.441h442.745h13.975c7.093,0,12.844-5.751,12.844-12.844v-8.751
	v-19.204C504.252,309.732,496.145,301.624,486.144,301.624z"/>
<path d="M489.226,296.405l-4.8-8.76c-23.876-43.57-66.205-73.181-114.236-81.292c0.188-3.127-1.582-6.169-4.635-7.446
	c-3.862-1.615-8.302,0.206-9.916,4.068l-0.651,1.555c-3.848-0.278-7.721-0.428-11.618-0.428c-3.769,0-7.488-0.303-11.141-0.876
	l1.292-2.1c2.193-3.566,1.082-8.233-2.482-10.426c-3.567-2.194-8.234-1.083-10.426,2.482L317,199.052
	c-6.49-2.593-12.586-6.151-18.112-10.607l5.072-5.239c2.912-3.007,2.835-7.805-0.174-10.717c-3.006-2.912-7.804-2.833-10.717,0.173
	l-5.196,5.367l-34.116-34.116c-1.533-1.533-3.657-2.34-5.811-2.206c-2.163,0.129-4.168,1.179-5.507,2.882l-27.257,34.689
	c-12.396,15.777-31.015,24.827-51.079,24.827H58.518c-15.285,0-28.636-9.797-33.221-24.38c-1.123-3.57-4.684-5.782-8.38-5.218
	c-3.699,0.568-6.429,3.75-6.429,7.492v62.38c0,4.186,3.393,7.579,7.579,7.579s7.579-3.393,7.579-7.579v-37.383
	c8.869,7.74,20.424,12.268,32.871,12.268h55.746l23.698,39.039l-32.525,37.935H25.648v-16.88c0-4.186-3.393-7.579-7.579-7.579
	s-7.579,3.393-7.579,7.579v16.88h-2.91c-4.186,0-7.579,3.393-7.579,7.579v58.914c0,4.186,3.393,7.579,7.579,7.579h496.842
	c4.186,0,7.579-3.393,7.579-7.579v-40.803C512,308.745,502.022,297.857,489.226,296.405z M153.046,263.996
	c2.133-2.488,2.425-6.064,0.725-8.866l-21.773-35.869h32.106c24.747,0,47.71-11.161,62.998-30.619l21.978-27.971l28.249,28.25
	l-18.674,19.288c-2.912,3.007-2.835,7.805,0.174,10.717c1.471,1.425,3.372,2.134,5.272,2.134c1.981,0,3.96-0.772,5.445-2.308
	l18.762-19.379c6.306,5.256,13.254,9.524,20.65,12.746l-7.003,11.38c-2.193,3.566-1.082,8.233,2.482,10.426
	c1.239,0.763,2.61,1.125,3.964,1.125c2.545,0,5.03-1.281,6.462-3.608l8.884-14.436c6.361,1.475,12.929,2.255,19.62,2.255
	c1.81,0,3.613,0.04,5.414,0.107l-6.554,15.673c-1.615,3.862,0.206,8.302,4.068,9.916c0.955,0.4,1.946,0.589,2.921,0.589
	c2.965,0,5.781-1.75,6.996-4.657l8.388-20.06c44.762,6.583,84.4,33.714,106.531,74.1l0.716,1.306H170.978l27.64-32.239
	c2.134-2.488,2.425-6.066,0.725-8.866l-10.179-16.77c-2.171-3.577-6.83-4.718-10.411-2.545c-3.578,2.172-4.718,6.833-2.545,10.411
	l7.33,12.073l-32.525,37.935h-25.606L153.046,263.996z M496.842,355.149H15.158v-15.158h67.168c4.186,0,7.579-3.393,7.579-7.579
	c0-4.186-3.393-7.579-7.579-7.579H15.158v-13.439h469.485h1.667c5.807,0,10.533,4.725,10.533,10.531v33.224H496.842z"/>
<path d="M477.48,324.833H112.642c-4.186,0-7.579,3.393-7.579,7.579c0,4.186,3.393,7.579,7.579,7.579H477.48
	c4.186,0,7.579-3.393,7.579-7.579C485.059,328.226,481.666,324.833,477.48,324.833z"/>
<g>
</g>
<g>
</g>
<g>
</g>
<g>
</g>
<g>
</g>
<g>
</g>
<g>
</g>
<g>
</g>
<g>
</g>
<g>
</g>
<g>
</g>
<g>
</g>
<g>
</g>
<g>
</g>
<g>
</g>
</svg>
